<svg xmlns="http://www.w3.org/2000/svg" viewBox="0 0 1024 1024" role="img" aria-label="Zümm">
  <style>path{fill:#2C4A42}@media(prefers-color-scheme:dark){path{fill:#FCFDFC}}</style>
  <path fill-rule="evenodd" d="M0,512L0,0L512,0L1024,0L1024,512L1024,1024L512,1024L0,1024L0,512zM521.5,739.5C529.8,736.1 535.3,728 535.5,718.5L535.7,712.5L551.6,703C582.8,684.1 648.7,644.2 658.4,638.2L668.2,632.1L673.4,635C680.3,638.9 686.2,639.7 693.3,637.6C700.4,635.5 704.7,631.9 707.6,625.5C713.6,612.8 707.7,597.3 695.2,592.9L692,591.8L692,551.1L692,510.5L699.9,505.2C708.4,499.6 712.7,495 718.5,485.5C722.2,479.2 727,465.7 727,461.4C727,459.5 729.5,456.3 735.8,449.7C746,439 747.9,436.5 752.4,427.3C759.4,413.1 762.4,400 762.3,384.5C762.2,371.6 760.9,365.6 757.5,363.4C754.6,361.5 757,360.4 727.1,377.9C704.7,391 704.6,391 702.6,389.1C695.3,382.3 681.9,381.6 672.7,387.6L668.9,390.1L626.7,364.9C603.5,351 573.5,333.1 560,325L535.5,310.4L534.9,303.4C534.3,295.8 532.6,291.9 528.3,287.9C518.6,278.9 506,279.1 496.4,288.4C490.8,293.9 489,298.1 489,306L489,310.6L466.2,324.1C453.7,331.6 433.4,343.7 421,351C408.6,358.3 384.7,372.6 367.8,382.7L337,401.1L323.8,393.4C316.5,389.1 301.9,380.5 291.3,374.3C270.7,362.2 267.3,361 264.5,365.3C262.4,368.5 260.7,383 261.5,391C264,415.9 272.4,434.4 288.1,449.5C295.2,456.4 295.4,456.7 297.7,465.3C302.7,484.4 313,499.5 326.2,507L332,510.2L332,550.9L332,591.7L327.9,593.5C315.8,599 310.6,614 316.8,626.1C323.2,638.7 340.6,642.9 351.7,634.4L355,631.9L373.2,642.8C393.5,654.9 427,675.2 463.8,697.6L488.2,712.5L488.4,718.7C488.7,727 492.5,733.3 499.9,737.7C507.1,742 514,742.6 521.5,739.5zM480,693.6C463.7,683.5 383.1,634.6 370.5,627.2L361.5,621.9L361.6,614.9L361.6,607.9L367.4,604.5C370.5,602.6 373.4,601 373.8,601C374.2,601 387.4,608.7 403.1,618.2L431.8,635.5L432.3,640.3C433.5,653.6 451.3,657.7 458.6,646.4C460.9,642.9 460.9,635.1 458.6,631.6C454.7,625.5 446.3,623.3 439.5,626.6L436.1,628.2L411.8,613.4C398.4,605.3 386.5,597.9 385.2,596.9C383,595.2 383,595.2 392.9,589.1L402.9,583L407.7,585.9C410.3,587.5 425.9,596.7 442.2,606.4C458.5,616 472.1,624.4 472.4,624.9C472.7,625.4 473.7,630.6 474.6,636.5L476.2,647.3L473.1,649.7C464.8,656.2 464.9,668.9 473.3,674C477.3,676.5 484.2,676.6 488,674.3C497.1,669 497.1,654.7 488,649.4C484.6,647.3 484.6,647.3 483.1,634.4C482.5,629.4 481.5,623.9 480.9,622.2C479.8,619 474.6,615.6 431.3,589.9C420.7,583.6 412,578.2 412,577.8C412,577.4 417,574.1 423,570.5L434,563.9L455.3,576.5C494.6,600 493.7,599.4 494.2,604.3C494.9,610.6 497.8,615.8 502.2,618.7L506,621.3L506,658L506,694.7L502,696.5C499.8,697.5 497.3,699.1 496.4,700.1C495.4,701.2 494.4,702 494.1,702C493.8,702 487.4,698.2 480,693.6zM528,700C526.6,699 523.8,697.3 521.8,696.4L518,694.7L518,657.6L518.1,620.5L521.3,618.5C525.3,615.9 528.8,610.8 529.5,606.1C530.6,599.2 529.4,600.2 565.8,578.4L590,563.8L600.3,570.1C613.6,578.2 613.9,578.5 610.9,580C608.1,581.5 558.2,612 549.8,617.4C543.3,621.5 542.8,622.5 540.9,637.7C539.8,646.5 539.6,647.1 536.3,649.6C529.1,655.1 527.2,662 531.1,669C533.7,673.7 537.7,676 543,676C548.3,676 552.3,673.9 554.9,669.7C558.7,663.4 557.4,656.1 551.4,650.6L547.9,647.4L549.7,636.9L551.5,626.5L559.5,621.2C571.8,613 620.4,583.7 621.6,583.7C622.8,583.7 639.7,593.7 640.4,594.9C640.9,595.6 592.9,626 588.8,627.5C587.9,627.9 586.1,627.5 584.8,626.6C583.6,625.7 580.6,625 578,625C569.6,625 563.7,631 563.7,639.7C563.7,647.3 569.8,653 578,653C585.7,653 590.7,648.4 591.8,640.3L592.5,635.6L620.5,618.3C635.9,608.8 649.2,601 650,601C650.8,601 654,602.5 657,604.3L662.5,607.6L662.5,614.9L662.5,622.2L657,625.5C646.3,631.8 580.1,671.9 555.7,686.8C542.1,695.2 530.9,702 530.7,702C530.6,702 529.4,701.1 528,700zM478.8,666.3C476.9,665.8 475.6,662.3 476.2,659.3C476.4,658.4 477.7,657.1 479.2,656.6C484.5,654.7 488.3,661.6 484.2,665.3C482.3,667 481.8,667.1 478.8,666.3zM539.7,665.2C537.5,662.8 537.6,659.7 539.8,657.7C542.2,655.5 544.3,655.6 546.3,657.8C548.6,660.3 548.5,664.7 546.1,666C543.3,667.5 541.5,667.2 539.7,665.2zM442.6,642.4C440.7,640.6 440.5,636.9 442.2,635.2C444.3,633.1 448.8,633.8 450.6,636.5C452.1,638.8 452.1,639.2 450.6,641.5C448.7,644.4 445,644.8 442.6,642.4zM573.6,641.8C572.7,640.6 572,639 572,638.4C572,636.5 575.5,634 578.1,634C581.3,634 583,635.7 583,639C583,640.4 582.5,642.1 581.8,642.8C579.8,644.8 575.3,644.2 573.6,641.8zM352.1,595.6C350.2,594.2 347.5,592.8 345.9,592.5L343,591.8L343,553.6L343,515.3L355.5,515.4L368,515.5L368,549C368,567.4 368.3,584.1 368.6,586.1C369.2,589.6 369.1,589.8 362.6,593.8C359,596.1 355.9,598 355.7,598C355.5,598 353.9,596.9 352.1,595.6zM661.6,593.6L654.7,589.5L655.3,570.1C655.7,559.4 656,542.8 656,533.1L656,515.5L663.8,515.8C668,516 673.3,515.7 675.6,515.2L679.7,514.3L680.3,531.8C680.7,541.5 680.7,558.9 680.3,570.5L679.7,591.6L674.1,594.6L668.4,597.7L661.6,593.6zM473,573.5C459,565.1 447.4,557.8 447.3,557.3C447,556.5 469.8,542 471.3,542C471.9,542 502.9,560.8 504.8,562.2C505.6,562.9 506,566.6 506,573.9L506,584.5L502.5,586.8C500.6,588 498.9,589 498.8,589C498.6,588.9 487,582 473,573.5zM521.2,586.9L518,584.8L518,574L518,563.2L524.2,559.2C527.7,557 534.5,552.8 539.5,549.8C544.5,546.8 549.4,543.8 550.6,543C552.5,541.9 553.9,542.4 564.8,548.9C571.4,552.8 577.2,556.4 577.5,557C577.8,557.5 576.6,558.7 574.8,559.6C573,560.5 561.3,567.5 548.8,575.2C536.3,582.8 525.7,589 525.3,589C524.9,589 523,588 521.2,586.9zM377,549.3L377,513.3L392.8,510.1C401.4,508.3 412.4,506 417.1,504.9C421.9,503.9 426,503 426.4,503C426.7,503 427,514.6 427,528.8L427,554.5L416.6,560.8C410.9,564.2 405.9,567 405.6,567C405.3,567 405,563.5 405,559.2L405,551.5L408.6,549.2C413,546.3 415.4,541 414.7,535.4C413.3,522.8 398.4,518 390.1,527.5C384.3,534.1 385.1,542.4 392.1,548.3L396,551.7L396,562.6L396,573.5L389.7,577.2C386.3,579.3 382,581.9 380.2,583.1L377,585.2L377,549.3zM637.5,578.9L628.5,573.3L628.2,562.2L627.9,551.2L631,549C639.2,543.2 639.1,530.1 630.7,525C626.7,522.5 619.8,522.4 615.8,524.8C612.2,526.8 609,532.7 609,537.1C609,541.7 611.9,547 615.7,549.2C619,551.2 619,551.2 619,559.1C619,563.4 618.7,567 618.4,567C618.1,567 612.9,564 606.9,560.3L596,553.7L596,529C596,515.4 596.2,504.1 596.5,503.9C597.1,503.3 645.3,513 646.3,513.9C646.7,514.3 646.9,530.4 646.8,549.6L646.5,584.6L637.5,578.9zM494.7,542.3L477,531.6L477,511.3L477,491.1L482.8,487.2C488.3,483.4 511.9,469 512.5,469C512.6,469 520.4,473.7 529.6,479.3L546.5,489.7L546.5,511L546.5,532.3L532.5,540.8C524.8,545.4 517.1,550 515.4,551.1L512.3,552.9L494.7,542.3zM439,511L439,475L446.2,479.4C450.2,481.8 456.1,485.2 459.2,487.1L465,490.5L465,511.2L465,531.9L452.4,539.4C445.5,543.6 439.7,547 439.4,547C439.2,547 439,530.8 439,511zM571.2,539.4L559,531.9L559,511.2L559.1,490.5L571.2,483C577.9,478.9 583.7,475.4 584.1,475.2C584.5,475 584.8,491.1 584.7,510.9C584.6,530.8 584.3,547 584,546.9C583.7,546.9 578,543.5 571.2,539.4zM396.4,539.5C394.9,537.2 394.9,536.8 396.4,534.5C399.4,529.9 406,531.9 406,537.4C406,542 399.1,543.5 396.4,539.5zM619.2,540.8C618.5,540.1 618,538.4 618,537C618,535.6 618.5,533.9 619.2,533.2C619.9,532.5 621.6,532 623,532C624.4,532 626.1,532.5 626.8,533.2C627.5,533.9 628,535.6 628,537C628,538.4 627.5,540.1 626.8,540.8C626.1,541.5 624.4,542 623,542C621.6,542 619.9,541.5 619.2,540.8zM347.1,503C335.2,500.5 323.6,492.2 317.6,482C314,475.9 309.6,465 310.4,464.2C310.7,464 312.6,464.4 314.7,465.3C318.9,466.9 346.4,473.5 378.5,480.4C390.1,482.9 401.5,485.4 404,485.9C407.4,486.7 404.6,486.8 392.5,486.5C362.1,485.5 356.9,485.6 355.3,487.3C353.2,489.4 354.5,492.7 357.8,493.4C359.3,493.7 371,494.2 383.8,494.6C396.6,495 406.9,495.4 406.7,495.6C406.5,495.8 398.3,497.6 388.4,499.6C369.6,503.3 354.6,504.6 347.1,503zM654.5,503.3C653.4,503.1 644,501.3 633.5,499.2L614.5,495.6L641,494.2C656.1,493.5 668,492.4 668.7,491.8C670.4,490.4 670.3,487.5 668.5,486C667.1,484.8 661.9,484.9 625.5,486.5C613.8,487 614.3,486.8 641.5,481C680.7,472.7 701.2,467.9 708.3,465.4C710.5,464.6 712.6,464 713.1,464C713.5,464 713.2,466.4 712.4,469.2C707.3,486.3 695.5,498.1 678.9,502.5C673.9,503.9 659.2,504.3 654.5,503.3zM457.8,472.6C451.3,468.7 446,465.2 446,464.8C446,464.4 457.8,457 472.2,448.4L498.5,432.8L502,434.8L505.5,436.8L505.5,448.1L505.5,459.5L488.6,469.7C479.3,475.4 471.2,479.9 470.6,479.9C470,479.8 464.2,476.6 457.8,472.6zM535.2,469.2L518,458.7L518,448.1L518,437.5L521.6,435.2C523.6,433.9 525.8,433.1 526.6,433.4C527.8,433.8 578,463.8 578.8,464.5C579.1,464.8 553.6,480 552.9,479.9C552.7,479.8 544.7,475 535.2,469.2zM399,473.8C394.3,472.7 375.6,468.4 357.5,464.3C339.4,460.2 321.6,455.7 318,454.3C291.2,444.3 273,416.2 273,384.6L273,377.8L275.3,379.3C276.6,380.2 281.3,382.8 285.6,385.3C289.9,387.7 298.7,392.8 305,396.5C311.3,400.2 317.9,404 319.5,405C321.1,405.9 337.1,415.3 355,425.7C397.3,450.5 397.1,450.4 413.8,460C425.8,467 428,468.6 428,470.6C428,471.9 427.6,473 427.1,473C425.8,473 372.8,452.2 359,446.2C342.2,439 337.3,437.5 335.4,439.1C332.9,441.2 334.2,444.3 338.5,446.5C344.5,449.4 362.8,457 387,466.7C398.8,471.4 408.7,475.4 408.9,475.6C409.6,476.2 408.2,475.9 399,473.8zM638,466.5C649.3,461.7 665,455.2 673,451.8C681,448.5 688.1,445.3 688.8,444.8C690.5,443.3 690,440 687.8,438.6C686,437.5 683.7,438.4 647.7,453.4C629.1,461.1 598.4,473 597,473C596.4,473 596,472 596,470.7C596,468.7 601.2,465.3 633.1,446.5C669.6,425 670.3,424.7 673.4,425.9C684.6,430.4 689.7,430.7 697.1,426.9C704.9,423 711.3,411.4 709.6,404.6C709.1,402.4 710.3,401.5 724.3,393.2C748.5,379 751,377.7 751.1,379.2C751.4,385 750.7,395.6 749.5,401.1C744.8,424 731.4,442.3 712.5,451.6C702.4,456.5 683.4,461.2 620.2,474.5C618.7,474.9 626.7,471.2 638,466.5zM424,452.5C418.8,449.5 414.5,446.6 414.5,446C414.5,445.5 428.4,436.7 445.5,426.4C462.6,416.2 477.4,407 478.4,406C480,404.4 480.4,402.1 480.9,391.4C481.3,382.8 481.9,378.5 482.7,378.3C485.3,377.4 488.8,373.9 490.4,370.6C494.7,361.4 489.4,351.7 479.2,350.3C469.8,349 462.5,357.9 464.4,368.2C465,371.5 468.4,376 471.6,377.8C473,378.6 473.1,380.1 472.5,389.7L471.8,400.7L454.6,411.1C445.2,416.8 430.2,425.8 421.2,431.2L404.9,440.8L394.4,434.8C388.7,431.5 384,428.5 384,428.1C384,427.7 395.1,420.6 408.8,412.3C431.9,398.3 433.6,397.4 435.7,398.7C439.6,401 446.1,401.3 449.9,399.3C455.2,396.5 457.5,392.7 457.5,386.6C457.5,380 455.2,376.4 449.4,373.9C443.8,371.4 439,372.2 434.4,376.2C431.1,379.2 428.3,385.8 429.4,388.5C429.7,389.4 420.7,395.3 402.7,406.1C387.7,415 375.1,422.3 374.5,422.3C373.1,422.3 350,409 350,408.2C350,407.8 351.2,406.8 352.8,405.9C354.3,405 368.3,396.5 384,387C399.7,377.5 421.5,364.4 432.5,358C443.5,351.5 462,340.6 473.6,333.8L494.7,321.4L497.6,323.7C499.2,324.9 501.7,326.5 503.2,327.1L506,328.2L506,364.5L506,400.7L502.1,403.3C497.6,406.3 494,412.9 494,418.2C494,421.7 493.8,421.8 478.2,431.2C469.6,436.5 456.9,444 450,448C443.1,452 436.6,455.9 435.5,456.6C433.7,457.8 432.4,457.3 424,452.5zM561.3,440.1C545.8,430.9 532.4,422.8 531.7,422.1C530.9,421.5 530,418.9 529.6,416.4C528.8,410.4 525.9,405.8 521.5,403.4L518,401.5L518,377.7L518,353.8L520.2,355.2C521.5,356 526.9,359.4 532.4,362.6C538.5,366.2 542.6,369.4 543.1,370.8C543.6,372.1 544,380.3 544,389C544,402.6 544.2,405.1 545.8,406.9C546.7,408 561.2,417.1 578,427.1C594.8,437 608.8,445.5 609.2,445.9C610,446.6 592.8,457 590.8,457C590.1,457 576.8,449.4 561.3,440.1zM613,437.9C599.2,430 562.9,408.3 557.9,404.9L552.3,401.1L551.7,383.7C551.4,374.1 550.7,365.4 550.2,364.4C549.6,363.3 542.2,358.3 533.6,353.1L518,343.7L518,336C518,328.7 518.1,328.2 520.3,327.6C521.6,327.3 524.4,325.7 526.5,324C530.2,321.1 530.3,321 532.9,322.9C534.3,323.9 545,330.2 556.5,337C574.6,347.6 629,379.8 654.8,395.2L663,400.2L663.2,406.1C663.3,409.3 663.4,412.7 663.4,413.6C663.5,414.6 660.8,416.7 656.3,419.1L649.2,423.1L622,406.8L594.7,390.5L593.5,385.6C591.7,378.7 587.6,374.9 581.2,374.2C572.5,373.4 565.9,379.3 565.8,387.9C565.7,399 576.7,405.3 587,400L591,398L611.2,410.1C622.4,416.8 633.7,423.6 636.3,425.3L641.1,428.2L630.8,434.2C625.1,437.5 620,440.4 619.5,440.6C619,440.8 616,439.6 613,437.9zM576.6,391.4C574.2,389 574.6,385.3 577.5,383.4C579.8,381.9 580.2,381.9 582.5,383.4C587.1,386.4 585.1,393 579.6,393C578.8,393 577.4,392.3 576.6,391.4zM440,390C437.5,387.5 437.4,384.8 439.8,382.7C442.2,380.5 445.3,380.6 447.3,382.8C449.6,385.4 449.4,388.6 446.8,390.4C443.8,392.5 442.4,392.4 440,390zM474,368C472.9,366.9 472,365.3 472,364.5C472,362.4 475.6,359 477.9,359C482.7,359 484.7,365.7 480.8,368.4C477.8,370.5 476.4,370.4 474,368z"/>
</svg>
