<svg xmlns="http://www.w3.org/2000/svg" viewBox="0 0 479 479" role="img" aria-label="Zümm — emblème">
  <!-- Master vectoriel Zümm (trace potrace 2 couches depuis zumm-icon.png).
       Couleurs normalisees sur la charte : ardoise #2C4A42, degrade signature 120deg #D9A521 -> #2E9E3F. -->
  <defs><linearGradient id="zg" x1="0" y1="0" x2="0.866" y2="0.5"><stop offset="0" stop-color="#D9A521"/><stop offset="0.45" stop-color="#D9A521"/><stop offset="0.75" stop-color="#2E9E3F"/><stop offset="1" stop-color="#2E9E3F"/></linearGradient></defs>
  <path fill="#2C4A42" fill-rule="evenodd" d="M234,462.4C226.2,459 221.9,452.7 221.1,443.1L220.5,436.7L201,425.2C190.3,418.9 164.2,403.6 143,391.2C121.8,378.8 102.8,367.6 100.8,366.4C96.7,363.8 94.5,363.4 93.4,365.1C92.1,367.3 84.4,370 79.2,370C70.8,370 62.7,364.6 59.8,357.1C58.1,352.5 58.6,343.7 60.9,339.1C63,335.1 70,329 72.5,329C73.2,329 74.1,328.3 74.4,327.4C74.7,326.5 75,309.5 75,289.4L75,253L70.8,250.4C61.7,244.7 53.3,235.6 48.7,226.5C45.7,220.5 43,211.7 43,207.8C43,205.6 40.9,203 33.2,195.3C25,187.1 22.8,184.1 19.2,176.7C13,164 9.8,151 9.8,138C9.8,125.8 11.4,119.7 14.7,119.2C16.1,119 27.8,125.3 47.1,136.6L77.4,154.3L80.9,152.4C85.6,149.7 197.6,84.4 210.8,76.6L221,70.6L221,65.2C221,52.7 229.3,44.1 241.3,44C253.3,44 262.3,52.8 262.3,64.7C262.3,68.3 262.8,70.4 263.9,71.3C264.8,72.1 278.6,80.3 294.5,89.5C310.4,98.7 330.9,110.6 340,116C349.1,121.3 359.2,127.2 362.5,129C365.8,130.9 372.9,135 378.3,138.2L388,144.1L391.3,141.6C399.4,135.4 410.9,136.2 418.8,143.3C420.8,145.2 421.3,145.3 423.3,144C436.4,135.8 466.5,119 468.1,119C469.5,119 470.6,120.2 471.8,122.8C474.3,128.5 474,148.1 471.2,158.5C466.9,174.6 456.7,191.2 446,199.6C441.8,202.9 441.4,203.7 439.8,211.1C436.4,226.8 427.9,239.8 415.2,248.3L408,253.2L408,290C408,322.2 408.2,327.1 409.6,328.4C410.4,329.3 411.8,330 412.6,330C413.4,330 416,331.9 418.3,334.2C426.5,342.5 427.1,354.2 419.7,362.7C412,371.5 400.8,372.4 389.4,365.1C387.1,363.6 378.4,368.5 293.5,418.7L262.5,437.1L262.4,442.8C262.4,448.8 259.9,455 256.3,458.2C250.6,463.4 240.6,465.3 234,462.4zM335.5,383.9C353.6,373.3 371.8,362.8 375.7,360.6L383,356.5L383,349L383,341.5L377.1,338.2C373.9,336.5 370.8,335 370.3,335C369.7,335 357.2,342.1 342.4,350.9L315.5,366.8L315,371.1C314.2,376.8 312.6,379.6 309,381.5C301.8,385.2 293.1,381.8 291.1,374.4C288.2,363.9 299.1,355.4 308.9,360.5C311.7,361.9 312.2,361.7 337.1,347C351.1,338.8 362.5,331.5 362.5,330.8C362.5,329.3 347.2,320 344.7,320C343.7,320 331.5,326.7 317.7,334.8C303.8,343 288.9,351.8 284.4,354.4L276.3,359L275.1,369.2C274.2,377.4 274.2,379.6 275.2,379.9C278,380.8 281.9,385.9 282.5,389.3C283.8,396.2 277.2,404 270,404C266.1,404 261,400.3 259.3,396.3C256.6,389.6 259,383.9 266.4,379.5C267.6,378.7 268.4,375.7 269.4,367.2C270.2,361 270.9,355.7 271.1,355.5C271.7,355 322.9,324.7 330.2,320.6C333.9,318.5 337.2,316.5 337.5,316C338.2,314.9 316.6,302 314.2,302C312.5,302 260.9,331.7 258.6,334C258,334.6 257.5,335.8 257.4,336.8C257.4,337.7 257.3,339.7 257.2,341.2C257,344.3 251,351.5 247.9,352.5C246.1,353.1 246,354.5 246,387.5L246,421.8L250.4,423.9C252.8,425.1 255.5,426.9 256.4,427.9C258.1,429.7 258.9,429.4 280.3,416.5C292.5,409.2 317.4,394.6 335.5,383.9zM228.6,426.9C229.8,425.8 232.3,424.1 234.1,423.2L237.5,421.5L237.8,387.8L238,354.1L235.3,352.6C229.6,349.7 226.7,345.5 226.2,339.6L225.8,334.2L197.4,317.5L169.1,300.9L158.1,307.5C152,311.2 147,314.5 147,315C147,315.4 157.9,322.2 171.2,330.1C184.6,337.9 199.4,346.7 204.1,349.7L212.8,355L213.4,361.7C215.1,379.2 215,379 218.2,380.6C221.8,382.5 225,387.6 225,391.5C225,397.9 218.5,404 211.7,404C210.4,404 207.8,403 205.9,401.7C198.8,396.9 198.7,385.8 205.8,381.5L209.1,379.5L208.5,373C208.2,369.4 207.7,364.6 207.4,362.3L206.8,358.1L174,338.6C155.9,327.8 140.6,319 139.9,319C138,319 119.9,330.2 120.2,331.2C120.4,331.7 131.8,338.8 145.5,347.1C170.4,362.1 170.5,362.1 173.3,360.6C178.8,357.5 187,359.3 190.4,364.2C191.3,365.5 192,368.5 192,371.3C192,375.5 191.5,376.7 188.6,379.6C185.8,382.4 184.4,383 181.1,383C173.1,383 168,378.1 168,370.6C168,367.3 167.7,367 155.8,359.9C149,355.9 136.9,348.7 128.7,343.8C120.6,339 113.5,335 112.9,335C112.3,335 109.2,336.5 106.1,338.4L100.5,341.9L100.6,349.2L100.7,356.5L136.6,377.6C156.3,389.1 184,405.4 198,413.7C212,422 224.1,428.9 224.9,428.9C225.7,429 227.4,428.1 228.6,426.9zM216.5,395.5C217.9,394.2 219,392.4 219,391.5C219,389.4 214.6,385 212.5,385C210.5,385 206,389.4 206,391.3C206,393.6 210,398 212.1,398C213.2,398 215.2,396.9 216.5,395.5zM274.9,395.4C276.1,393.9 277,392.1 277,391.3C277,389.2 272.4,385 270,385C267.5,385 264,388.4 264,390.9C264,393.8 267.9,398 270.5,398C271.9,398 273.7,396.9 274.9,395.4zM184,375C189.5,369.5 181.6,361.4 175.8,366.7C173.6,368.7 173.5,371.8 175.6,374.8C177.5,377.6 181.3,377.7 184,375zM308,373.8C309.3,371.3 309.3,370.7 308,368.2C305,362.9 297,364.7 297,370.7C297,377.1 304.9,379.2 308,373.8zM102,330.7L107.5,327.4L107.8,292.4L108,257.5L99.3,257.5C94.4,257.5 89,257.2 87.2,256.8L84,256.1L84,292L84,328L88.5,330.1C91,331.3 93.3,332.6 93.6,333.1C94.5,334.6 96.3,334.1 102,330.7zM390.6,332.9C390.9,332.3 393.2,330.9 395.6,329.8L400,327.9L400,291.9L400,256L395.8,256.7C393.4,257.2 387.8,257.5 383.2,257.4L375,257.4L375,292.1L375,326.8L380.8,330.4C386.7,334.1 389.4,334.8 390.6,332.9zM237.2,319.7C238.1,316.6 238.1,302.7 237.2,301.4C236.4,300 204.5,281 203.2,281C201.4,281 178,295.2 178.5,296C178.8,296.5 185.7,300.8 193.8,305.6C201.9,310.4 213.2,317.1 218.9,320.5L229.3,326.7L232.9,324.3C234.9,323 236.8,320.9 237.2,319.7zM279.1,311.7C292.4,303.8 303.6,296.8 303.8,296.2C304.1,295.3 281.4,281 279.6,281C279.3,281 271.6,285.3 262.5,290.7L246,300.3L246,311.1L246,321.8L249.2,323.8C251,324.9 253,325.9 253.6,325.9C254.2,326 265.7,319.5 279.1,311.7zM124.4,317.3C128.9,314.8 133.1,312 133.8,311.2C135.7,308.7 135.4,291.4 133.4,289.8C128.7,286 127.1,283.9 126.2,280.8C124.9,276 125.7,272.5 129,269.1C136.9,260.5 150.9,267.2 149.6,279C149.3,282.8 148.5,284.1 145.1,287L141,290.6L141,298.3C141,302.9 141.4,306 142,306C142.6,306 147.8,303.2 153.5,299.8L164,293.7L164,269.9C164,256.8 163.7,245.9 163.2,245.7C162.8,245.4 155.1,246.9 146,249C136.9,251.1 126,253.5 121.8,254.4L114,256.1L114,289.1C114,313.4 114.3,322 115.2,322C115.8,322 120,319.9 124.4,317.3zM369,289C369,270.9 368.8,256 368.6,256C368.4,256 357.3,253.5 344,250.5C330.7,247.5 319.6,245 319.4,245C318.7,245 319,292.5 319.8,293.6C320.2,294.2 325.2,297.5 331,300.9L341.5,307.1L341.8,298.8C342.1,290.7 342.1,290.6 339,288.2C333,283.5 331.5,277 335,271.2C339.2,264.3 348.2,263.5 353.9,269.4C359.6,275.3 358.7,284 351.9,287.8C350.3,288.8 349,290.2 348.9,291C348.7,295 348.9,311.3 349.2,311.5C350.6,312.9 366.8,322 367.8,322C368.7,322 369,314.7 369,289zM260.5,281.8L274.5,273.4L274.8,253.8L275,234.3L258.5,224.6C249.5,219.3 241.8,215 241.4,215C241.1,215 233.5,219.3 224.4,224.6L208,234.2L208,253.5C208,267.7 208.3,273 209.2,273.8C209.9,274.3 217.4,278.9 225.9,283.8C240.6,292.4 241.5,292.8 243.9,291.5C245.3,290.7 252.8,286.3 260.5,281.8zM198.5,254L198.5,234.6L186.1,227.2C176.4,221.3 173.6,220 172.9,221.1C171.9,222.6 171.7,283.2 172.6,286.7C173.1,288.7 174,288.3 185.8,281.1L198.5,273.3L198.5,254zM311,254C311,233.4 310.6,220 310.1,220C309.1,220 287.5,232.4 285.2,234.2C284.3,235 284,239.9 284.2,254.4L284.5,273.5L296.5,280.7C303.1,284.7 309.1,287.9 309.8,288C310.7,288 311,280.6 311,254zM141.7,281.8C143,280.6 144,278.7 144,277.5C144,272.9 137.1,270 133.5,273C131.2,274.9 131.6,280.6 134.2,282.4C137.2,284.5 138.9,284.4 141.7,281.8zM350.4,280.7C352.3,278.1 352.3,277.7 350.9,275.2C348.1,270.1 339,271.7 339,277.3C339,280.4 343,284.1 345.9,283.8C347.2,283.6 349.2,282.2 350.4,280.7zM130,243.9C153.4,238.7 153,238.5 119,237.3L96.5,236.5L96.2,233.6L95.8,230.7L120.2,231.3C133.6,231.7 144.1,231.7 143.5,231.5C142.9,231.2 124.4,227 102.3,222.1C80.1,217.1 59.9,212.2 57.4,211C54.8,209.9 52.5,209.2 52.2,209.5C51.3,210.3 54,218.2 57.3,224.5C63.2,235.6 73.7,244 86,247.6C94.1,250 108.4,248.8 130,243.9zM404.5,244.7C417.3,238.6 428.4,225 430.6,212.8L431.2,209.1L424.3,211.5C420.4,212.9 399.8,217.8 378.4,222.6C357,227.3 339.3,231.4 339,231.7C338.7,231.9 349.3,232 362.5,231.8C385.3,231.5 386.5,231.6 386.8,233.4C387,234.4 386.6,235.6 386,236C385.3,236.5 376.8,237.1 367.1,237.4C357.4,237.8 345.9,238.3 341.5,238.7L333.5,239.4L341.5,241.3C367.9,247.6 376.4,249 386.6,248.7C395.9,248.4 397.4,248 404.5,244.7zM292.4,219.9C299,215.9 304.7,212.5 304.9,212.3C305.2,212.1 304.7,211.3 303.9,210.5C302.5,209.1 254.5,181 253.5,181C253.2,181 251.4,182 249.5,183.2L246,185.5L246,196L246,206.6L262.8,216.7C272,222.3 279.7,226.9 279.9,227C280.1,227 285.7,223.8 292.4,219.9zM217.4,218.2C224.6,213.8 232,209.5 233.8,208.6L237.1,206.9L236.8,195.9L236.5,184.9L232.9,182.8L229.3,180.8L204,195.6C190,203.8 178.5,210.9 178.4,211.5C178,212.7 199.8,225.8 202.4,225.9C203.4,226 210.1,222.5 217.4,218.2zM147.9,222.6C147.6,222.3 133.2,216.3 82.2,195.3C77,193.2 76,192.4 76,190.4C76,186.6 79.1,187.3 97.1,194.9C106.1,198.6 120.9,204.7 130,208.4C139.1,212.1 150.2,216.7 154.7,218.6C159.2,220.5 163.1,222 163.4,222C163.7,222 164,220.2 164,218.1L164,214.2L143.2,202.2C131.8,195.6 116.9,186.9 110,183C98.3,176.2 79.8,165.4 38.2,141.1C28.7,135.5 20.2,131 19.3,131C17.9,131 17.8,132.2 18.3,140.8C19.4,157.5 24.9,172.9 33.8,183.8C46.4,199.2 56.2,203.7 97,212.5C108.8,215.1 123.9,218.4 130.5,220C141.3,222.5 149,223.7 147.9,222.6zM377.7,214.1C421.9,204.3 429.3,201.8 439.6,193.6C455.1,181.2 465,159.9 465,139.2C465,131.4 464.9,130.8 463.1,131.3C462,131.5 453,136.4 443.1,142.1L425.1,152.5L425,157C425,161.9 421.5,170.5 418.4,173.2C417.3,174.2 414.2,175.9 411.6,177.1C405.8,179.6 400.7,179.3 393.6,175.8C389.7,173.9 388.6,173.8 387,174.8C385.9,175.5 370.9,184.2 353.7,194.2C336.6,204.2 321.7,213 320.8,213.8C319,215.3 318.2,222 319.8,222C320.2,222 324.4,220.4 329,218.4C363.9,203.6 402.8,188 404.8,188C406.6,188 407.1,188.5 406.8,190.2C406.4,193 407,192.7 371.5,207.4C334.6,222.7 334.1,222.9 336.2,223C337.1,223 355.8,219 377.7,214.1zM197.5,189.7L225.5,173.1L226,168.1C226.6,162.5 229.1,158.5 233.8,155.5L236.9,153.5L237,119.8L237,86.1L233.8,84.4C232,83.4 229.3,81.8 227.9,80.8C224.7,78.4 229.6,75.9 180.9,104.2C159.8,116.5 130,133.8 114.8,142.5C99.6,151.3 87.2,158.9 87.3,159.4C87.5,159.8 93,163.4 99.5,167.2C109.2,172.8 111.8,173.9 113.5,173.2C114.6,172.6 126.5,165.7 140,157.7L164.5,143.1L165,138.6C166.3,127.9 178.4,123.6 186,131.1C189.7,134.9 190.6,139.5 188.6,144.3C185.7,151.3 178.7,153.4 170.4,150C167.4,148.7 166.8,149 143.5,162.6C130.4,170.3 119.5,177 119.3,177.6C119,178.5 136.5,189 139.7,189.8C140.3,190 147.9,185.9 156.7,180.7C165.4,175.5 179,167.4 187,162.7C195,158 202.3,153.6 203.2,152.8C204.6,151.8 205,149.6 205.2,142L205.5,132.5L201.2,128.4C197.5,124.7 197,123.7 197,119.6C197,112.1 201.8,107 209,107C216.2,107 221,112.3 221,120.1C221,123.8 220.5,124.9 216.7,128.4L212.3,132.5L211.6,143.5C211,153.7 210.8,154.6 208.5,156.5C206.2,158.3 180.1,173.9 156.5,187.5C151.6,190.4 147.5,193.1 147.3,193.6C146.9,194.7 167.1,207.1 168.5,206.6C169.1,206.4 182.1,198.7 197.5,189.7zM324.8,201C329.9,198 334,195.3 334,194.9C334,194.3 332,193.1 294.5,171.2L272.5,158.4L272.2,141.3C272,127.3 271.7,124 270.4,122.9C267.3,120.3 247.5,109.2 246.8,109.7C246.3,109.9 246,119.9 246.1,131.8L246.1,153.5L250.3,156.5C255.2,160.1 257.3,163.8 257.3,169.2C257.3,172.9 257.6,173.3 262.4,176C265.2,177.6 278.1,185.2 291,192.9C303.9,200.5 314.8,206.7 315.1,206.7C315.4,206.6 319.8,204 324.8,201zM352.6,184.8C362.6,178.9 363.1,178.5 361.3,177C360.2,176.2 349.3,169.7 337.1,162.6L314.8,149.7L312,151.3C306.2,154.8 297.4,152.6 294.5,147C289.4,137.1 297.8,126.2 308.3,129.1C313.7,130.6 318,136.5 318,142.4C318,144.3 322.1,147 343.3,159.3C357.3,167.4 369.2,174 369.9,174C370.6,174 374,172.3 377.4,170.3L383.7,166.6L383.4,159.1C383.2,155 382.7,151.3 382.3,150.9C381.5,150.1 351.5,132.6 312.5,110C299.9,102.7 282.7,92.8 274.3,87.9C266,83 258.5,79 257.7,79C256.9,79 255.7,79.7 254.9,80.6C254.2,81.4 251.9,83 249.8,84.1L245.9,86.1L246.2,93.7L246.5,101.4L260.2,109.4C267.8,113.9 274.9,118.3 276,119.2C277.9,120.9 278,122.1 278,137.8L278,154.6L302.2,168.8C315.6,176.6 329.4,184.8 333,186.9C336.6,189.1 340.1,190.9 340.8,191C341.5,191 346.8,188.2 352.6,184.8zM309.2,145.3C312.9,142 310.3,135 305.3,135C302.5,135 299,138.3 299,141C299,143.6 302.4,147 305.2,147C306.4,147 308.2,146.3 309.2,145.3zM180.8,144.4C185.3,141.3 182.7,134 177.1,134C171.7,134 169.7,140.7 174,144.2C176.7,146.4 177.9,146.4 180.8,144.4zM213.2,123.3C215.3,121.4 215.5,118.1 213.8,115.8C210.6,111.7 203,114.2 203,119.2C203,124.2 209.4,126.8 213.2,123.3z"/>
  <path fill="url(#zg)" fill-rule="evenodd" d="M304.2,406.8C304.7,405.4 322.1,393.2 328.3,389.9C330.4,388.8 331.8,387.5 331.5,387C331.1,386.4 331.6,386.3 332.6,386.7C333.8,387.1 334.1,387 333.6,386.2C333.2,385.4 333.4,385.2 334.3,385.6C335.1,385.9 336.1,385.6 336.6,384.9C337.1,384.1 336.9,383.9 335.9,384.5C335,385 334.8,385 335.5,384.3C336.7,383.1 379,358.3 381.4,357.4C382.7,356.9 383,355.3 383,349.1L383,341.5L377.1,338.2C373.9,336.5 370.8,335 370.2,335C369.6,335 364.9,337.5 359.8,340.7C354.7,343.8 349.9,346.3 349.2,346.3C348.6,346.3 348,346.7 348,347.2C348,347.7 347.6,347.9 347,347.5C346.5,347.2 345.2,347.8 344,349C342.9,350.1 342,350.8 342,350.5C342,349.8 335.4,353.1 324.7,359.3C319.9,362 315.6,364 315.3,363.6C314.9,363.3 315.7,362.2 317.1,361.2C321,358.5 336.3,348.9 339.3,347.4C340.9,346.5 341.8,345.4 341.4,344.8C341,344.1 341.1,344 341.8,344.4C342.5,344.8 343,344.7 343,344.3C343,343.8 344.4,342.6 346,341.7C347.6,340.7 349,340.2 349,340.5C349,340.9 349.7,340.5 350.5,339.6C351.3,338.8 354.5,336.7 357.5,335C360.6,333.2 362.9,331.3 362.7,330.7C362.2,329 346.8,320 344.5,320C343.4,320 341.4,320.7 340.2,321.6C339,322.4 338,322.9 338,322.6C338,322.3 337.1,322.8 336,323.7C335,324.6 333.1,325.5 331.9,325.7C330.7,325.9 325.5,328.3 320.3,331.1C315.2,333.9 311,335.7 311,335.2C311,334.7 314.7,331.9 319.2,328.9C323.8,326 328.3,322.7 329.2,321.6C330.2,320.4 331,319.9 331,320.3C331,320.7 331.6,320.6 332.2,320C332.9,319.5 334.6,318.2 335.9,317.1L338.3,315.3L327.6,308.9C321.6,305.4 316.6,302 316.3,301.4C315.7,299.9 319.4,296 321.4,296C322.2,296 327,298.5 332.1,301.5L341.5,307.1L341.8,298.9C342,292.1 341.8,290.4 340.3,289C336.7,285.6 334.2,282.2 334.7,281.6C335.1,281.3 334.8,281 334.2,281C333.5,281 333,279.5 333,277.4C333,275.5 333.4,274.1 333.9,274.4C335,275.1 336.2,272.2 335.3,270.8C335,270.2 335.2,270 335.7,270.3C337,271.1 339.3,268.6 338.2,267.6C337.8,267.2 337.9,266.9 338.5,267C339.1,267.1 341.1,267.2 343,267C345.9,266.9 346.2,266.7 344.5,266C342.6,265.2 342.6,265.1 344.8,265.1C346,265 347,265.4 347,266C347,266.5 347.7,266.7 348.6,266.3C349.5,266 351.4,267 353.6,269.1C356.2,271.6 357,273.2 357,275.8C357,280.1 353.3,287.8 350.8,288.6C349.8,288.9 349,289.9 348.9,290.8C348.7,294.6 348.9,311.2 349.2,311.5C350.6,312.9 366.8,322 367.7,322C368.7,322 369,314.5 369.2,289.8L369.5,257.5L372,257.5L374.5,257.5L374.8,292.2L375,326.9L380.9,330.4C387,334.2 389.4,334.8 390.6,332.9C390.9,332.3 393.2,330.9 395.6,329.8L400,327.9L400,293.5C400,274.6 400.3,258.4 400.6,257.6C401.4,255.4 404.5,253.9 406.4,254.6C407.8,255.1 408,259.4 408,291C408,322.3 408.2,327.1 409.6,328.4C410.4,329.3 411.8,330 412.6,330C413.4,330 416,331.9 418.3,334.2C426.5,342.5 427.1,354.2 419.7,362.7C412,371.5 400.8,372.4 389.4,365.1C387.5,363.8 385.4,364.8 364.6,377C352.2,384.2 341,390.5 339.8,390.8C338.6,391.1 334,393.3 329.6,395.8C319.6,401.3 306,408 304.8,408C304.3,408 304,407.4 304.2,406.8zM69.9,368C65.8,365.9 61.3,361 59.8,357.1C58.1,352.5 58.6,343.7 60.9,339.1C63,335.1 70,329 72.5,329C73.2,329 74.1,328.3 74.4,327.4C74.7,326.5 75,309.4 75,289.4L75,252.9L77.2,253.6C78.5,254 80.5,254.6 81.8,255.1L84,256L84,292L84,328L87.8,329.8C89.8,330.8 92.5,332.2 93.6,333C95.6,334.2 96.4,334 101.6,330.9L107.5,327.4L108,292.5L108.5,257.5L111.2,257.2L114,256.9L114,289.4C114,313.5 114.3,322 115.2,322C116.8,322 132.2,313 133.8,311.2C135.7,308.7 135.4,291.4 133.4,289.8C128.7,286 127.1,283.9 126.2,280.8C124.9,276 125.7,272.5 129,269.1C136.9,260.5 150.9,267.2 149.6,279C149.3,282.8 148.5,284.1 145.1,287L141,290.6L141,298.3C141,303.1 141.4,306 142.1,306C142.7,306 147.3,303.5 152.4,300.5C157.4,297.5 162,295 162.5,295C163.1,295.1 164.5,296.6 165.6,298.4L167.8,301.8L157.4,307.9C151.7,311.3 147,314.5 147,315C147,315.4 152,318.8 158.2,322.4C164.4,326 169,329 168.6,329C168.1,329 169.4,330.5 171.5,332.3L175.4,335.7L172.7,336.2C171.3,336.5 170.3,336.4 170.5,336C170.8,335.6 169.6,335 167.9,334.6C166.2,334.3 165.1,333.6 165.4,333.2C165.7,332.7 165.4,332.3 164.7,332.3C164,332.3 158.5,329.3 152.4,325.7C146.2,322 140.6,319 139.9,319C138.2,319 120,330 120,331.1C120,331.5 126.9,336 135.4,341C143.9,346 152.1,351.4 153.7,352.8C155.3,354.3 158.2,356.6 160.3,358C165.2,361.3 165,362.6 159.9,360C157.6,358.8 155.2,358.1 154.4,358.4C153.6,358.7 153.2,358.5 153.5,358C153.8,357.5 152.8,356.7 151.3,356.4C149.8,356 140.7,351 131.2,345.3C121.7,339.7 113.4,335 112.9,335C112.3,335 109.2,336.5 106.1,338.4L100.5,341.9L100.7,349.2C100.8,353.2 100.9,356.5 101,356.5C101.1,356.5 101.3,357.3 101.5,358.3C101.7,359.3 102.6,361 103.5,362C105,363.7 104.9,363.8 100.1,363.7C96.7,363.6 94.5,364.2 93.3,365.3C87.9,370.1 76.4,371.4 69.9,368zM233.7,295.4C230.1,293 229.6,291 232.6,291C234.3,291 239,295.4 239,297C239,298.6 237.8,298.2 233.7,295.4zM176,293.7C170.7,291 171.9,289.6 187.8,279.9L198.5,273.3L198.5,253.9L198.5,234.6L185.8,227C178.8,222.9 172.8,218.7 172.4,217.7C171.8,215.8 174.4,212 176.4,212C177.1,212 182.9,215.2 189.4,219C195.8,222.9 201.9,226 202.7,226C203.5,226 210.1,222.5 217.4,218.2C224.6,213.8 232,209.6 233.8,208.6L237,206.9L237,196L237,185.1L233.2,183C223.1,177.3 223.4,162.2 233.8,155.5L236.9,153.5L237,119.8L237,86.1L233.8,84.4C232,83.4 229.3,81.8 227.9,80.7C225.6,79.1 224.9,79 222.9,80C220.7,81.1 196.2,95.3 114.2,143C91.1,156.4 87.5,158.2 85.3,157.4C81.8,156.2 80,153.2 82,152C82.8,151.5 110,135.5 142.5,116.6C174.9,97.6 205.9,79.5 211.2,76.3L221,70.6L221,65C221.1,52.6 229.4,44 241.5,44C253.4,44 262.3,52.9 262.3,64.7C262.3,68.3 262.8,70.4 263.9,71.3C264.8,72.1 278.6,80.3 294.5,89.5C310.4,98.7 330.9,110.6 340,116C349.1,121.3 359.2,127.2 362.5,129C365.8,130.9 372.9,135 378.3,138.2L388,144.1L391.3,141.6C400.6,134.6 414.1,136.6 420.3,146C421.8,148.3 423,150.8 423,151.5C423,152.3 423.4,153.2 424,153.5C426.9,155.3 423,169.1 418.4,173.2C417.3,174.2 414.2,175.9 411.6,177.1C405.8,179.6 400.7,179.3 393.6,175.8C390,174.1 388.5,173.8 387.2,174.6C377.2,180.9 350.2,196.3 349.2,196.3C348.6,196.3 348,196.6 348,197C348,197.9 339.7,202.5 338.4,202.2C337.8,202.1 336,203.2 334.5,204.6C331.8,207.1 325,210.6 321.4,211.2C320.5,211.4 319.4,210.6 318.9,209.3C317.9,206.5 320.7,203.4 328.2,198.9C331.4,197.1 334,195.3 334,194.9C334,194.3 332,193.1 294.5,171.2L272.5,158.4L272.2,141.3C272,127.3 271.7,124 270.4,122.9C267.3,120.3 247.5,109.2 246.8,109.7C246.3,109.9 246,119.9 246.1,131.8L246.1,153.5L250.3,156.5C255.4,160.2 257.3,164 257.2,169.8C257.2,174.9 253.6,180.9 249,183.6L246,185.4L246,196L246,206.6L263,216.8L280,227.1L290.7,220.8C296.6,217.4 301.9,214.5 302.5,214.4C303,214.3 304.2,213.9 305,213.6C307.2,212.7 310.3,215.2 309.5,217.3C309.1,218.2 307.2,220 305.2,221.2C303.2,222.4 300.8,224.2 299.7,225.3C298.7,226.3 297.5,226.8 297,226.5C296.4,226.1 295.7,226.6 295.4,227.5C295,228.4 294.2,228.9 293.5,228.6C292.8,228.4 290.4,229.8 288.2,231.8L284.1,235.5L283.6,249C283.3,256.4 282.8,264.5 282.5,267C282,270.4 282.3,272 283.5,273.5C284.4,274.6 284.8,274.8 284.4,274.1C283.6,272.5 289.9,276.6 291.5,278.7C292.1,279.4 293.6,280.2 294.9,280.5C300,281.5 309.7,289.8 308.7,292.4C307.4,295.6 298.3,292.9 292.7,287.6C291.2,286.2 289.3,285 288.6,285C287.8,285 286.7,284.3 286,283.5C285.3,282.7 284.4,282.3 283.9,282.6C283.4,282.9 283,282.6 283,281.9C283,281.2 282.7,281 282.4,281.3C282,281.6 280.9,281.5 279.9,281C278.1,280 275.2,281.2 265.5,287C262.4,288.9 255,290.7 255,289.6C255,288.4 261.3,283.1 266.5,279.9C269.5,278.1 271.7,276.3 271.5,275.9C271.2,275.5 271.8,275.3 272.8,275.4C274.4,275.5 274.5,273.8 274.8,254.9L275.1,234.3L258.6,224.6C249.5,219.3 241.8,215 241.4,215C241.1,215 233.4,219.3 224.4,224.6L208,234.2L208.2,253.9L208.5,273.5L215.2,277.5C218.9,279.6 221.7,281.7 221.5,282C221.3,282.4 222.9,284 225,285.6C231.3,290.2 230.3,292.9 223.3,289.9C220.9,288.9 218.1,288 217.3,288C216.5,288 213.2,286.4 210,284.5C206.8,282.6 203.7,281 203.1,281C202.5,281 199.2,282.7 195.8,284.8C180.2,294.2 178.6,295 176,293.7zM141.7,281.8C143,280.6 144,278.7 144,277.5C144,272.9 137.1,270 133.5,273C131.2,274.9 131.6,280.6 134.2,282.4C137.2,284.5 138.9,284.4 141.7,281.8zM350.2,281.2C352.5,278.5 352.6,278.1 351.3,275.6C349.1,271.4 345.5,270.5 341.4,273.1C337.5,275.4 337.5,277.6 341.3,281.8C344.1,284.8 347.2,284.6 350.2,281.2zM122,237.8C109.1,237.3 97.9,236.7 97.2,236.5C96.6,236.3 96,234.9 96,233.5L96,231L106.2,231C130.5,231 161,233.9 161,236.1C161,237 151.7,239 148.2,238.8C146.7,238.8 134.9,238.3 122,237.8zM331.9,237.9C331.1,237.4 329.1,237 327.3,237C325.6,237 323.9,236.6 323.6,236.1C322.8,234.9 335.8,232.9 348,232.4C353.8,232.2 363.6,231.7 369.7,231.4C383.3,230.7 386.3,231.2 385.8,234.3C385.5,236.4 385.1,236.5 367.5,237.2C357.6,237.5 345.9,238.1 341.4,238.3C337,238.6 332.7,238.4 331.9,237.9zM155,224.8C153.1,224.3 137.3,218 120,210.9C102.7,203.7 85.7,196.8 82.2,195.3C77,193.2 76,192.4 76,190.4C76,186.6 79.1,187.3 97.1,194.9C106.1,198.6 120.9,204.7 130,208.4C161.4,221.2 162.5,221.7 162.8,223.9C163.2,226.3 161,226.5 155,224.8zM320.2,224.8C320.5,224.1 322,222.8 323.6,222C325.2,221.2 326.6,220.2 326.8,219.8C327,219.3 328,219 329,219C330,219 331.2,218.6 331.5,218C331.8,217.4 333.2,217 334.6,217C336,217 336.8,216.6 336.5,216C335.9,215.1 337.3,214.5 339.4,214.9C339.9,215 340.6,214.6 341,214C341.4,213.4 343,212.7 344.6,212.5C348.7,212 356.1,208.5 355.2,207.5C354.8,207 355.1,207 355.9,207.5C356.6,207.9 357.5,207.8 357.9,207.1C359,205.4 400.1,188.7 403.6,188.5C406.6,188.4 406.7,188.5 405.9,190.9C405.1,193.2 402,194.8 383.7,202.3C372.1,207.2 360,211.8 357,212.6C354,213.4 349,215.3 346,216.7C337,220.9 334.8,221.7 327.8,223.9C319.9,226.4 319.7,226.4 320.2,224.8zM143.4,190.9C142.2,188.9 141.9,189.2 190.9,160.4C197.7,156.4 203.7,152.7 204.1,152.3C204.5,151.9 205,147.2 205.2,142L205.5,132.5L201.2,128.4C197.5,124.7 197,123.7 197,119.6C197,112.1 201.8,107 209,107C216.2,107 221,112.3 221,120.1C221,123.8 220.5,124.9 216.7,128.4L212.3,132.5L211.6,143.5C211,153.7 210.8,154.6 208.5,156.5C206.2,158.2 179.9,174 157.2,187.2C149,191.9 144.8,193.1 143.4,190.9zM352.6,184.8C362.6,178.9 363.1,178.5 361.3,177C360.2,176.2 349.3,169.7 337.1,162.6L314.8,149.7L312,151.3C306.2,154.8 297.4,152.6 294.5,147C289.4,137.1 297.8,126.2 308.3,129.1C313.7,130.6 318,136.5 318,142.4C318,144.3 322.1,147 343.3,159.3C357.3,167.4 369.2,174 369.9,174C370.6,174 374,172.3 377.4,170.3L383.7,166.6L383.4,159.1C383.2,155 382.7,151.3 382.3,150.9C381.5,150.1 351.5,132.6 312.5,110C299.9,102.7 282.7,92.8 274.3,87.9C266,83 258.5,79 257.7,79C256.9,79 255.7,79.7 254.9,80.6C254.2,81.4 251.9,83 249.8,84.1L245.9,86.1L246.2,93.7L246.5,101.4L260.2,109.4C267.8,113.9 274.9,118.3 276,119.2C277.9,120.9 278,122.1 278,137.8L278,154.6L302.2,168.8C315.6,176.6 329.4,184.8 333,186.9C336.6,189.1 340.1,190.9 340.8,191C341.5,191 346.8,188.2 352.6,184.8zM116,174.2C116,172.4 122.5,168 143,155.9L164.5,143.2L165,138.6C166.3,127.9 178.4,123.6 186,131.1C189.7,134.9 190.6,139.5 188.6,144.3C185.7,151.3 178.7,153.4 170.4,150C167.3,148.7 166.8,148.9 146.8,160.7C135.6,167.3 124.9,173.2 123,173.8C119.1,175.2 116,175.3 116,174.2zM309.2,145.3C312.9,142 310.3,135 305.3,135C302.5,135 299,138.3 299,141C299,143.6 302.4,147 305.2,147C306.4,147 308.2,146.3 309.2,145.3zM180.8,144.4C185.3,141.3 182.7,134 177.1,134C171.7,134 169.7,140.7 174,144.2C176.7,146.4 177.9,146.4 180.8,144.4zM213.2,123.3C215.3,121.4 215.5,118.1 213.8,115.8C210.6,111.7 203,114.2 203,119.2C203,124.2 209.4,126.8 213.2,123.3z"/>
</svg>
