<svg xmlns="http://www.w3.org/2000/svg" viewBox="0 0 628 628" role="img" aria-label="Zümm — logo">
  <!-- Master vectoriel Zümm (trace potrace 2 couches depuis zumm-logo.png).
       Couleurs normalisees sur la charte : ardoise #2C4A42, degrade signature 120deg #D9A521 -> #2E9E3F. -->
  <defs><linearGradient id="zg" x1="0" y1="0" x2="0.866" y2="0.5"><stop offset="0" stop-color="#D9A521"/><stop offset="1" stop-color="#2E9E3F"/></linearGradient></defs>
  <path fill="#2C4A42" fill-rule="evenodd" d="M0,314L0,0L314,0L628,0L628,314L628,628L314,628L0,628L0,314zM415.5,612C415.9,611.4 415.6,610.3 415,609.5C413.9,608.2 399.7,608 311,608C222.3,608 208.1,608.2 207,609.5C206.4,610.3 206.1,611.4 206.5,612C206.9,612.7 239.9,613 311,613C382.1,613 415.1,612.7 415.5,612zM215.2,583.9C221.7,582.5 226.8,580 231.5,575.9L235,572.8L235,576.7C235,581.9 236.4,583 243,583C246.1,583 249.1,582.5 249.8,581.8C250.7,580.9 251,570.1 251,539.4C251,516.7 250.7,497.5 250.4,496.6C249.9,495.4 248.3,495 243.1,495C239.2,495 235.9,495.5 235.2,496.2C234.3,497.1 234,504.6 234,524C234,554.2 233.4,557.6 227.1,563.9C221,570 208.8,571.9 200.5,568.1C195.6,565.9 193.7,563.8 190.8,557.5C188.7,552.8 188.5,550.9 188,524L187.5,495.5L180,495.5L172.5,495.5L172.2,522.9C172,552.1 172.5,558.1 176.4,566.5C182.7,580.3 198.5,587.4 215.2,583.9zM157.1,580.9C158.5,578.2 157.7,570 155.9,568.9C155.1,568.4 140.2,568 122.8,568C104.9,568 91,567.6 91,567.1C91,566.4 124.5,519.7 151.3,483C155.6,477.1 156,476.1 156,470.8C156,466.2 155.6,464.9 154.1,464C151.7,462.8 74.2,462.6 72.2,463.9C71.3,464.4 71,466.6 71.2,471.1L71.5,477.5L102.9,477.8C127.2,478 134.1,478.3 133.7,479.3C133.5,479.9 124.6,492.4 113.9,507C103.3,521.6 88.9,541.5 81.8,551.3L69,569.1L69,574.9C69,578 69.5,581.1 70.2,581.8C71.1,582.7 82.1,583 113.7,583C155.9,583 155.9,583 157.1,580.9zM288.7,581.8C289.1,581.1 289.7,567.2 290,551L290.5,521.5L293.3,516.7C301.2,503.4 320.6,504.4 327.1,518.5C328.8,522.1 329,525.4 329,550.8C329,568.4 329.4,579.9 330,581.1C330.9,582.7 332.2,583 337.4,583C341.4,583 344.2,582.5 344.8,581.7C345.5,580.9 346,569.9 346.2,551L346.5,521.5L349.2,516.9C352.5,511.3 355.5,509.2 362.3,507.8C371.5,505.9 379,509.3 383.3,517.3C385.4,521.3 385.5,522.8 385.8,551C386,569.7 386.5,580.9 387.2,581.7C388.7,583.5 399.4,583.4 401,581.6C401.8,580.5 402.1,572.2 401.8,549.3C401.4,519.8 401.3,518.3 399.1,512.6C396.1,505.1 390.4,498.9 383.7,495.9C379.5,494 376.8,493.5 369.5,493.5C358.7,493.5 353.6,495.4 346,502.6L341,507.3L336.7,502.7C330.4,495.9 324.5,493.5 314,493.5C304.6,493.5 297.2,496 292.9,500.6C290.1,503.6 289,503.6 289,500.6C289,495.6 288.2,495 281.6,495C278.1,495 274.9,495.5 274.2,496.2C272.6,497.8 272.5,578.1 274,581.1C274.9,582.7 276.2,583 281.5,583C285.5,583 288.2,582.5 288.7,581.8zM438.7,581.8C439.1,581.1 439.7,567.2 440,550.9L440.5,521.3L443.5,516.5C447.5,510.1 452.5,507.5 460.5,507.6C471.6,507.7 477.2,513.1 478.9,525.5C479.5,529.4 480,543.6 480,557.1C480,578.7 480.2,581.9 481.6,582.4C484.4,583.5 493.6,583 494.8,581.8C495.7,580.9 496,573.1 496,553C496,521.9 496.5,518.8 502.6,512.7C508.8,506.5 519.9,505.5 527.2,510.4C529,511.6 531.6,514.6 533,517C535.5,521.5 535.5,521.7 535.8,551.2C536.1,574.5 536.4,581.1 537.5,582C538.3,582.6 541.5,583 545.2,582.8L551.5,582.5L551.8,552C552,523.9 551.9,521 550,514.9C547.6,506.9 541.4,499.4 534.3,495.9C530.3,494 527.9,493.6 520,493.6C508.6,493.5 503.7,495.4 496.1,502.5L491.2,507.1L487,502.7C481.8,497 475.5,494 467.1,493.3C458.6,492.6 450.8,494.7 444.6,499.5C442,501.4 439.8,503 439.5,503C439.2,503 439,501.9 439,500.6C439,495.6 438.2,495 431.6,495C428.1,495 424.9,495.5 424.2,496.2C422.6,497.8 422.5,578.1 424,581.1C424.9,582.7 426.2,583 431.5,583C435.5,583 438.2,582.5 438.7,581.8zM198.1,480C204,478.4 206.1,469.9 201.9,464.6C200.2,462.4 199.1,462 195,462C188.1,462 185.5,464.4 185.5,470.8C185.5,476.2 187.5,479.6 191.4,480.3C192.5,480.5 193.7,480.8 194,480.9C194.3,480.9 196.1,480.5 198.1,480zM231.6,480C236.8,480 239.1,468.9 234.8,464.3C233.2,462.6 231.6,462 228.3,462C222.4,462 220.3,463.3 218.9,467.8C217.3,473.3 219.6,478.5 224.2,479.9C226,480.4 228.1,480.6 228.8,480.4C229.6,480.2 230.8,480 231.6,480zM314.8,437.1C322.6,433.1 327.4,425.2 326.9,417.1L326.6,412.5L341,403.9C359.2,393.1 428,352.7 441.9,344.7C448.8,340.7 452.7,339 453.5,339.6C459.5,344.1 460.7,344.5 467.4,344.8C473.3,345 475.2,344.7 478.5,342.8C490.5,335.8 492.6,318 482.3,308.9C480.3,307.2 477.4,305.3 475.8,304.8L473,303.8L473,265.6L473,227.4L476.4,225.8C481.1,223.5 492.2,212.9 495.9,207.2C499.6,201.3 503.6,191.1 504.5,184.6C505.2,180.2 506.1,179 514.4,170.6C521.5,163.6 524.5,159.7 527.7,153.5C535.4,138.3 538.5,125 537.8,110.2C537.3,100 535.7,94.8 532.8,94.2C531.8,94 520.7,99.9 508.1,107.3C485.4,120.7 485.1,120.8 483.3,118.8C477.3,112.1 463.7,110.9 456.5,116.4C453.6,118.6 452.3,119.1 451.1,118.3C450.2,117.8 439.4,111.4 427,104.3C369.6,70.9 335.1,50.9 331.2,48.6C327.3,46.2 327,45.7 327,41.8C327,34.7 325.1,29.8 320.6,25.4C307.2,11.9 285.1,21.4 285,40.6C285,43.5 284.5,46.2 283.8,46.8C282.6,47.6 272.2,53.8 232,77C225.7,80.7 203.1,93.9 181.8,106.3C160.5,118.8 142.6,129 142,129C141.1,129 105.1,108.3 87.5,97.6C80.3,93.3 78.6,93.1 76.3,96.7C74.8,99 74.5,101.7 74.5,113C74.5,129 76.4,136.9 83.7,152C87.6,160.1 89.6,162.8 97.4,170.6C106.3,179.4 106.6,179.8 107.8,186C110.4,200.3 120.6,215.6 133.2,224.1L139,228.1L139,265.5L139,303L135.2,304.9C114.9,315.3 121.7,345.7 144.2,345.4C148.9,345.3 150.9,344.7 155.2,342.1C159,339.7 160.9,339.1 162,339.7C162.8,340.3 183.5,352.4 208,366.7C232.5,381 259.9,397.2 269,402.6L285.5,412.5L285.2,416.1C284.5,424.6 289.7,433.6 297.4,437.1C302.7,439.5 310.1,439.5 314.8,437.1zM275,396.3C236.2,373.4 215.3,361.1 191.2,347L165,331.6L165,324.4C165,316.6 164.9,316.7 172.5,312.5L177.6,309.7L192.5,318.7C200.8,323.7 213,330.9 219.8,334.9C231.2,341.6 232,342.3 232,345.1C232,349.7 234.9,354.9 238.3,356.7C251,363.2 262.7,348.5 253.2,337.9C249.7,333.9 243.2,332.9 238.4,335.5L235.1,337.2L209.6,322C195.5,313.6 184.3,306.4 184.6,305.9C185.7,304.1 204,293.8 205.2,294.3C208.5,295.5 269.6,332.3 270.6,333.6C271.3,334.4 272.1,339.3 272.5,344.5L273.2,353.9L269.1,357.8C265.6,361.1 265,362.3 265,365.9C265,373.7 269.8,379 277,379C284,379 289,373.7 289,366.2C289,361.8 286.4,357.8 282.1,355.5C279.4,354.2 279.3,353.7 278.2,342.4C277.6,335.2 276.7,330.3 275.8,329.5C275.1,328.8 262.4,321 247.5,312.3C212.9,291.8 211,290.6 211,290C211,289.6 214.3,287.5 218.2,285.2C222.2,282.9 227.3,279.9 229.6,278.6L233.6,276.1L261.6,292.6L289.5,309.1L290.2,314.2C290.9,320 293.1,323.5 298.3,326.9L302,329.3L302,363.2L302,397.1L298.6,398.5C296.8,399.3 293.9,401 292.4,402.4L289.5,404.8L275,396.3zM320.5,403C319.5,402 316.8,400.1 314.4,398.9L310,396.8L310,362.9L310,329.1L312.9,327.5C317.5,325.2 321.1,319.7 321.9,314L322.5,309L349.9,293C365,284.2 378.1,277 378.9,277C381,277.1 401.3,289.3 401.7,290.7C402,291.4 400.6,292.6 398.8,293.6C393.2,296.5 337.6,329.2 336.2,330.4C335.5,331.1 334.5,335.9 333.9,341.1C332.5,354.3 332.4,354.6 329.1,356C325,357.7 322.8,361.3 322.8,366.6C322.8,378.3 335.8,383.1 343.9,374.4C347,371 347.2,370.4 346.7,365.7C346.3,361.3 345.7,360.1 342.3,357L338.4,353.5L339.5,344.1C340.5,334.9 340.6,334.7 344,332.5C355.1,325.5 408,295 409.1,295C410.6,295 428,305.2 428,306.1C428,306.5 420.5,311.2 411.2,316.6C402,321.9 390.4,328.8 385.3,331.7C376.3,337 376.1,337.1 373.1,335.6C364.2,331 355,336.7 355,346.9C355,354.6 363.2,360.4 370.5,358C375.6,356.3 379,351.8 379,346.7L379,342.5L406.8,326.1L434.5,309.7L440.9,313.2L447.4,316.7L447.3,324.1L447.2,331.5L438.9,336.4C434.3,339.1 416.3,349.6 399,359.8C381.7,369.9 357.6,384.2 345.5,391.4C333.4,398.6 323.2,404.6 322.9,404.8C322.6,404.9 321.5,404.1 320.5,403zM272.6,371.1C269.9,368.2 270.8,362.8 274.1,361.6C280.5,359.4 285,364.3 281.9,369.9C280,373.3 275.1,373.9 272.6,371.1zM330.6,371.1C328,368.2 328.8,362.9 332.2,361.2C337.8,358.5 343,364.3 339.9,369.9C338,373.3 333.1,373.9 330.6,371.1zM239.6,349.8C237.5,346.8 237.6,344.4 240,342C244,338 250,340.4 250,346C250,347.6 249.3,349.6 248.4,350.4C246.1,352.8 241.4,352.4 239.6,349.8zM362.7,350.2C360.4,347.7 360.6,344.4 363,342C366.9,338.1 373,340.6 373,346.3C373,351.5 366.2,354.1 362.7,350.2zM158.1,308.6C157.4,307.8 154.9,306.2 152.4,305.1L148,303L148,266.9C148,232.9 148.1,230.8 149.8,231.5C150.7,231.9 156.2,232.5 162,232.7L172.5,233.2L172.2,267.9C171.9,292.6 171.5,302.7 170.7,303.2C161.6,309 159.2,310 158.1,308.6zM446.2,306.1L440,302.5L439.8,270.8C439.7,253.3 439.6,237.6 439.6,236L439.5,233L450,232.6C455.8,232.5 461.3,232 462.2,231.5C463.9,230.8 464,232.9 464,267.4C464,296.8 463.7,304 462.7,304C462,304 459.4,305.3 456.9,306.9L452.4,309.7L446.2,306.1zM291.5,300.6C290.4,299.9 279,293.1 266.2,285.5C253.5,278 243,271.4 243,271C243,270.5 247.8,267.4 253.8,263.9C259.7,260.5 265.2,257.2 266.1,256.7C267.4,255.9 271.6,258 284.9,265.9L302,276.1L302,286.5L302,296.8L298.2,299.1C296.2,300.4 294.3,301.6 294,301.7C293.7,301.9 292.6,301.4 291.5,300.6zM313.8,299.2L310,296.5L310.3,286.1L310.5,275.6L327.3,265.7L344,255.8L356.5,263.1C363.3,267.2 369,270.8 369,271.2C369,271.6 364.6,274.5 359.2,277.6C353.9,280.7 342.4,287.5 333.7,292.6C325.1,297.8 317.9,302 317.7,301.9C317.6,301.9 315.8,300.6 313.8,299.2zM422.8,292.3L413,286.6L413,275.8L413,265.1L416,263.5C423.7,259.5 423.9,247.5 416.5,242.6C412.9,240.2 406.4,240.3 403.1,242.7C401.7,243.8 399.7,246.2 398.7,248.2C396.2,253.2 397.4,257.5 402.7,262.6C407,266.8 407,266.9 407,273.9C407,277.7 406.6,281.1 406.1,281.4C405.6,281.7 400.5,279.2 394.8,275.7L384.5,269.5L384.2,244.7C384,221.3 384.1,219.9 385.7,220.4C387.8,221.1 404.7,225 421,228.5C427.3,229.9 432.7,231.4 433,231.8C433.3,232.2 433.3,247.2 433,265.3L432.5,298L422.8,292.3zM178.6,290.9C178.3,287.5 178,272.7 178,258.1L178,231.5L201.8,226.2C214.8,223.3 226.1,221 226.8,221C227.7,221 228,226.5 228,245.2L227.9,269.5L217.2,275.6C211.3,279 206.2,281.6 205.8,281.3C205.3,281.1 205,277.3 205,273C205,265.2 205.1,265 207.9,263.5C212.2,261.3 214,258.2 214,252.9C214,241.1 200.1,236.1 192.5,245.1C190.6,247.4 190,249.3 190,252.7C190,256.9 190.4,257.8 194.5,261.7L199,266L199,276.3L199,286.6L190.1,291.8C185.2,294.7 180.7,297 180.2,297C179.7,297 179,294.2 178.6,290.9zM289,258.2L272.5,248.5L272.5,229L272.5,209.5L289.2,199.7L306,189.8L322.7,199.7L339.5,209.6L339.8,227.1C339.9,236.7 339.8,245.4 339.6,246.6C339.2,248 333.8,251.8 322.6,258.3C313.5,263.6 305.9,268 305.8,268C305.6,268 298.1,263.6 289,258.2zM237,229.6C237,210.6 237.3,195 237.8,195C238.2,195.1 243.9,198.3 250.5,202.3L262.5,209.5L262.8,229L263,248.5L250.8,256C244.1,260.1 238.2,263.6 237.8,263.8C237.4,264 237,248.6 237,229.6zM361.8,256.4C349.2,249 349.1,248.9 348.5,244.7C347.9,240.4 348.4,210.3 349.1,209.6C350.5,208.2 374.2,194.9 374.6,195.3C374.8,195.5 374.9,211 374.8,229.8L374.5,263.9L361.8,256.4zM198,257C194,253 196.4,247 202,247C205.6,247 208,249.3 208,252.9C208,258.4 201.9,260.9 198,257zM405.5,257C403.2,254.5 403.2,250 405.6,248.3C409.7,245.3 416,247.9 416,252.6C416,258.2 409.2,261.1 405.5,257zM155.5,223.9C148,222.8 136.5,217.2 131.2,212C125.6,206.6 120.5,198.7 118,191.6C116.9,188.3 116,185.3 116,184.9C116,184.4 118.8,185.1 122.2,186.4C125.7,187.7 146.9,192.9 169.4,197.9C191.9,202.9 210.6,207.2 210.9,207.5C211.2,207.8 206.5,207.8 200.4,207.4C194.4,207 183,206.7 175,206.6L160.5,206.5L160.5,209L160.5,211.5L176.5,212.3C185.3,212.7 197.4,213.4 203.5,213.8L214.5,214.5L195.5,218.7C177.4,222.7 164.7,225.1 162.5,224.9C161.9,224.8 158.8,224.4 155.5,223.9zM439.5,223.5C429.9,221.9 398.9,215.2 398.3,214.6C397.9,214.2 409.7,213.5 435.2,212.4C450.8,211.8 453.8,210.8 450.9,207.4C449.7,206 447.2,205.9 429,206.4C417.7,206.8 406.7,207.3 404.5,207.5C395.5,208.6 406.1,205.9 444,197.5C465.7,192.7 485.8,187.9 488.5,186.9C495.9,184.1 496.1,184.2 494.4,190.2C492.3,197.5 488.6,203.5 482.3,210.1C471.2,221.8 456.6,226.4 439.5,223.5zM254.3,194.7C247.6,190.7 242.1,187.2 242,186.8C242,186.5 248.4,182.4 256.2,177.9C264.1,173.4 275.8,166.6 282.2,162.8L293.9,155.9L298,158.5L302,161L302,170.9C302,179 301.7,180.9 300.2,182.2C298.3,183.8 267.6,202 267,201.9C266.7,201.9 261,198.7 254.3,194.7zM328.3,192.6C319.9,187.5 312.4,182.7 311.5,182C310.3,181 310,178.5 310,170.9L310,161L314,158.5L318.1,155.9L342.3,170C367,184.5 370.7,186.7 369.9,187.3C367.5,189.1 345,202 344.4,202C343.9,202 336.6,197.7 328.3,192.6zM196.5,195.4C188.2,193.5 170.1,189.5 156.2,186.4C121.4,178.8 112.7,175 100.9,162.2C90.5,150.8 83.8,133.8 82.3,115.3C81.8,108.5 82,106.9 83.2,106.5C84.1,106.1 103.2,116.7 130.1,132.3C155.1,146.9 187.2,165.5 201.5,173.8L227.5,188.8L227.8,192.9C228,195.1 227.8,197 227.5,197C227.1,197 223.2,195.5 218.7,193.6C214.2,191.7 203.1,187.1 194,183.4C184.9,179.7 170.1,173.6 161,169.9C151.9,166.1 143.7,163 142.7,163C140.4,163 139.4,165.6 141,167.5C141.6,168.3 146.7,170.7 152.3,172.9C165.9,178.2 213.3,198 213.9,198.5C214.8,199.4 211.3,198.8 196.5,195.4zM398,198.7C398.6,198.1 464.1,170.7 467.7,169.6C468.8,169.2 470.3,168.3 470.9,167.6C472.4,165.8 471.2,163 469.1,163C467.7,163 424.3,180.6 394,193.4C389.4,195.4 385.2,197 384.8,197C384.4,197 384,195.3 384,193.2L384,189.4L408.8,175C422.4,167.1 437.9,158 443.3,154.8C448.8,151.6 453.5,149 453.8,149C454.2,149 456.7,150.1 459.4,151.5C462.1,152.9 466.1,154 468.2,154C479.3,154 488.9,144.2 489,132.9L489,128.2L508.1,117.1C518.6,111 527.6,106 528.1,106C530.7,106 530.3,118.6 527.4,131C525.2,140.2 518,154.6 512.3,160.9C505.7,168.5 497.3,174.4 488.2,177.8C484,179.5 462.9,184.7 441.5,189.5C420.1,194.2 401.4,198.4 400,198.7C398.6,199 397.7,199 398,198.7zM221.2,175.7C215.6,172.3 211,169.3 211,169C211,168.7 217.9,164.5 226.3,159.6C234.6,154.7 249,146.3 258.1,140.9C277,129.6 276,131 276,116L276,107.3L279.7,104.9C284.9,101.5 286.9,96.2 284.9,90.7C282.2,82.8 273.6,79.8 266.9,84.3C262.3,87.4 260.8,90.6 261.4,96C261.7,99.7 262.5,101.1 265.9,104.1L270,107.8L270,116.6C270,121.5 269.6,126 269.2,126.6C268.2,128.2 206.1,165 204.5,165C203.1,165 183,153.8 183,153C183,152.7 194.1,146 207.6,138.1L232.1,123.7L235.6,125.3C242.5,128.6 249.6,126.5 252.5,120.4C255.9,113.2 252.7,105.5 245.3,103.2C241.6,102 240.7,102.1 236.7,103.8C232,105.9 229,110.4 229,115.7C229,118.3 227.3,119.5 203,133.8C188.7,142.1 176.6,149 176.1,149C175.5,149 171.8,147 167.8,144.7C163.8,142.3 158.3,139.1 155.7,137.6C153,136 151.2,134.5 151.7,134C152.1,133.6 164,126.6 178,118.5C220.6,93.8 252.7,75.2 268.5,66C276.8,61.2 284.9,56.5 286.7,55.5C289.8,53.7 289.8,53.7 292.9,56.3C294.6,57.7 297,59.2 298.2,59.6C299.5,60 300.8,60.8 301.2,61.4C301.6,62 302,77.2 302,95.2L302,127.9L297.6,130.9C292.9,134.2 290,139.6 290,145.3C290,148.3 289.4,148.8 277.7,155.6C271,159.5 258.1,167 249.1,172.3C240.1,177.7 232.5,182 232.1,181.9C231.8,181.9 226.9,179.1 221.2,175.7zM358.5,169.9C347.5,163.4 334.8,155.9 330.2,153.3C322.4,148.9 322,148.5 322,145.1C322,140.1 318.6,133.9 314,130.7L310,127.9L310,106.4C310,88.6 310.2,85 311.4,85C312.2,85 318.1,88 324.4,91.7L336,98.5L336,115.7C336,132.5 336.1,133 338.2,134.3C339.5,135.1 347.7,139.9 356.5,145C390.8,165 398,169.4 397.7,170.4C397.4,171.4 380.1,182.1 379.1,181.9C378.8,181.9 369.5,176.5 358.5,169.9zM372.8,147.7L342,129.6L341.8,112.2L341.5,94.7L327.5,86.5C319.8,81.9 312.7,77.5 311.8,76.6C310.5,75.4 310,73.4 310,69.1C310,62.4 310.6,60 312.5,60C313.1,60 315.6,58.6 317.8,57C320.1,55.3 322.2,54 322.5,54C322.8,54 335.9,61.5 351.7,70.7C367.6,79.9 384.7,89.7 389.7,92.6C394.8,95.5 405.4,101.7 413.2,106.3C421.1,110.9 432,117.3 437.6,120.5L447.7,126.3L447.6,132.4C447.6,135.7 447.8,139.1 448,139.9C448.3,140.9 446,142.9 441.4,145.7L434.2,150L418.4,140.7C409.6,135.6 397.9,128.8 392.4,125.6L382.2,119.8L381.7,115.2C381,108.6 375.9,104 369.5,104C365.8,104 364.3,104.6 361.5,107.2C354.5,113.6 356.2,123.4 364.9,127.3L369.4,129.2L374.4,127.1L379.3,125L383.4,127.3C398.4,135.8 422,149.6 424.3,151.2C425.8,152.3 426.8,153.5 426.5,154C425.5,155.6 406.9,166 405.2,165.9C404.3,165.8 389.7,157.6 372.8,147.7zM365.6,120.4C362.1,116.9 364.8,110 369.8,110C372.6,110 376.2,114.7 375.4,117.4C374.1,121.8 368.6,123.5 365.6,120.4zM238.2,119.4C233.9,116.4 236.2,109 241.4,109C245,109 247.3,111.4 247.3,115C247.3,120.3 242.7,122.6 238.2,119.4zM269.5,98.5C266.6,95.7 266.4,94.3 268.6,91.2C270.3,88.7 275.7,88.1 277.8,90.2C279.9,92.3 279.3,97.7 276.8,99.4C273.7,101.6 272.3,101.4 269.5,98.5z"/>
  <path fill="url(#zg)" fill-rule="evenodd" d="M0,314L0,0L314,0L628,0L628,314L628,628L314,628L0,628L0,314zM377,379.9C380.6,378.2 388,374.3 393.4,371.2C398.9,368.2 404,365.7 404.7,365.7C405.4,365.7 406,365.4 406,365C406,364.6 406.6,364.3 407.2,364.3C407.9,364.3 413.7,361.2 420,357.5C447.4,341.3 452.3,338.7 453.5,339.6C459.5,344.1 460.7,344.5 467.4,344.8C473.3,345 475.2,344.7 478.5,342.8C490.5,335.8 492.6,318 482.3,308.9C480.3,307.2 477.4,305.3 475.8,304.8L473,303.8L473,267C473,232.7 472.9,230.1 471.2,229.8C466.9,228.8 464.9,231 464.5,237C464.3,238.4 464.2,254 464.1,271.8C464,297.5 463.7,304 462.7,304C462,304 459.4,305.3 456.9,306.9L452.4,309.7L446.3,306.1L440.2,302.5L439.8,268.3C439.5,232.4 439.2,230.1 435.2,232.6C433.7,233.6 433.5,236.9 433,265.9L432.5,298L422.8,292.3L413,286.6L413,276C413,266.3 413.2,265.3 415.2,263.5C416.5,262.4 417.8,261.5 418.2,261.5C418.5,261.5 419.2,261.1 419.7,260.6C420.2,260.1 419.9,260 419.2,260.4C418.1,261 418.2,260.6 419.3,258.4C421.9,253.4 421.5,244 418.8,245.6C418.1,246 418,245.8 418.4,245.2C419.5,243.4 414.9,241.6 410,241.9C404.8,242.2 401.3,244.1 400,247.5C399.5,248.7 398.6,250.1 398.1,250.5C397.5,250.8 397,251.8 397,252.6C397,253.5 397.5,253.8 398.1,253.4C398.9,252.9 399.1,253.5 398.8,255.4C398.5,256.9 398.5,257.8 398.8,257.6C399.4,256.9 403.6,262.2 403.3,263.2C403.1,263.6 403.6,263.7 404.4,263.4C405.2,263.1 406.1,263.4 406.6,264.1C407.1,264.9 406.9,265.1 405.9,264.5C404.8,263.9 404.7,264 405.8,265.1C407.2,266.6 407.5,280.6 406.1,281.4C405.7,281.7 401.3,279.6 396.5,276.8C386.5,270.9 385.2,270.5 382.8,272.7C379.4,275.8 380.7,277.4 391,283.5C396.6,286.7 401.3,289.7 401.7,290.2C402.3,291.3 398.5,295.1 397.6,294.3C397.3,293.9 397,294.2 397,294.9C397,295.6 396.6,295.8 396,295.5C395.4,295.2 395,295.4 395,296C395,296.6 394.5,296.8 393.8,296.4C393.1,296 393,296.1 393.4,296.8C394.1,297.9 392.7,298.5 390.5,298C390,297.9 389.8,298.2 390.3,298.6C390.7,299 387.7,301.5 383.6,304.1C376.7,308.6 373.9,311 375.5,311C375.9,311 380.8,308.5 386.5,305.5C392.1,302.5 397.5,300 398.4,300C399.3,300 400,299.5 400,298.9C400,298.4 400.4,298.2 401,298.5C401.6,298.8 402,298.6 402,297.9C402,297.2 402.3,297 402.6,297.3C403,297.6 404.2,297.3 405.4,296.5C406.5,295.7 408.1,295 408.9,295C410.7,295 428,305.1 428,306.2C428,306.6 425.1,308.5 421.5,310.5C417.9,312.5 415,314.6 415,315.1C415,315.7 414.6,315.8 414,315.5C413.4,315.2 413,315.4 413,316C413,316.6 412.6,316.8 412,316.5C411.4,316.2 411,316.4 411,317C411,317.6 410.5,317.8 410,317.5C409.4,317.2 408.7,317.6 408.4,318.4C408.1,319.3 407.3,319.7 406.7,319.3C406.1,319 406,319.2 406.4,319.8C406.8,320.5 405.7,321.6 403.8,322.6C400.7,324.2 397.6,326.1 384,334.8C375.4,340.3 380,339.7 389.9,334.1C394.7,331.3 399,329 399.4,329C399.8,329 401.4,328 402.9,326.9C404.5,325.7 406.3,325 406.8,325.4C407.3,325.7 408.1,325.3 408.4,324.4C408.7,323.6 409.4,323.2 410,323.5C410.5,323.8 411,323.6 411,323C411,322.4 411.4,322.1 411.9,322.4C412.4,322.7 413,322.3 413.4,321.5C413.7,320.7 414.7,320 415.5,320C416.4,320 421,317.7 425.8,314.9L434.5,309.7L440.9,313.2L447.4,316.7L447.3,324.1L447.2,331.5L426.5,343.6C415.1,350.3 405.5,356.1 405.2,356.6C404.8,357.1 403.8,357.6 403,357.8C402.2,358 401.3,358.6 401.2,359.1C401,359.6 400.4,359.8 399.9,359.4C399.4,359.1 399.1,359.4 399.2,360.2C399.4,360.9 398.7,361.4 397.8,361.4C396.8,361.3 396.3,361.7 396.7,362.3C397.1,362.9 396.7,363.1 395.7,362.7C394.8,362.4 394.1,362.5 394.3,363C394.4,363.5 390.4,366.5 385.5,369.7C369.2,380.2 365.8,383 369.3,383C370,383 373.4,381.6 377,379.9zM155.5,341.8C159.4,339.4 160.8,339 162.2,339.9C163.6,340.8 163.8,340.7 163.3,339.5C162.9,338.2 163.2,338.1 165.4,338.9C168.5,340.1 169.8,338.7 167.6,336.4C165.7,334.6 165.5,332.6 167.2,333.5C167.9,333.9 167.7,333.5 166.8,332.7C165.4,331.6 165,329.7 165,324.3C165,316.6 164.9,316.7 172.5,312.5L177.5,309.8L195.1,320.3C204.8,326.1 213.8,331 215.1,331.2C216.4,331.4 217.4,332.1 217.2,332.8C217.1,333.6 217.4,333.8 218,333.5C219,332.9 222.3,334.1 228.2,337.2C232,339.1 229.7,336.9 223.2,332.4C216.3,327.5 213.3,325.1 216,326.5C217,327 217.1,327 216.5,326.3C215.9,325.8 208.4,321.2 199.8,316.1C191.1,311 184.3,306.4 184.5,305.9C185.1,305 200.8,295.4 203.3,294.5C204.2,294.1 209.1,296.4 215.9,300.3C221.9,303.9 227.1,306.6 227.4,306.2C227.7,305.9 228,306.3 228,307C228,307.7 228.3,308 228.7,307.7C229,307.3 229.8,307.7 230.4,308.5C231,309.2 233.3,310.2 235.5,310.5L239.5,311.1L236,307.9C234.1,306 232.6,304.2 232.7,303.8C232.9,303.4 232.2,303.4 231.3,303.7C230.4,304.1 229.9,303.9 230.3,303.4C230.6,302.9 226.4,299.8 220.9,296.5C215.5,293.2 211,290.3 211,290C211,289.7 215.9,286.6 221.9,283.1C231.6,277.4 232.6,276.6 231.4,275.1C230.7,274.2 229.4,272.6 228.7,271.6C227.3,269.7 226.9,269.9 216.9,275.7C211.2,279.1 206.2,281.6 205.8,281.3C205.3,281.1 205,277.3 205,273C205,265.2 205.1,265 207.9,263.5C212.2,261.3 214,258.2 214,252.9C214,241.1 200.1,236.1 192.5,245.1C190.6,247.4 190,249.3 190,252.7C190,256.9 190.4,257.8 194.5,261.7L199,266L199,276.3L199,286.6L190.1,291.8C185.2,294.7 180.7,297 180.2,297C178.6,297 178,285.8 178,258.3L178,231.9L175.8,232.2C172.6,232.6 172.2,236.8 172.1,272.5L172,302.6L165.8,306.2L159.6,309.9L157.1,307.8C155.7,306.7 153,305.2 151.2,304.5L148,303.1L148,267L148,231L145.4,230C144,229.4 142,229 140.9,229C139.1,229 139,230.1 139,266L139,303L135.2,304.9C130.3,307.4 125.6,312.7 124,317.5C122.2,323.1 123.2,331.2 126.3,335.9C133,346 144.8,348.4 155.5,341.8zM303,271.2C303,269.1 297.2,265.4 296,266.6C294.8,267.8 295.9,269.4 299.5,271.3C303.2,273.3 303,273.3 303,271.2zM256.1,262.5C262.2,258.9 267.5,256 267.8,256C268.2,256 271.4,257.8 274.9,260C278.5,262.1 281.7,263.7 282.1,263.4C282.5,263.2 285,263.9 287.6,265C291.1,266.5 292.6,266.8 293.4,266C294.2,265.1 293.5,264 291,261.9C289.1,260.2 287.6,258.4 287.8,257.9C287.9,257.3 287.6,257.2 287,257.5C286.4,257.9 284.9,257.1 283.6,255.8C282.4,254.6 279.3,252.3 276.7,250.8L272,248L272.2,228.8L272.5,209.5L289.2,199.7L305.9,189.8L322.5,199.6C331.6,204.9 339.2,209.6 339.4,209.9C340.5,211.7 340.9,240.3 339.9,244.9C338.8,249.9 338.5,250.4 332.7,253.9C326.1,257.8 318.6,264.3 319.6,265.2C320.7,266.3 327.3,263.8 334.7,259.4C338.8,257 342.6,255.2 343.1,255.6C343.6,255.9 344.9,256.3 346,256.5C348.9,257.1 357,262 357,263.3C357,263.9 357.3,264.1 357.6,263.8C357.9,263.4 359,264 360,265C362.1,267.1 369.1,269.3 371.8,268.8C374.7,268.2 374.3,265.3 371.1,263.4C369.5,262.4 368.3,261.3 368.6,260.8C369.1,260.1 368.3,259.9 366.4,260.1C366.1,260.1 365.2,259.3 364.3,258.3C363.4,257.2 363.1,257.1 363.5,258C363.9,258.8 363.4,258.6 362.5,257.5C361.6,256.4 360.7,255.6 360.5,255.8C359.2,256.4 358,255.9 358.6,254.8C359.1,254.1 358.9,254 358,254.5C357.2,255 356.3,254.7 355.6,253.8C354.5,252.3 353.9,252 351.9,252C351.4,252 351.2,251.4 351.6,250.8C352,250.1 352,249.8 351.5,250.2C351.1,250.6 349.9,250.5 348.9,249.9C347.2,249 347,247.6 347.1,235.2C347.1,225.8 347.4,222.1 348.1,223.5C348.7,224.9 348.9,223.2 348.5,218.3C348.1,212.8 348.3,210.8 349.5,209.7C350.3,208.9 350.7,208 350.5,207.6C350.2,207.3 350.3,207.2 350.6,207.5C351,207.7 351.9,207.2 352.7,206.4C353.5,205.6 354.5,205.2 355,205.5C355.4,205.8 356.1,205.3 356.4,204.4C356.8,203.5 357.3,203 357.6,203.3C358,203.6 358.9,203.2 359.7,202.4C360.5,201.6 361.6,201.2 362.1,201.5C362.6,201.9 363,201.6 363,201.1C363,200.5 363.6,200 364.4,200C365.2,200 366,199.4 366.3,198.7C366.6,197.9 368.5,196.5 370.5,195.6C373.3,194.3 374,193.3 373.8,191.7C373.6,189.9 372.9,189.5 370,189.7C364.9,190 364,190.3 364.5,191C364.8,191.4 363.7,192 362.2,192.3C360.7,192.6 358.2,194 356.7,195.4C355.2,196.8 354,197.7 354,197.4C354,197.1 351.8,198.1 349.1,199.6L344.3,202.3L328.9,193C320.4,187.9 312.7,183 311.8,182.2C310.3,180.9 310,179 310,170.8L310,160.9L313.5,158.9C317.8,156.3 322,149.5 322,145C322,140.1 318.5,133.9 314,130.7L310,127.9L310,106.4C310,88.6 310.2,85 311.4,85C312.2,85 318.1,88 324.4,91.7L336,98.5L336,115.7C336,132.5 336.1,133 338.2,134.3C339.5,135.1 347.5,139.8 356,144.8C374,155.3 394.9,167.6 396.9,168.9C398,169.6 398,170.2 396.6,172.1C395.7,173.4 394.7,174.4 394.5,174.2C393.2,173.6 392,174.1 392.5,175.1C392.9,175.7 392.6,176 391.9,175.9C390.2,175.5 385.8,177.8 384.7,179.7C384.2,180.4 383.5,180.8 383,180.5C382.6,180.2 382.7,181.6 383.3,183.5C384.1,186.2 384.8,186.9 385.9,186.4C386.8,186 389,185.2 390.8,184.6C392.5,184 394,183.1 394,182.7C394,182.2 394.4,182.1 394.9,182.5C395.5,182.8 396.4,182.2 396.9,181.1C397.9,179.4 405.5,175.4 407.2,175.8C407.7,175.9 408,175.5 408,174.9C408,174.4 408.5,174.2 409,174.5C409.6,174.8 410.3,174.4 410.6,173.6C410.9,172.7 411.6,172.3 412.1,172.6C412.6,172.9 413,172.6 413,172C413,171.4 413.4,171.1 413.9,171.4C414.4,171.8 415,171.7 415.2,171.3C415.3,170.8 418.1,169.2 421.2,167.5C424.3,165.9 426.6,164.1 426.3,163.6C426,163.1 426.2,163 426.8,163.4C427.5,163.8 428,163.6 428,163C428,162.4 428.4,162.2 429,162.5C429.5,162.8 430.7,162.2 431.7,161C432.7,159.9 434.2,159 435.2,159C436.2,159 437,158.5 437,157.9C437,157.4 437.4,157.2 438,157.5C438.6,157.8 439,157.6 439,157.1C439,156.5 439.3,156.1 439.8,156.2C441.1,156.6 447,153 447,151.8C447,151.2 447.3,151 447.6,151.3C448,151.7 449.5,151.2 451,150.3C453.6,148.8 454,148.8 459.1,151.4C465.3,154.5 470.8,154.7 476.5,152.1C481.4,149.9 486.4,144.4 488,139.5C490.7,131.2 486.2,119.7 478.5,115.2C475.1,113.3 473.4,113 467.3,113.3C461.2,113.7 459.4,114.2 456.4,116.5C453.6,118.6 452.3,119.1 451.1,118.3C450.2,117.8 439.4,111.4 427,104.3C369.6,70.9 335.1,50.9 331.2,48.6C327.3,46.2 327,45.7 327,41.8C327,34.7 325.1,29.8 320.6,25.4C307.2,11.9 285.1,21.4 285,40.6C285,43.5 284.5,46.2 283.8,46.8C282.6,47.6 273,53.3 232,77C189.3,101.7 147.3,126.5 146,127.7C144.7,129 144.8,129.4 146.9,131.1C148.2,132.1 150.1,133 151.2,133C152.3,133 164.5,126.4 178.3,118.4C192.2,110.3 214.8,97.2 228.5,89.3C242.2,81.3 260.2,70.8 268.5,66C276.8,61.2 284.9,56.5 286.7,55.5C289.8,53.7 289.8,53.7 292.9,56.3C294.6,57.7 297,59.2 298.2,59.6C299.5,60 300.8,60.8 301.2,61.4C301.6,62 302,77.2 302,95.2L302,127.9L297.6,130.9C294.4,133.1 292.7,135.3 291.5,138.5C288.4,146.6 290.8,154 298.2,158.6L302,161L302,170.9C302,179 301.7,180.9 300.2,182.2C299.3,183 291.4,187.8 282.8,192.9L267.1,202.2L254.5,194.6C244.5,188.7 241.4,187.3 239.7,187.9C238.1,188.5 237.5,189.6 237.5,191.6C237.5,194.2 238.6,195.2 250,202L262.5,209.6L262.8,229L263,248.5L257.3,251.9C238.5,263.1 234.8,266.8 240.2,269C243.2,270.1 243.2,270.1 256.1,262.5zM406,257.5C405,256.4 403.9,254.1 403.6,252.3C403.1,249.7 403.4,249 405,248.5C406.1,248.2 407,247.4 407,246.9C407,244.7 412,246.2 414.4,249.1C417,252.1 417.8,255 416.2,255C415.7,255 414.8,256 414.1,257.2C412.6,260.1 408.6,260.2 406,257.5zM198,257C194,253 196.4,247 202,247C205.6,247 208,249.3 208,252.9C208,258.4 201.9,260.9 198,257zM225.5,211.1C225.2,210.8 222.8,210 220.2,209.4C214.8,208 164.2,205.3 161.6,206.3C160.5,206.7 160,207.8 160.2,209.2C160.5,211.4 160.9,211.5 176.5,212.3C185.3,212.7 197.4,213.4 203.5,213.8C211.6,214.3 216,214.1 220.3,213.1C223.4,212.3 225.8,211.5 225.5,211.1zM425.3,212.5C431.3,212.2 439.3,212 443.1,212C449.8,212 450,211.9 450,209.5C450,206.4 446,205.5 435.3,206.4C431,206.7 420.3,207.4 411.5,208C393.4,209.1 388,209.8 388,211.1C388,211.6 388.6,212.1 389.2,212.1C393.9,212.5 396.3,213 396.8,213.5C397.1,213.8 401.2,213.8 405.9,213.5C410.6,213.2 419.4,212.7 425.3,212.5zM227.4,200.1C227.7,199.7 227.4,198.6 226.7,197.8C225.5,196.3 222.5,195 194,183.4C184.9,179.7 170.1,173.6 161,169.9C151.9,166.1 143.7,163 142.7,163C140.5,163 139.4,165.6 140.9,167.4C141.6,168.2 145.8,170.3 150.3,172.1C154.8,173.9 171.8,180.8 188,187.6C204.2,194.3 218.6,200 220,200.3C224.3,201.1 226.9,201 227.4,200.1zM393.7,198.6C397.6,197.3 402.4,195.5 404.4,194.6C418.6,188.3 422.1,187 423.1,187.6C423.6,187.9 424,187.6 424,187.1C424,186.5 425.1,186 426.5,186C427.9,186 429,185.6 429,185C429,184.4 429.8,184 430.8,184C431.9,184 434,183.4 435.6,182.6C437.2,181.9 445,178.7 453,175.5C469.5,168.9 469.6,168.8 470.2,165.6C470.6,163.7 470.3,163.4 468.1,163.5C465.7,163.7 450.1,169.8 449,171C448.7,171.3 447.8,171.6 447,171.8C443.6,172.4 430,178.4 430,179.3C430,179.8 429.3,180 428.5,179.6C427.7,179.3 426.4,179.7 425.6,180.5C424.9,181.3 424,181.6 423.6,181.3C423.3,180.9 423,181.2 423,181.9C423,182.7 422.4,183 421.4,182.6C420.6,182.3 420.2,182.4 420.5,183C421.1,183.9 419.5,184.4 416.3,184.3C415.6,184.2 415.2,184.6 415.5,185C416.2,186.2 412.3,187.3 410.9,186.4C410.1,186 410,186.1 410.4,186.8C410.9,187.6 410.2,188 408.6,188C407.2,188 406,188.5 406,189.1C406,189.7 405.3,189.9 404.4,189.6C403.4,189.2 403.1,189.4 403.6,190.2C404.1,191 403.8,191.1 402.6,190.7C401.6,190.3 401.1,190.4 401.5,191C401.9,191.6 400.8,192 399.1,192C397.5,192 396,192.5 395.8,193C395.6,193.6 394.5,194.2 393.3,194.3C392.1,194.3 391.3,194.7 391.5,195.1C391.8,195.4 390.2,196.4 388,197.3C384.2,198.8 382.6,201 385.3,201C386.1,201 389.8,199.9 393.7,198.6zM227.2,159.1C235.1,154.5 249,146.3 258.1,140.9C277,129.6 276,131 276,116L276,107.3L279.8,104.9C284.9,101.6 287,95.8 284.9,90.4C283.1,85.8 278,82 273.5,82C269.7,82 264.1,85.5 262.2,89C261.5,90.5 261.1,93.4 261.4,96C261.7,99.7 262.5,101.1 265.9,104.1L270,107.8L270,116.8C270,123 269.6,126.3 268.7,127.2C268,127.9 254,136.4 237.7,146C209.3,162.7 205.2,165.8 209.2,167.3C211.5,168.1 212.7,167.5 227.2,159.1zM372.8,147.7L342,129.6L341.8,112.2L341.5,94.7L327.5,86.5C319.8,81.9 312.7,77.5 311.8,76.6C310.5,75.4 310,73.4 310,69.1C310,62.4 310.6,60 312.5,60C313.1,60 315.6,58.6 317.8,57C320.1,55.3 322.2,54 322.5,54C322.8,54 335.9,61.5 351.7,70.7C367.6,79.9 384.7,89.7 389.7,92.6C394.8,95.5 405.4,101.7 413.2,106.3C421.1,110.9 432.1,117.3 437.8,120.6L448,126.5L447.4,131C447.1,133.5 447.3,136.7 447.9,138.2C448.8,140.7 448.6,141.1 445.7,143.2C443.9,144.4 442.3,145.8 442.2,146.2C442,146.7 441.4,146.8 440.9,146.4C440.4,146.1 440,146.4 440,147C440,147.6 439.5,147.8 439,147.5C438.4,147.2 437.7,147.5 437.4,148.3C437.2,149 436.2,149.7 435.3,149.7C434.4,149.7 426.6,145.6 418.1,140.5C409.5,135.5 397.9,128.8 392.4,125.6L382.2,119.8L381.7,115.2C381,108.6 375.9,104 369.5,104C365.8,104 364.3,104.6 361.5,107.2C354.5,113.6 356.2,123.4 364.9,127.3L369.4,129.2L374.4,127.1L379.4,125L384.4,127.9C405.3,139.8 424.7,151.3 425.8,152.4C426.8,153.4 426.5,154 424.5,155.8C423.1,157 422,157.8 422,157.5C422,157.3 418.6,159.1 414.5,161.5C410.3,164 406.2,166 405.2,165.9C404.3,165.8 389.7,157.6 372.8,147.7zM199,143C205.3,139.4 215.4,133.5 221.3,130L232.1,123.7L235.6,125.3C242.5,128.6 249.6,126.5 252.5,120.4C255.9,113.2 252.7,105.5 245.3,103.2C241.6,102 240.7,102.1 236.7,103.8C232,105.9 229,110.4 229,115.7C229,118.3 227.5,119.4 207.7,131C187.2,143 178.5,149.3 181.2,150.2C183.8,151.1 187.9,149.5 199,143zM365.6,120.4C362.1,116.9 364.8,110 369.8,110C372.6,110 376.2,114.7 375.4,117.4C374.1,121.8 368.6,123.5 365.6,120.4zM238.2,119.4C233.9,116.4 236.2,109 241.4,109C245,109 247.3,111.4 247.3,115C247.3,120.3 242.7,122.6 238.2,119.4zM269.5,98.5C266.6,95.7 266.4,94.3 268.6,91.2C270.3,88.7 275.7,88.1 277.8,90.2C279.9,92.3 279.3,97.7 276.8,99.4C273.7,101.6 272.3,101.4 269.5,98.5z"/>
</svg>
