<svg xmlns="http://www.w3.org/2000/svg" viewBox="0 0 479 479" role="img" aria-label="Zümm — emblème">
  <!-- Master vectoriel Zümm (trace potrace 2 couches depuis zumm-icon.png).
       Couleurs normalisees sur la charte : ardoise #2C4A42, degrade signature 120deg #D9A521 -> #2E9E3F. -->
  <defs><linearGradient id="zg" x1="0" y1="0" x2="0.866" y2="0.5"><stop offset="0" stop-color="#D9A521"/><stop offset="1" stop-color="#2E9E3F"/></linearGradient></defs>
  <path fill="#2C4A42" fill-rule="evenodd" d="M0,239.5L0,0L239.5,0L479,0L479,239.5L479,479L239.5,479L0,479L0,239.5zM250,461.9C252.4,460.8 255.3,459.1 256.3,458.2C259.9,455 262.4,448.8 262.4,442.8L262.5,437.1L293.5,418.7C378.4,368.5 387.1,363.6 389.4,365.1C400.8,372.4 412,371.5 419.7,362.7C427.1,354.2 426.5,342.5 418.3,334.2C416,331.9 413.4,330 412.6,330C411.8,330 410.4,329.3 409.6,328.4C408.2,327.1 408,322.2 408,290L408,253.2L415.2,248.3C427.9,239.8 436.4,226.8 439.8,211.1C441.4,203.7 441.8,202.9 446,199.6C456.7,191.2 466.9,174.6 471.2,158.5C474,148.1 474.3,128.5 471.8,122.8C470.6,120.2 469.5,119 468.1,119C466.5,119 436.4,135.8 423.3,144C421.3,145.3 420.8,145.2 418.8,143.3C410.9,136.2 399.4,135.4 391.3,141.6L388,144.1L378.3,138.2C372.9,135 365.8,130.9 362.5,129C359.2,127.2 349.1,121.3 340,116C330.9,110.6 310.4,98.7 294.5,89.5C278.6,80.3 264.8,72.1 263.9,71.3C262.8,70.4 262.3,68.3 262.3,64.7C262.3,52.8 253.3,44 241.3,44C229.3,44.1 221,52.7 221,65.2L221,70.6L210.8,76.6C197.6,84.4 85.6,149.7 80.9,152.4L77.4,154.3L47.1,136.6C27.8,125.3 16.1,119 14.7,119.2C11.4,119.7 9.8,125.8 9.8,138C9.8,151 13,164 19.2,176.7C22.8,184.1 25,187.1 33.2,195.3C40.9,203 43,205.6 43,207.8C43,211.7 45.7,220.5 48.7,226.5C53.3,235.6 61.7,244.7 70.8,250.4L75,253L75,289.4C75,309.5 74.7,326.5 74.4,327.4C74.1,328.3 73.2,329 72.5,329C70,329 63,335.1 60.9,339.1C58.6,343.7 58.1,352.5 59.8,357.1C62.7,364.6 70.8,370 79.2,370C84.4,370 92.1,367.3 93.4,365.1C94.5,363.4 96.7,363.8 100.8,366.4C102.8,367.6 121.8,378.8 143,391.2C164.2,403.6 190.3,418.9 201,425.2L220.5,436.7L221.1,443.1C221.7,450.2 223.4,454.2 227.7,458.2C233.9,464.1 242.2,465.5 250,461.9zM256.4,427.9C255.5,426.9 252.8,425.1 250.4,423.9L246,421.8L246,387.5C246,354.5 246.1,353.1 247.9,352.5C251,351.5 257,344.3 257.2,341.2C257.3,339.7 257.4,337.7 257.4,336.8C257.5,335.8 258,334.6 258.6,334C260.9,331.7 312.5,302 314.2,302C316.6,302 338.2,314.9 337.5,316C337.2,316.5 333.9,318.5 330.2,320.6C322.9,324.7 271.7,355 271.1,355.5C270.9,355.7 270.2,361 269.4,367.2C268.4,375.7 267.6,378.7 266.4,379.5C259,383.9 256.6,389.6 259.3,396.3C261,400.3 266.1,404 270,404C277.2,404 283.8,396.2 282.5,389.3C281.9,385.9 278,380.8 275.2,379.9C274.2,379.6 274.2,377.4 275.1,369.2L276.3,359L284.4,354.4C288.9,351.8 303.8,343 317.7,334.8C331.5,326.7 343.7,320 344.7,320C347.2,320 362.5,329.3 362.5,330.8C362.5,331.5 351.1,338.8 337.1,347C312.2,361.7 311.7,361.9 308.9,360.5C304.4,358.1 298.6,358.6 295.1,361.6C286.6,368.7 291.3,383 302.1,383C309.9,383 313.9,379.3 315,371.1L315.5,366.8L342.4,350.9C357.2,342.1 369.7,335 370.3,335C370.8,335 373.9,336.5 377.1,338.2L383,341.5L383,349L383,356.5L375.7,360.6C364.5,366.9 305,401.8 280.3,416.5C258.9,429.4 258.1,429.7 256.4,427.9zM198,413.7C184,405.4 156.3,389.1 136.6,377.6L100.7,356.5L100.6,349.2L100.5,341.9L106.1,338.4C109.2,336.5 112.3,335 112.9,335C113.5,335 120.6,339 128.7,343.8C136.9,348.7 149,355.9 155.8,359.9C167.7,367 168,367.3 168,370.6C168,378.1 173.1,383 181.1,383C184.4,383 185.8,382.4 188.6,379.6C191.5,376.7 192,375.5 192,371.3C192,368.5 191.3,365.5 190.4,364.2C187,359.3 178.8,357.5 173.3,360.6C170.5,362.1 170.4,362.1 145.5,347.1C131.8,338.8 120.4,331.7 120.2,331.2C119.9,330.2 138,319 139.9,319C140.6,319 155.9,327.8 174,338.6L206.8,358.1L207.4,362.3C207.7,364.6 208.2,369.4 208.5,373L209.1,379.5L205.8,381.5C198.7,385.8 198.8,396.9 205.9,401.7C207.8,403 210.4,404 211.7,404C218.5,404 225,397.9 225,391.5C225,387.6 221.8,382.5 218.2,380.6C215,379 215.1,379.2 213.4,361.7L212.8,355L204.1,349.7C199.4,346.7 184.6,337.9 171.2,330.1C157.9,322.2 147,315.4 147,315C147,314.5 152,311.2 158.1,307.5L169.1,300.9L197.4,317.5L225.8,334.2L226.2,339.6C226.7,345.5 229.6,349.7 235.3,352.6L238,354.1L237.8,387.8L237.5,421.5L234.1,423.2C232.3,424.1 229.8,425.8 228.6,426.9C227.4,428.1 225.7,429 224.9,428.9C224.1,428.9 212,422 198,413.7zM208.1,395.4C206.9,393.9 206,392.1 206,391.3C206,389.4 210.5,385 212.5,385C214.6,385 219,389.4 219,391.5C219,393.7 214.5,398 212.1,398C211,398 209.2,396.8 208.1,395.4zM266.1,395.4C264.9,393.9 264,391.9 264,390.9C264,388.4 267.5,385 270,385C272.4,385 277,389.2 277,391.3C277,393.8 272.9,398 270.5,398C269.1,398 267.3,396.9 266.1,395.4zM175.6,374.8C173.5,371.8 173.6,368.7 175.8,366.7C181.6,361.4 189.5,369.5 184,375C181.3,377.7 177.5,377.6 175.6,374.8zM298.7,375.2C296.5,372.8 296.5,368.6 298.6,366.5C301.1,364 306.1,364.9 308,368.2C309.3,370.7 309.3,371.3 308,373.8C306,377.2 301.2,378 298.7,375.2zM93.6,333.1C93.3,332.6 91,331.3 88.5,330.1L84,328L84,292L84,256.1L87.2,256.8C89,257.2 94.4,257.5 99.3,257.5L108,257.5L107.8,292.4L107.5,327.4L102,330.7C96.3,334.1 94.5,334.6 93.6,333.1zM380.8,330.4L375,326.8L375,292.1L375,257.4L383.2,257.4C387.8,257.5 393.4,257.2 395.8,256.7L400,256L400,291.9L400,327.9L395.6,329.8C393.2,330.9 390.9,332.3 390.6,332.9C389.4,334.8 386.7,334.1 380.8,330.4zM218.9,320.5C213.2,317.1 201.9,310.4 193.8,305.6C185.7,300.8 178.8,296.5 178.5,296C178,295.2 201.4,281 203.2,281C204.5,281 236.4,300 237.2,301.4C238.1,302.7 238.1,316.6 237.2,319.7C236.8,320.9 234.9,323 232.9,324.3L229.3,326.7L218.9,320.5zM249.2,323.8L246,321.8L246,311.1L246,300.3L262.5,290.7C271.6,285.3 279.3,281 279.6,281C281.4,281 304.1,295.3 303.8,296.2C303.3,297.5 255.2,326 253.6,325.9C253,325.9 251,324.9 249.2,323.8zM114,289.1L114,256.1L121.8,254.4C126,253.5 136.9,251.1 146,249C155.1,246.9 162.8,245.4 163.2,245.7C163.7,245.9 164,256.8 164,269.9L164,293.7L153.5,299.8C147.8,303.2 142.6,306 142,306C141.4,306 141,302.9 141,298.3L141,290.6L145.1,287C148.5,284.1 149.3,282.8 149.6,279C150.9,267.2 136.9,260.5 129,269.1C123,275.4 124.6,282.7 133.4,289.8C135.4,291.4 135.7,308.7 133.8,311.2C132.2,313 116.8,322 115.2,322C114.3,322 114,313.4 114,289.1zM358,316.9C353.3,314.1 349.4,311.7 349.2,311.5C348.9,311.3 348.7,295 348.9,291C349,290.2 350.3,288.8 351.9,287.8C358.7,284 359.6,275.3 353.9,269.4C348.2,263.5 339.2,264.3 335,271.2C331.5,277 333,283.5 339,288.2C342.1,290.6 342.1,290.7 341.8,298.8L341.5,307.1L331,300.9C325.2,297.5 320.2,294.2 319.8,293.6C319,292.5 318.7,245 319.4,245C319.6,245 330.7,247.5 344,250.5C357.3,253.5 368.4,256 368.6,256C368.8,256 369,270.9 369,289C369,314.7 368.7,322 367.8,322C367.1,322 362.7,319.7 358,316.9zM225.9,283.8C217.4,278.9 209.9,274.3 209.2,273.8C208.3,273 208,267.7 208,253.5L208,234.2L224.4,224.6C233.5,219.3 241.1,215 241.4,215C241.8,215 249.5,219.3 258.5,224.6L275,234.3L274.8,253.8L274.5,273.4L260.5,281.8C252.8,286.3 245.3,290.7 243.9,291.5C241.5,292.8 240.6,292.4 225.9,283.8zM172.6,286.7C171.7,283.2 171.9,222.6 172.9,221.1C173.6,220 176.4,221.3 186.1,227.2L198.5,234.6L198.5,254L198.5,273.3L185.8,281.1C174,288.3 173.1,288.7 172.6,286.7zM296.5,280.7L284.5,273.5L284.2,254.4C284,239.9 284.3,235 285.2,234.2C287.5,232.4 309.1,220 310.1,220C310.6,220 311,233.4 311,254C311,280.6 310.7,288 309.8,288C309.1,287.9 303.1,284.7 296.5,280.7zM134.2,282.4C131.6,280.6 131.2,274.9 133.5,273C137.1,270 144,272.9 144,277.5C144,279.9 140.2,284 137.9,284C137.1,284 135.4,283.3 134.2,282.4zM341.2,281.7C340,280.4 339,278.5 339,277.3C339,271.7 348.1,270.1 350.9,275.2C352.3,277.7 352.3,278.1 350.4,280.7C347.7,284.4 344.1,284.8 341.2,281.7zM86,247.6C73.7,244 63.2,235.6 57.3,224.5C54,218.2 51.3,210.3 52.2,209.5C52.5,209.2 54.8,209.9 57.4,211C59.9,212.2 80.1,217.1 102.3,222.1C124.4,227 142.9,231.2 143.5,231.5C144.1,231.7 133.6,231.7 120.2,231.3L95.8,230.7L96.2,233.6L96.5,236.5L119,237.3C153,238.5 153.4,238.7 130,243.9C108.4,248.8 94.1,250 86,247.6zM363,246.1C355.6,244.5 345.9,242.3 341.5,241.3L333.5,239.4L341.5,238.7C345.9,238.3 357.4,237.8 367.1,237.4C376.8,237.1 385.3,236.5 386,236C386.6,235.6 387,234.4 386.8,233.4C386.5,231.6 385.3,231.5 362.5,231.8C349.3,232 338.7,231.9 339,231.7C339.3,231.4 357,227.3 378.4,222.6C399.8,217.8 420.4,212.9 424.3,211.5L431.2,209.1L430.6,212.8C428.4,225 417.3,238.6 404.5,244.7C397.4,248 395.9,248.4 386.6,248.7C378.3,248.9 374.1,248.5 363,246.1zM262.8,216.7L246,206.6L246,196L246,185.5L249.5,183.2C251.4,182 253.2,181 253.5,181C254.5,181 302.5,209.1 303.9,210.5C304.7,211.3 305.2,212.1 304.9,212.3C304.1,213.1 280.2,227 279.9,227C279.7,226.9 272,222.3 262.8,216.7zM189.3,219.2C183.1,215.5 178.2,212.1 178.4,211.5C178.5,210.9 190,203.8 204,195.6L229.3,180.8L232.9,182.8L236.5,184.9L236.8,195.9L237.1,206.9L233.8,208.6C232,209.5 224.6,213.8 217.4,218.2C210.1,222.5 203.4,226 202.4,225.9C201.3,225.9 195.5,222.8 189.3,219.2zM130.5,220C123.9,218.4 108.8,215.1 97,212.5C56.2,203.7 46.4,199.2 33.8,183.8C24.9,172.9 19.4,157.5 18.3,140.8C17.8,132.2 17.9,131 19.3,131C20.2,131 28.7,135.5 38.2,141.1C79.8,165.4 98.3,176.2 110,183C116.9,186.9 131.8,195.6 143.2,202.2L164,214.2L164,218.1C164,220.2 163.7,222 163.4,222C163.1,222 159.2,220.5 154.7,218.6C150.2,216.7 139.1,212.1 130,208.4C120.9,204.7 106.1,198.6 97.1,194.9C79.1,187.3 76,186.6 76,190.4C76,192.4 77,193.2 82.2,195.3C133.2,216.3 147.6,222.3 147.9,222.6C149,223.7 141.3,222.5 130.5,220zM338,221.4C339.9,220.5 355,214.3 371.5,207.4C407,192.7 406.4,193 406.8,190.2C407.1,188.5 406.6,188 404.8,188C402.8,188 363.9,203.6 329,218.4C324.4,220.4 320.2,222 319.8,222C318.2,222 319,215.3 320.8,213.8C321.7,213 336.6,204.2 353.7,194.2C370.9,184.2 385.9,175.5 387,174.8C388.6,173.8 389.7,173.9 393.6,175.8C400.7,179.3 405.8,179.6 411.6,177.1C414.2,175.9 417.3,174.2 418.4,173.2C421.5,170.5 425,161.9 425,157L425.1,152.5L443.1,142.1C453,136.4 462,131.5 463.1,131.3C464.9,130.8 465,131.4 465,139.2C465,159.9 455.1,181.2 439.6,193.6C429.3,201.8 421.9,204.3 377.7,214.1C355.8,219 337.1,223 336.2,223C335.2,222.9 336.1,222.2 338,221.4zM157.2,200.7C151.6,197.3 147.1,194.1 147.3,193.6C147.5,193.1 151.6,190.4 156.5,187.5C180.1,173.9 206.2,158.3 208.5,156.5C210.8,154.6 211,153.7 211.6,143.5L212.3,132.5L216.7,128.4C220.5,124.9 221,123.8 221,120.1C221,112.3 216.2,107 209,107C201.8,107 197,112.1 197,119.6C197,123.7 197.5,124.7 201.2,128.4L205.5,132.5L205.2,142C205,149.6 204.6,151.8 203.2,152.8C202.3,153.6 195,158 187,162.7C179,167.4 165.4,175.5 156.7,180.7C147.9,185.9 140.3,190 139.7,189.8C136.5,189 119,178.5 119.3,177.6C119.5,177 130.4,170.3 143.5,162.6C166.8,149 167.4,148.7 170.4,150C178.7,153.4 185.7,151.3 188.6,144.3C190.6,139.5 189.7,134.9 186,131.1C178.4,123.6 166.3,127.9 165,138.6L164.5,143.1L140,157.7C126.5,165.7 114.6,172.6 113.5,173.2C111.8,173.9 109.2,172.8 99.5,167.2C93,163.4 87.5,159.8 87.3,159.4C87.2,158.9 99.6,151.3 114.8,142.5C130,133.8 159.8,116.5 180.9,104.2C229.6,75.9 224.7,78.4 227.9,80.8C229.3,81.8 232,83.4 233.8,84.4L237,86.1L237,119.8L236.9,153.5L233.8,155.5C229.1,158.5 226.6,162.5 226,168.1L225.5,173.1L197.5,189.7C182.1,198.7 169.1,206.4 168.5,206.6C167.9,206.8 162.9,204.1 157.2,200.7zM291,192.9C278.1,185.2 265.2,177.6 262.4,176C257.6,173.3 257.3,172.9 257.3,169.2C257.3,163.8 255.2,160.1 250.3,156.5L246.1,153.5L246.1,131.8C246,119.9 246.3,109.9 246.8,109.7C247.5,109.2 267.3,120.3 270.4,122.9C271.7,124 272,127.3 272.2,141.3L272.5,158.4L294.5,171.2C332,193.1 334,194.3 334,194.9C334,195.5 316.6,206.2 315.1,206.7C314.8,206.7 303.9,200.5 291,192.9zM333,186.9C329.4,184.8 315.6,176.6 302.2,168.8L278,154.6L278,137.8C278,122.1 277.9,120.9 276,119.2C274.9,118.3 267.8,113.9 260.2,109.4L246.5,101.4L246.2,93.7L245.9,86.1L249.8,84.1C251.9,83 254.2,81.4 254.9,80.6C255.7,79.7 256.9,79 257.7,79C258.5,79 266,83 274.3,87.9C282.7,92.8 299.9,102.7 312.5,110C351.5,132.6 381.5,150.1 382.3,150.9C382.7,151.3 383.2,155 383.4,159.1L383.7,166.6L377.4,170.3C374,172.3 370.6,174 369.9,174C369.2,174 357.3,167.4 343.3,159.3C322.1,147 318,144.3 318,142.4C318,136.5 313.7,130.6 308.3,129.1C297.8,126.2 289.4,137.1 294.5,147C297.4,152.6 306.2,154.8 312,151.3L314.8,149.7L337.1,162.6C349.3,169.7 360.2,176.2 361.3,177C363.1,178.5 362.6,178.9 352.6,184.8C346.8,188.2 341.5,191 340.8,191C340.1,190.9 336.6,189.1 333,186.9zM301,145C299.9,143.9 299,142.1 299,141C299,138.3 302.5,135 305.3,135C310.3,135 312.9,142 309.2,145.3C306.7,147.6 303.4,147.4 301,145zM174,144.2C169.7,140.7 171.7,134 177.1,134C182.7,134 185.3,141.3 180.8,144.4C177.9,146.4 176.7,146.4 174,144.2zM204.7,123.2C200.5,118.6 204.3,113.1 211,114C213,114.2 215,116.9 215,119.5C215,124.3 208,126.8 204.7,123.2z"/>
  <path fill="url(#zg)" fill-rule="evenodd" d="M0,239.5L0,0L239.5,0L479,0L479,239.5L479,479L239.5,479L0,479L0,239.5zM313.6,404.1C317.9,402 325.1,398.3 329.6,395.8C334,393.3 338.6,391.1 339.8,390.8C341,390.5 352.2,384.2 364.6,377C385.4,364.8 387.5,363.8 389.4,365.1C400.8,372.4 412,371.5 419.7,362.7C427.1,354.2 426.5,342.5 418.3,334.2C416,331.9 413.4,330 412.6,330C411.8,330 410.4,329.3 409.6,328.4C408.2,327.1 408,322.3 408,291C408,259.4 407.8,255.1 406.4,254.6C404.5,253.9 401.4,255.4 400.6,257.6C400.3,258.4 400,274.6 400,293.5L400,327.9L395.6,329.8C393.2,330.9 390.9,332.3 390.6,332.9C389.4,334.8 387,334.2 380.9,330.4L375,326.9L374.8,292.2L374.5,257.5L372,257.5L369.5,257.5L369.2,289.8C369,314.5 368.7,322 367.7,322C366.8,322 350.6,312.9 349.2,311.5C348.9,311.2 348.7,294.6 348.9,290.8C349,289.9 349.8,288.9 350.8,288.6C353.3,287.8 357,280.1 357,275.8C357,273.2 356.2,271.6 353.6,269.1C351.4,267 349.5,266 348.6,266.3C347.7,266.7 347,266.5 347,266C347,265.4 346,265 344.8,265.1C342.6,265.1 342.6,265.2 344.5,266C346.2,266.7 345.9,266.9 343,267C341.1,267.2 339.1,267.1 338.5,267C337.9,266.9 337.8,267.2 338.2,267.6C339.3,268.6 337,271.1 335.7,270.3C335.2,270 335,270.2 335.3,270.8C336.2,272.2 335,275.1 333.9,274.4C333.4,274.1 333,275.5 333,277.4C333,279.5 333.5,281 334.2,281C334.8,281 335.1,281.3 334.7,281.6C334.2,282.2 336.7,285.6 340.3,289C341.8,290.4 342,292.1 341.8,298.9L341.5,307.1L332.1,301.5C327,298.5 322.2,296 321.4,296C319.4,296 315.7,299.9 316.3,301.4C316.6,302 321.6,305.4 327.6,308.9L338.3,315.3L335.9,317.1C334.6,318.2 332.9,319.5 332.2,320C331.6,320.6 331,320.7 331,320.3C331,319.9 330.2,320.4 329.2,321.6C328.3,322.7 323.8,326 319.2,328.9C314.7,331.9 311,334.7 311,335.2C311,335.7 315.2,333.9 320.3,331.1C325.5,328.3 330.7,325.9 331.9,325.7C333.1,325.5 335,324.6 336,323.7C337.1,322.8 338,322.3 338,322.6C338,322.9 339,322.4 340.2,321.6C341.4,320.7 343.4,320 344.5,320C346.8,320 362.2,329 362.7,330.7C362.9,331.3 360.6,333.2 357.5,335C354.5,336.7 351.3,338.8 350.5,339.6C349.7,340.5 349,340.9 349,340.5C349,340.2 347.6,340.7 346,341.7C344.4,342.6 343,343.8 343,344.3C343,344.7 342.5,344.8 341.8,344.4C341.1,344 341,344.1 341.4,344.8C341.8,345.4 340.9,346.5 339.3,347.4C336.3,348.9 321,358.5 317.1,361.2C315.7,362.2 314.9,363.3 315.3,363.6C315.6,364 319.9,362 324.7,359.3C335.4,353.1 342,349.8 342,350.5C342,350.8 342.9,350.1 344,349C345.2,347.8 346.5,347.2 347,347.5C347.6,347.9 348,347.7 348,347.2C348,346.7 348.6,346.3 349.2,346.3C349.9,346.3 354.7,343.8 359.8,340.7C364.9,337.5 369.6,335 370.2,335C370.8,335 373.9,336.5 377.1,338.2L383,341.5L383,349.1C383,355.3 382.7,356.9 381.4,357.4C379,358.3 336.7,383.1 335.5,384.3C334.8,385 335,385 335.9,384.5C336.9,383.9 337.1,384.1 336.6,384.9C336.1,385.6 335.1,385.9 334.3,385.6C333.4,385.2 333.2,385.4 333.6,386.2C334.1,387 333.8,387.1 332.6,386.7C331.6,386.3 331.1,386.4 331.5,387C331.8,387.5 330.4,388.8 328.3,389.9C322.1,393.2 304.7,405.4 304.2,406.8C303.6,408.7 305.1,408.3 313.6,404.1zM87.7,368.5C89.8,367.6 92.2,366.2 93.3,365.3C94.5,364.2 96.7,363.6 100.1,363.7C104.9,363.8 105,363.7 103.5,362C102.6,361 101.7,359.3 101.5,358.3C101.3,357.3 101.1,356.5 101,356.5C100.9,356.5 100.8,353.2 100.7,349.2L100.5,341.9L106.1,338.4C109.2,336.5 112.3,335 112.9,335C113.4,335 121.7,339.7 131.2,345.3C140.7,351 149.8,356 151.3,356.4C152.8,356.7 153.8,357.5 153.5,358C153.2,358.5 153.6,358.7 154.4,358.4C155.2,358.1 157.6,358.8 159.9,360C165,362.6 165.2,361.3 160.3,358C158.2,356.6 155.3,354.3 153.7,352.8C152.1,351.4 143.9,346 135.4,341C126.9,336 120,331.5 120,331.1C120,330 138.2,319 139.9,319C140.6,319 146.2,322 152.4,325.7C158.5,329.3 164,332.3 164.7,332.3C165.4,332.3 165.7,332.7 165.4,333.2C165.1,333.6 166.2,334.3 167.9,334.6C169.6,335 170.8,335.6 170.5,336C170.3,336.4 171.3,336.5 172.7,336.2L175.4,335.7L171.5,332.3C169.4,330.5 168.1,329 168.6,329C169,329 164.4,326 158.2,322.4C152,318.8 147,315.4 147,315C147,314.5 151.7,311.3 157.4,307.9L167.8,301.8L165.6,298.4C164.5,296.6 163.1,295.1 162.5,295C162,295 157.4,297.5 152.4,300.5C147.3,303.5 142.7,306 142.1,306C141.4,306 141,303.1 141,298.3L141,290.6L145.1,287C148.5,284.1 149.3,282.8 149.6,279C150.9,267.2 136.9,260.5 129,269.1C123,275.4 124.6,282.7 133.4,289.8C135.4,291.4 135.7,308.7 133.8,311.2C132.2,313 116.8,322 115.2,322C114.3,322 114,313.5 114,289.4L114,256.9L111.2,257.2L108.5,257.5L108,292.5L107.5,327.4L101.6,330.9C96.4,334 95.6,334.2 93.6,333C92.5,332.2 89.8,330.8 87.8,329.8L84,328L84,292L84,256L81.8,255.1C80.5,254.6 78.5,254 77.2,253.6L75,252.9L75,289.4C75,309.4 74.7,326.5 74.4,327.4C74.1,328.3 73.2,329 72.5,329C70,329 63,335.1 60.9,339.1C58.6,343.7 58.1,352.5 59.8,357.1C61.3,361 65.8,365.9 69.9,368C74.3,370.4 82.7,370.6 87.7,368.5zM239,297C239,295.4 234.3,291 232.6,291C229.6,291 230.1,293 233.7,295.4C237.8,298.2 239,298.6 239,297zM195.8,284.8C199.2,282.7 202.5,281 203.1,281C203.7,281 206.8,282.6 210,284.5C213.2,286.4 216.5,288 217.3,288C218.1,288 220.9,288.9 223.3,289.9C230.3,292.9 231.3,290.2 225,285.6C222.9,284 221.3,282.4 221.5,282C221.7,281.7 218.9,279.6 215.2,277.5L208.5,273.5L208.2,253.9L208,234.2L224.4,224.6C233.4,219.3 241.1,215 241.4,215C241.8,215 249.5,219.3 258.6,224.6L275.1,234.3L274.8,254.9C274.5,273.8 274.4,275.5 272.8,275.4C271.8,275.3 271.2,275.5 271.5,275.9C271.7,276.3 269.5,278.1 266.5,279.9C261.3,283.1 255,288.4 255,289.6C255,290.7 262.4,288.9 265.5,287C275.2,281.2 278.1,280 279.9,281C280.9,281.5 282,281.6 282.4,281.3C282.7,281 283,281.2 283,281.9C283,282.6 283.4,282.9 283.9,282.6C284.4,282.3 285.3,282.7 286,283.5C286.7,284.3 287.8,285 288.6,285C289.3,285 291.2,286.2 292.7,287.6C298.3,292.9 307.4,295.6 308.7,292.4C309.7,289.8 300,281.5 294.9,280.5C293.6,280.2 292.1,279.4 291.5,278.7C289.9,276.6 283.6,272.5 284.4,274.1C284.8,274.8 284.4,274.6 283.5,273.5C282.3,272 282,270.4 282.5,267C282.8,264.5 283.3,256.4 283.6,249L284.1,235.5L288.2,231.8C290.4,229.8 292.8,228.4 293.5,228.6C294.2,228.9 295,228.4 295.4,227.5C295.7,226.6 296.4,226.1 297,226.5C297.5,226.8 298.7,226.3 299.7,225.3C300.8,224.2 303.2,222.4 305.2,221.2C307.2,220 309.1,218.2 309.5,217.3C310.3,215.2 307.2,212.7 305,213.6C304.2,213.9 303,214.3 302.5,214.4C301.9,214.5 296.6,217.4 290.7,220.8L280,227.1L263,216.8L246,206.6L246,196L246,185.4L249,183.6C253.6,180.9 257.2,174.9 257.2,169.8C257.3,164 255.4,160.2 250.3,156.5L246.1,153.5L246.1,131.8C246,119.9 246.3,109.9 246.8,109.7C247.5,109.2 267.3,120.3 270.4,122.9C271.7,124 272,127.3 272.2,141.3L272.5,158.4L294.5,171.2C332,193.1 334,194.3 334,194.9C334,195.3 331.4,197.1 328.2,198.9C320.7,203.4 317.9,206.5 318.9,209.3C319.4,210.6 320.5,211.4 321.4,211.2C325,210.6 331.8,207.1 334.5,204.6C336,203.2 337.8,202.1 338.4,202.2C339.7,202.5 348,197.9 348,197C348,196.6 348.6,196.3 349.2,196.3C350.2,196.3 377.2,180.9 387.2,174.6C388.5,173.8 390,174.1 393.6,175.8C400.7,179.3 405.8,179.6 411.6,177.1C414.2,175.9 417.3,174.2 418.4,173.2C423,169.1 426.9,155.3 424,153.5C423.4,153.2 423,152.3 423,151.5C423,150.8 421.8,148.3 420.3,146C414.1,136.6 400.6,134.6 391.3,141.6L388,144.1L378.3,138.2C372.9,135 365.8,130.9 362.5,129C359.2,127.2 349.1,121.3 340,116C330.9,110.6 310.4,98.7 294.5,89.5C278.6,80.3 264.8,72.1 263.9,71.3C262.8,70.4 262.3,68.3 262.3,64.7C262.3,52.9 253.4,44 241.5,44C229.4,44 221.1,52.6 221,65L221,70.6L211.2,76.3C205.9,79.5 174.9,97.6 142.5,116.6C110,135.5 82.8,151.5 82,152C80,153.2 81.8,156.2 85.3,157.4C87.5,158.2 91.1,156.4 114.2,143C196.2,95.3 220.7,81.1 222.9,80C224.9,79 225.6,79.1 227.9,80.7C229.3,81.8 232,83.4 233.8,84.4L237,86.1L237,119.8L236.9,153.5L233.8,155.5C229,158.6 226.6,162.5 226,168.3C225.4,174.9 227.9,180 233.2,183L237,185.1L237,196L237,206.9L233.8,208.6C232,209.6 224.6,213.8 217.4,218.2C210.1,222.5 203.5,226 202.7,226C201.9,226 195.8,222.9 189.4,219C182.9,215.2 177.1,212 176.4,212C174.4,212 171.8,215.8 172.4,217.7C172.8,218.7 178.8,222.9 185.8,227L198.5,234.6L198.5,253.9L198.5,273.3L187.8,279.9C171.9,289.6 170.7,291 176,293.7C178.6,295 180.2,294.2 195.8,284.8zM134.2,282.4C131.6,280.6 131.2,274.9 133.5,273C137.1,270 144,272.9 144,277.5C144,279.9 140.2,284 137.9,284C137.1,284 135.4,283.3 134.2,282.4zM341.3,281.8C337.5,277.6 337.5,275.4 341.4,273.1C345.5,270.5 349.1,271.4 351.3,275.6C352.6,278.1 352.5,278.5 350.2,281.2C347.2,284.6 344.1,284.8 341.3,281.8zM156,237.9C158.7,237.3 161,236.5 161,236.1C161,233.9 130.5,231 106.2,231L96,231L96,233.5C96,234.9 96.6,236.3 97.2,236.5C97.9,236.7 109.1,237.3 122,237.8C134.9,238.3 146.7,238.8 148.2,238.8C149.7,238.9 153.2,238.5 156,237.9zM367.5,237.2C385.1,236.5 385.5,236.4 385.8,234.3C386.3,231.2 383.3,230.7 369.7,231.4C363.6,231.7 353.8,232.2 348,232.4C335.8,232.9 322.8,234.9 323.6,236.1C323.9,236.6 325.6,237 327.3,237C329.1,237 331.1,237.4 331.9,237.9C332.7,238.4 337,238.6 341.4,238.3C345.9,238.1 357.6,237.5 367.5,237.2zM162.8,223.9C162.5,221.7 161.4,221.2 130,208.4C120.9,204.7 106.1,198.6 97.1,194.9C79.1,187.3 76,186.6 76,190.4C76,192.4 77,193.2 82.2,195.3C85.7,196.8 102.7,203.7 120,210.9C159.2,227.1 163.5,228.4 162.8,223.9zM327.8,223.9C334.8,221.7 337,220.9 346,216.7C349,215.3 354,213.4 357,212.6C360,211.8 372.1,207.2 383.7,202.3C402,194.8 405.1,193.2 405.9,190.9C406.7,188.5 406.6,188.4 403.6,188.5C400.1,188.7 359,205.4 357.9,207.1C357.5,207.8 356.6,207.9 355.9,207.5C355.1,207 354.8,207 355.2,207.5C356.1,208.5 348.7,212 344.6,212.5C343,212.7 341.4,213.4 341,214C340.6,214.6 339.9,215 339.4,214.9C337.3,214.5 335.9,215.1 336.5,216C336.8,216.6 336,217 334.6,217C333.2,217 331.8,217.4 331.5,218C331.2,218.6 330,219 329,219C328,219 327,219.3 326.8,219.8C326.6,220.2 325.2,221.2 323.6,222C321,223.3 318.9,226 320.5,226C320.8,226 324.1,225.1 327.8,223.9zM157.2,187.2C179.9,174 206.2,158.2 208.5,156.5C210.8,154.6 211,153.7 211.6,143.5L212.3,132.5L216.7,128.4C220.5,124.9 221,123.8 221,120.1C221,112.3 216.2,107 209,107C201.8,107 197,112.1 197,119.6C197,123.7 197.5,124.7 201.2,128.4L205.5,132.5L205.2,142C205,147.2 204.5,151.9 204.1,152.3C203.7,152.7 197.7,156.4 190.9,160.4C141.9,189.2 142.2,188.9 143.4,190.9C144.8,193.1 149,191.9 157.2,187.2zM333,186.9C329.4,184.8 315.6,176.6 302.2,168.8L278,154.6L278,137.8C278,122.1 277.9,120.9 276,119.2C274.9,118.3 267.8,113.9 260.2,109.4L246.5,101.4L246.2,93.7L245.9,86.1L249.8,84.1C251.9,83 254.2,81.4 254.9,80.6C255.7,79.7 256.9,79 257.7,79C258.5,79 266,83 274.3,87.9C282.7,92.8 299.9,102.7 312.5,110C351.5,132.6 381.5,150.1 382.3,150.9C382.7,151.3 383.2,155 383.4,159.1L383.7,166.6L377.4,170.3C374,172.3 370.6,174 369.9,174C369.2,174 357.3,167.4 343.3,159.3C322.1,147 318,144.3 318,142.4C318,136.5 313.7,130.6 308.3,129.1C297.8,126.2 289.4,137.1 294.5,147C297.4,152.6 306.2,154.8 312,151.3L314.8,149.7L337.1,162.6C349.3,169.7 360.2,176.2 361.3,177C363.1,178.5 362.6,178.9 352.6,184.8C346.8,188.2 341.5,191 340.8,191C340.1,190.9 336.6,189.1 333,186.9zM123,173.8C124.9,173.2 135.6,167.3 146.8,160.7C166.8,148.9 167.3,148.7 170.4,150C178.7,153.4 185.7,151.3 188.6,144.3C190.6,139.5 189.7,134.9 186,131.1C178.4,123.6 166.3,127.9 165,138.6L164.5,143.2L143,155.9C122.5,168 116,172.4 116,174.2C116,175.3 119.1,175.2 123,173.8zM301,145C299.9,143.9 299,142.1 299,141C299,138.3 302.5,135 305.3,135C310.3,135 312.9,142 309.2,145.3C306.7,147.6 303.4,147.4 301,145zM174,144.2C169.7,140.7 171.7,134 177.1,134C182.7,134 185.3,141.3 180.8,144.4C177.9,146.4 176.7,146.4 174,144.2zM204.7,123.2C200.5,118.6 204.3,113.1 211,114C213,114.2 215,116.9 215,119.5C215,124.3 208,126.8 204.7,123.2z"/>
</svg>
