<svg xmlns="http://www.w3.org/2000/svg" viewBox="0 0 1024 1024" role="img" aria-label="Zümm — emblème monochrome">
  <!-- Master vectoriel Zümm : emblème monochrome. Trace potrace depuis zumm-icon-mono.png (nettoye).
       fill="currentColor" : herite la couleur du contexte (ardoise #2C4A42 par defaut, clair sur fond sombre). -->
  <path fill="currentColor" fill-rule="evenodd" d="M507.9,741.2C506.4,741 502.8,739.5 499.9,737.7C492.5,733.3 488.7,727 488.4,718.7L488.2,712.5L463.8,697.6C427,675.2 393.5,654.9 373.2,642.8L355,631.9L351.7,634.4C349.9,635.8 346.1,637.5 343.3,638.1C320.6,643.4 304.7,617.1 320.1,599.6C322.2,597.3 325.7,594.5 327.9,593.5L332,591.7L332,550.9L332,510.2L326.2,507C313,499.5 302.7,484.4 297.7,465.3C295.4,456.7 295.2,456.4 288.1,449.5C272.4,434.4 264,415.9 261.5,391C260.7,383 262.4,368.5 264.5,365.3C267.3,361 270.7,362.2 291.3,374.3C301.9,380.5 316.5,389.1 323.8,393.4L337,401.1L367.8,382.7C384.7,372.6 408.6,358.3 421,351C433.4,343.7 453.7,331.6 466.2,324.1L489,310.6L489,306C489,298.1 490.8,293.9 496.4,288.4C506,279.1 518.6,278.9 528.3,287.9C532.6,291.9 534.3,295.8 534.9,303.4L535.5,310.4L560,325C573.5,333.1 603.5,351 626.7,364.9L668.9,390.1L672.7,387.6C681.9,381.6 695.3,382.3 702.6,389.1C704.6,391 704.7,391 727.1,377.9C757,360.4 754.6,361.5 757.5,363.4C760.9,365.6 762.2,371.6 762.3,384.5C762.4,400 759.4,413.1 752.4,427.3C747.9,436.5 746,439 735.8,449.7C729.5,456.3 727,459.5 727,461.4C727,465.7 722.2,479.2 718.5,485.5C712.7,495 708.4,499.6 699.9,505.2L692,510.5L692,551.1L692,591.8L695.2,592.9C707.7,597.3 713.6,612.8 707.6,625.5C704.7,631.9 700.4,635.5 693.3,637.6C686.2,639.7 680.3,638.9 673.4,635L668.2,632.1L658.4,638.2C648.7,644.2 582.8,684.1 551.6,703L535.7,712.5L535.5,718.5C535.1,733.1 522.8,743.2 507.9,741.2zM496.4,700.1C497.3,699.1 499.8,697.5 502,696.5L506,694.7L506,658L506,621.3L502.2,618.7C497.8,615.8 494.9,610.6 494.2,604.3C493.7,599.4 494.6,600 455.3,576.5L434,563.9L423,570.5C417,574.1 412,577.4 412,577.8C412,578.2 420.7,583.6 431.3,589.9C474.6,615.6 479.8,619 480.9,622.2C481.5,623.9 482.5,629.4 483.1,634.4C484.6,647.3 484.6,647.3 488,649.4C494.8,653.3 496.9,661.9 492.9,669C490.2,673.7 486.3,676 480.8,676C466.9,676 461.7,658.6 473.1,649.7L476.2,647.3L474.6,636.5C473.7,630.6 472.7,625.4 472.4,624.9C472.1,624.4 458.5,616 442.2,606.4C425.9,596.7 410.3,587.5 407.7,585.9L402.9,583L392.9,589.1C383,595.2 383,595.2 385.2,596.9C386.5,597.9 398.4,605.3 411.8,613.4L436.1,628.2L439.5,626.6C449.6,621.8 460.4,628.2 460.4,639C460.4,647.9 454.3,653.4 445.2,652.7C440.7,652.4 439.3,651.8 436.3,648.8C433.4,645.9 432.6,644.2 432.3,640.3L431.8,635.5L403.1,618.2C387.4,608.7 374.2,601 373.8,601C373.4,601 370.5,602.6 367.4,604.5L361.6,607.9L361.6,614.9L361.5,621.9L370.5,627.2C383.1,634.6 463.7,683.5 480,693.6C487.4,698.2 493.8,702 494.1,702C494.4,702 495.4,701.2 496.4,700.1zM555.7,686.8C580.1,671.9 646.3,631.8 657,625.5L662.5,622.2L662.5,614.9L662.5,607.6L657,604.3C654,602.5 650.8,601 650,601C649.2,601 635.9,608.8 620.5,618.3L592.5,635.6L591.8,640.3C590.7,648.4 585.7,653 578,653C569.8,653 563.7,647.3 563.7,639.7C563.7,631 569.6,625 578,625C580.6,625 583.6,625.7 584.8,626.6C586.1,627.5 587.9,627.9 588.8,627.5C592.9,626 640.9,595.6 640.4,594.9C639.7,593.7 622.8,583.7 621.6,583.7C620.4,583.7 571.8,613 559.5,621.2L551.5,626.5L549.7,636.9L547.9,647.4L551.4,650.6C557.4,656.1 558.7,663.4 554.9,669.7C552.3,673.9 548.3,676 543,676C537.7,676 533.7,673.7 531.1,669C527.2,662 529.1,655.1 536.3,649.6C539.6,647.1 539.8,646.5 540.9,637.7C542.8,622.5 543.3,621.5 549.8,617.4C558.2,612 608.1,581.5 610.9,580C613.9,578.5 613.6,578.2 600.3,570.1L590,563.8L565.8,578.4C529.4,600.2 530.6,599.2 529.5,606.1C528.8,610.8 525.3,615.9 521.3,618.5L518.1,620.5L518,657.6L518,694.7L521.8,696.4C523.8,697.3 526.6,699 528,700C529.4,701.1 530.6,702 530.7,702C530.9,702 542.1,695.2 555.7,686.8zM484.2,665.3C488.3,661.6 484.5,654.7 479.2,656.6C477.7,657.1 476.4,658.4 476.2,659.3C475.6,662.3 476.9,665.8 478.8,666.3C481.8,667.1 482.3,667 484.2,665.3zM546.1,666C548.5,664.7 548.6,660.3 546.3,657.8C544.3,655.6 542.2,655.5 539.8,657.7C537.6,659.7 537.5,662.8 539.7,665.2C541.5,667.2 543.3,667.5 546.1,666zM450.6,641.5C452.1,639.2 452.1,638.8 450.6,636.5C447.7,632.1 441,633.6 441,638.6C441,643.9 447.7,645.9 450.6,641.5zM581.8,642.8C582.5,642.1 583,640.4 583,639C583,635.7 581.3,634 578.1,634C575.5,634 572,636.5 572,638.4C572,639 572.7,640.6 573.6,641.8C575.3,644.2 579.8,644.8 581.8,642.8zM362.6,593.8C369.1,589.8 369.2,589.6 368.6,586.1C368.3,584.1 368,567.4 368,549L368,515.5L355.5,515.4L343,515.3L343,553.6L343,591.8L345.9,592.5C347.5,592.8 350.2,594.2 352.1,595.6C353.9,596.9 355.5,598 355.7,598C355.9,598 359,596.1 362.6,593.8zM680.3,570.5C680.7,558.9 680.7,541.5 680.3,531.8L679.7,514.3L675.6,515.2C673.3,515.7 668,516 663.8,515.8L656,515.5L656,533.1C656,542.8 655.7,559.4 655.3,570.1L654.7,589.5L661.6,593.6L668.4,597.7L674.1,594.6L679.7,591.6L680.3,570.5zM502.5,586.8L506,584.5L506,573.9C506,566.6 505.6,562.9 504.8,562.2C502.9,560.8 471.9,542 471.3,542C469.8,542 447,556.5 447.3,557.3C447.5,558 497.6,588.8 498.8,589C498.9,589 500.6,588 502.5,586.8zM548.8,575.2C561.3,567.5 573,560.5 574.8,559.6C576.6,558.7 577.8,557.5 577.5,557C577.2,556.4 571.4,552.8 564.8,548.9C553.9,542.4 552.5,541.9 550.6,543C549.4,543.8 544.5,546.8 539.5,549.8C534.5,552.8 527.7,557 524.2,559.2L518,563.2L518,574L518,584.8L521.2,586.9C523,588 524.9,589 525.3,589C525.7,589 536.3,582.8 548.8,575.2zM389.7,577.2L396,573.5L396,562.6L396,551.7L392.1,548.3C385.1,542.4 384.3,534.1 390.1,527.5C398.4,518 413.3,522.8 414.7,535.4C415.4,541 413,546.3 408.6,549.2L405,551.5L405,559.2C405,563.5 405.3,567 405.6,567C405.9,567 410.9,564.2 416.6,560.8L427,554.5L427,528.8C427,514.6 426.7,503 426.4,503C426,503 421.9,503.9 417.1,504.9C412.4,506 401.4,508.3 392.8,510.1L377,513.3L377,549.3L377,585.2L380.2,583.1C382,581.9 386.3,579.3 389.7,577.2zM646.3,513.9C645.3,513 597.1,503.3 596.5,503.9C596.2,504.1 596,515.4 596,529L596,553.7L606.9,560.3C612.9,564 618.1,567 618.4,567C618.7,567 619,563.4 619,559.1C619,551.2 619,551.2 615.7,549.2C609.4,545.6 607.3,537.2 610.9,530.2C613.3,525.5 617.6,523 623.2,523C637,523 642.4,540.9 631,549L627.9,551.2L628.2,562.2L628.5,573.3L637.5,578.9L646.5,584.6L646.8,549.6C646.9,530.4 646.7,514.3 646.3,513.9zM532.5,540.8L546.5,532.3L546.5,511L546.5,489.7L529.6,479.3C520.4,473.7 512.6,469 512.5,469C511.9,469 488.3,483.4 482.8,487.2L477,491.1L477,511.3L477,531.6L494.7,542.3L512.3,552.9L515.4,551.1C517.1,550 524.8,545.4 532.5,540.8zM452.4,539.4L465,531.9L465,511.2L465,490.5L459.2,487.1C456.1,485.2 450.2,481.8 446.2,479.4L439,475L439,511C439,530.8 439.2,547 439.4,547C439.7,547 445.5,543.6 452.4,539.4zM584.7,510.9C584.8,491.1 584.5,475 584.1,475.2C583.7,475.4 577.9,478.9 571.2,483L559.1,490.5L559,511.2L559,531.9L571.2,539.4C578,543.5 583.7,546.9 584,546.9C584.3,547 584.6,530.8 584.7,510.9zM404.4,540.4C405.3,539.6 406,538.2 406,537.4C406,531.9 399.4,529.9 396.4,534.5C394.9,536.8 394.9,537.2 396.4,539.5C398.3,542.4 402,542.8 404.4,540.4zM626.8,540.8C627.5,540.1 628,538.4 628,537C628,535.6 627.5,533.9 626.8,533.2C626.1,532.5 624.4,532 623,532C621.6,532 619.9,532.5 619.2,533.2C618.5,533.9 618,535.6 618,537C618,538.4 618.5,540.1 619.2,540.8C619.9,541.5 621.6,542 623,542C624.4,542 626.1,541.5 626.8,540.8zM388.4,499.6C398.3,497.6 406.5,495.8 406.7,495.6C406.9,495.4 396.6,495 383.8,494.6C371,494.2 359.3,493.7 357.8,493.4C354.5,492.7 353.2,489.4 355.3,487.3C356.9,485.6 362.1,485.5 392.5,486.5C404.6,486.8 407.4,486.7 404,485.9C401.5,485.4 390.1,482.9 378.5,480.4C346.4,473.5 318.9,466.9 314.7,465.3C312.6,464.4 310.7,464 310.4,464.2C309.6,465 314,475.9 317.6,482C323.6,492.2 335.2,500.5 347.1,503C354.6,504.6 369.6,503.3 388.4,499.6zM678.9,502.5C695.5,498.1 707.3,486.3 712.4,469.2C713.2,466.4 713.5,464 713.1,464C712.6,464 710.5,464.6 708.3,465.4C701.2,467.9 680.7,472.7 641.5,481C614.3,486.8 613.8,487 625.5,486.5C661.9,484.9 667.1,484.8 668.5,486C670.3,487.5 670.4,490.4 668.7,491.8C668,492.4 656.1,493.5 641,494.2L614.5,495.6L633.5,499.2C644,501.3 653.4,503.1 654.5,503.3C659.2,504.3 673.9,503.9 678.9,502.5zM488.6,469.7L505.5,459.5L505.5,448.1L505.5,436.8L502,434.8L498.5,432.8L472.2,448.4C457.8,457 446,464.4 446,464.8C446,465.6 469,479.7 470.6,479.9C471.2,479.9 479.3,475.4 488.6,469.7zM566.2,472.4C573.3,468.2 578.9,464.6 578.8,464.5C578,463.8 527.8,433.8 526.6,433.4C525.8,433.1 523.6,433.9 521.6,435.2L518,437.5L518,448.1L518,458.7L535.2,469.2C544.7,475 552.7,479.8 552.9,479.9C553.2,479.9 559.2,476.6 566.2,472.4zM408.9,475.6C408.7,475.4 398.8,471.4 387,466.7C362.8,457 344.5,449.4 338.5,446.5C334.2,444.3 332.9,441.2 335.4,439.1C337.3,437.5 342.2,439 359,446.2C372.8,452.2 425.8,473 427.1,473C427.6,473 428,471.9 428,470.6C428,468.6 425.8,467 413.8,460C397.1,450.4 397.3,450.5 355,425.7C337.1,415.3 321.1,405.9 319.5,405C317.9,404 311.3,400.2 305,396.5C298.7,392.8 289.9,387.7 285.6,385.3C281.3,382.8 276.6,380.2 275.3,379.3L273,377.8L273,384.6C273,416.2 291.2,444.3 318,454.3C321.6,455.7 339.4,460.2 357.5,464.3C375.6,468.4 394.3,472.7 399,473.8C408.2,475.9 409.6,476.2 408.9,475.6zM645.7,469C693.6,458.7 703,456.2 712.5,451.6C727.4,444.2 738.5,432 745,415.6C749.7,404 751.8,391.3 751.1,379.2C751,377.7 748.5,379 724.3,393.2C710.3,401.5 709.1,402.4 709.6,404.6C711.3,411.4 704.9,423 697.1,426.9C689.7,430.7 684.6,430.4 673.4,425.9C670.3,424.7 669.6,425 633.1,446.5C601.2,465.3 596,468.7 596,470.7C596,472 596.4,473 597,473C598.4,473 629.1,461.1 647.7,453.4C683.7,438.4 686,437.5 687.8,438.6C690,440 690.5,443.3 688.8,444.8C688.1,445.3 681,448.5 673,451.8C636.3,467.1 617.7,475.1 620.2,474.5C621.8,474.2 633.2,471.7 645.7,469zM450,448C456.9,444 469.6,436.5 478.2,431.2C493.8,421.8 494,421.7 494,418.2C494,412.9 497.6,406.3 502.1,403.3L506,400.7L506,364.5L506,328.2L503.2,327.1C501.7,326.5 499.2,324.9 497.6,323.7L494.7,321.4L473.6,333.8C462,340.6 443.5,351.5 432.5,358C421.5,364.4 399.7,377.5 384,387C368.3,396.5 354.3,405 352.8,405.9C351.2,406.8 350,407.8 350,408.2C350,409 373.1,422.3 374.5,422.3C375.1,422.3 387.7,415 402.7,406.1C420.7,395.3 429.7,389.4 429.4,388.5C428.3,385.8 431.1,379.2 434.4,376.2C439,372.2 443.8,371.4 449.4,373.9C455.2,376.4 457.5,380 457.5,386.6C457.5,392.7 455.2,396.5 449.9,399.3C446.1,401.3 439.6,401 435.7,398.7C433.6,397.4 431.9,398.3 408.8,412.3C395.1,420.6 384,427.7 384,428.1C384,428.5 388.7,431.5 394.4,434.8L404.9,440.8L421.2,431.2C430.2,425.8 445.2,416.8 454.6,411.1L471.8,400.7L472.5,389.7C473.1,380.1 473,378.6 471.6,377.8C458.2,370.3 464.2,348.3 479.2,350.3C489.4,351.7 494.7,361.4 490.4,370.6C488.8,373.9 485.3,377.4 482.7,378.3C481.9,378.5 481.3,382.8 480.9,391.4C480.4,402.1 480,404.4 478.4,406C477.4,407 462.6,416.2 445.5,426.4C428.4,436.7 414.5,445.5 414.5,446C414.5,446.6 418.8,449.5 424,452.5C432.4,457.3 433.7,457.8 435.5,456.6C436.6,455.9 443.1,452 450,448zM601,451.8C605.9,448.9 609.6,446.2 609.2,445.9C608.8,445.5 594.8,437 578,427.1C561.2,417.1 546.7,408 545.8,406.9C544.2,405.1 544,402.6 544,389C544,380.3 543.6,372.1 543.1,370.8C542.6,369.4 538.5,366.2 532.4,362.6C526.9,359.4 521.5,356 520.2,355.2L518,353.8L518,377.7L518,401.5L521.5,403.4C525.9,405.8 528.8,410.4 529.6,416.4C530,418.9 530.9,421.5 531.7,422.1C534.6,424.6 589.6,457 590.8,457C591.5,457 596.1,454.6 601,451.8zM630.8,434.2L641.1,428.2L636.3,425.3C633.7,423.6 622.4,416.8 611.2,410.1L591,398L587,400C576.7,405.3 565.7,399 565.8,387.9C565.9,379.3 572.5,373.4 581.2,374.2C587.6,374.9 591.7,378.7 593.5,385.6L594.7,390.5L622,406.8L649.2,423.1L656.3,419.1C660.8,416.7 663.5,414.6 663.4,413.6C663.4,412.7 663.3,409.3 663.2,406.1L663,400.2L654.8,395.2C629,379.8 574.6,347.6 556.5,337C545,330.2 534.3,323.9 532.9,322.9C530.3,321 530.2,321.1 526.5,324C524.4,325.7 521.6,327.3 520.3,327.6C518.1,328.2 518,328.7 518,336L518,343.7L533.6,353.1C542.2,358.3 549.6,363.3 550.2,364.4C550.7,365.4 551.4,374.1 551.7,383.7L552.3,401.1L557.9,404.9C562.9,408.3 599.2,430 613,437.9C616,439.6 619,440.8 619.5,440.6C620,440.4 625.1,437.5 630.8,434.2zM583.1,392C586,390.4 585.6,385.5 582.5,383.4C580.2,381.9 579.8,381.9 577.5,383.4C574.6,385.3 574.2,389 576.6,391.4C578.4,393.3 580.4,393.4 583.1,392zM446.8,390.4C449.4,388.6 449.6,385.4 447.3,382.8C445.3,380.6 442.2,380.5 439.8,382.7C437.4,384.8 437.5,387.5 440,390C442.4,392.4 443.8,392.5 446.8,390.4zM480.8,368.4C484.7,365.7 482.7,359 477.9,359C475.6,359 472,362.4 472,364.5C472,366.3 475.5,370 477.3,370C478,370 479.6,369.3 480.8,368.4z"/>
</svg>
