<svg xmlns="http://www.w3.org/2000/svg" viewBox="0 0 628 628" role="img" aria-label="Zümm — logo (fond sombre)">
  <!-- Master vectoriel Zümm (trace potrace 2 couches depuis zumm-logo.png).
       Variante claire pour fond sombre (token z-slate-900) : encre en blanc casse #FCFDFC,
       degrade signature conserve. -->
  <defs><linearGradient id="zg" x1="0" y1="0" x2="0.866" y2="0.5"><stop offset="0" stop-color="#D9A521"/><stop offset="0.45" stop-color="#D9A521"/><stop offset="0.75" stop-color="#2E9E3F"/><stop offset="1" stop-color="#2E9E3F"/></linearGradient></defs>
  <path fill="#FCFDFC" fill-rule="evenodd" d="M206.5,612C206.1,611.4 206.4,610.3 207,609.5C208.1,608.2 222.3,608 311,608C399.7,608 413.9,608.2 415,609.5C415.6,610.3 415.9,611.4 415.5,612C415.1,612.7 382.1,613 311,613C239.9,613 206.9,612.7 206.5,612zM199.3,583.9C185,581.1 175.8,571.3 173,555.8C172.4,552.8 172.1,538.4 172.2,522.9L172.5,495.5L180,495.5L187.5,495.5L188,524C188.5,550.9 188.7,552.8 190.8,557.5C193.7,563.8 195.6,565.9 200.5,568.1C208.8,571.9 221,570 227.1,563.9C233.4,557.6 234,554.2 234,524C234,504.6 234.3,497.1 235.2,496.2C235.9,495.5 239.2,495 243.1,495C248.3,495 249.9,495.4 250.4,496.6C250.7,497.5 251,516.7 251,539.4C251,570.1 250.7,580.9 249.8,581.8C249.1,582.5 246.1,583 243,583C236.4,583 235,581.9 235,576.7L235,572.8L231.5,575.9C222.9,583.4 211.3,586.3 199.3,583.9zM70.2,581.8C69.5,581.1 69,578 69,574.9L69,569.1L81.8,551.3C88.9,541.5 103.3,521.6 113.9,507C124.6,492.4 133.5,479.9 133.7,479.3C134.1,478.3 127.2,478 102.9,477.8L71.5,477.5L71.2,471.1C71,466.6 71.3,464.4 72.2,463.9C74.2,462.6 151.7,462.8 154.1,464C155.6,464.9 156,466.2 156,470.8C156,476.1 155.6,477.1 151.3,483C124.5,519.7 91,566.4 91,567.1C91,567.6 104.9,568 122.8,568C140.2,568 155.1,568.4 155.9,568.9C157.7,570 158.5,578.2 157.1,580.9C155.9,583 155.9,583 113.7,583C82.1,583 71.1,582.7 70.2,581.8zM274,581.1C272.5,578.1 272.6,497.8 274.2,496.2C274.9,495.5 278.1,495 281.6,495C288.2,495 289,495.6 289,500.6C289,503.6 290.1,503.6 292.9,500.6C297.2,496 304.6,493.5 314,493.5C324.5,493.5 330.4,495.9 336.7,502.7L341,507.3L346,502.6C353.6,495.4 358.7,493.5 369.5,493.5C376.8,493.5 379.5,494 383.7,495.9C390.4,498.9 396.1,505.1 399.1,512.6C401.3,518.3 401.4,519.8 401.8,549.3C402.1,572.2 401.8,580.5 401,581.6C399.4,583.4 388.7,583.5 387.2,581.7C386.5,580.9 386,569.7 385.8,551C385.5,522.8 385.4,521.3 383.3,517.3C379,509.3 371.5,505.9 362.3,507.8C355.5,509.2 352.5,511.3 349.2,516.9L346.5,521.5L346.2,551C346,569.9 345.5,580.9 344.8,581.7C344.2,582.5 341.4,583 337.4,583C332.2,583 330.9,582.7 330,581.1C329.4,579.9 329,568.4 329,550.8C329,525.4 328.8,522.1 327.1,518.5C320.6,504.4 301.2,503.4 293.3,516.7L290.5,521.5L290,551C289.7,567.2 289.1,581.1 288.7,581.8C288.2,582.5 285.5,583 281.5,583C276.2,583 274.9,582.7 274,581.1zM424,581.1C422.5,578.1 422.6,497.8 424.2,496.2C424.9,495.5 428.1,495 431.6,495C438.2,495 439,495.6 439,500.6C439,501.9 439.2,503 439.5,503C439.8,503 442,501.4 444.6,499.5C450.8,494.7 458.6,492.6 467.1,493.3C475.5,494 481.8,497 487,502.7L491.2,507.1L496.1,502.5C503.7,495.4 508.6,493.5 520,493.6C527.9,493.6 530.3,494 534.3,495.9C541.4,499.4 547.6,506.9 550,514.9C551.9,521 552,523.9 551.8,552L551.5,582.5L545.2,582.8C541.5,583 538.3,582.6 537.5,582C536.4,581.1 536.1,574.5 535.8,551.2C535.5,521.7 535.5,521.5 533,517C524.8,502.3 503.1,504.6 497.6,520.8C496.3,524.5 496,530.6 496,553C496,573.1 495.7,580.9 494.8,581.8C493.6,583 484.4,583.5 481.6,582.4C480.2,581.9 480,578.7 480,557.1C480,543.6 479.5,529.4 478.9,525.5C477.2,513.1 471.6,507.7 460.5,507.6C452.5,507.5 447.5,510.1 443.5,516.5L440.5,521.3L440,550.9C439.7,567.2 439.1,581.1 438.7,581.8C438.2,582.5 435.5,583 431.5,583C426.2,583 424.9,582.7 424,581.1zM191.4,480.3C187.5,479.6 185.5,476.2 185.5,470.8C185.5,464.4 188.1,462 195,462C199.1,462 200.2,462.4 201.9,464.6C206.1,469.9 204,478.4 198.1,480C196.1,480.5 194.3,480.9 194,480.9C193.7,480.8 192.5,480.5 191.4,480.3zM224.2,479.9C219.6,478.5 217.3,473.3 218.9,467.8C220.3,463.3 222.4,462 228.3,462C231.6,462 233.2,462.6 234.8,464.3C239.1,468.9 236.8,480 231.6,480C230.8,480 229.6,480.2 228.8,480.4C228.1,480.6 226,480.4 224.2,479.9zM297.4,437.1C289.7,433.6 284.5,424.6 285.2,416.1L285.5,412.5L269,402.6C259.9,397.2 232.5,381 208,366.7C183.5,352.4 162.8,340.3 162,339.7C160.9,339.1 159,339.7 155.2,342.1C141.7,350.5 124.5,342.2 123.2,326.6C122.4,317.2 126.9,309.2 135.2,304.9L139,303L139,265.5L139,228.1L133.2,224.1C120.6,215.6 110.4,200.3 107.8,186C106.6,179.8 106.3,179.4 97.4,170.6C89.6,162.8 87.6,160.1 83.7,152C76.4,136.9 74.5,129 74.5,113C74.5,101.7 74.8,99 76.3,96.7C78.6,93.1 80.3,93.3 87.5,97.6C105.1,108.3 141.1,129 142,129C142.6,129 160.5,118.8 181.8,106.3C203.1,93.9 225.7,80.7 232,77C272.2,53.8 282.6,47.6 283.8,46.8C284.5,46.2 285,43.5 285,40.6C285.1,21.4 307.2,11.9 320.6,25.4C325.1,29.8 327,34.7 327,41.8C327,45.7 327.3,46.2 331.2,48.6C335.1,50.9 369.6,70.9 427,104.3C439.4,111.4 450.2,117.8 451.1,118.3C452.3,119.1 453.6,118.6 456.5,116.4C463.7,110.9 477.3,112.1 483.3,118.8C485.1,120.8 485.4,120.7 508.1,107.3C520.7,99.9 531.8,94 532.8,94.2C535.7,94.8 537.3,100 537.8,110.2C538.5,125 535.4,138.3 527.7,153.5C524.5,159.7 521.5,163.6 514.4,170.6C506.1,179 505.2,180.2 504.5,184.6C503.6,191.1 499.6,201.3 495.9,207.2C492.2,212.9 481.1,223.5 476.4,225.8L473,227.4L473,265.6L473,303.8L475.8,304.8C477.4,305.3 480.3,307.2 482.3,308.9C492.6,318 490.5,335.8 478.5,342.8C475.2,344.7 473.3,345 467.4,344.8C460.7,344.5 459.5,344.1 453.5,339.6C452.7,339 448.8,340.7 441.9,344.7C428,352.7 359.2,393.1 341,403.9L326.6,412.5L326.9,417.1C327.8,432.4 311.5,443.5 297.4,437.1zM298.6,398.5L302,397.1L302,363.2L302,329.3L298.3,326.9C293.1,323.5 290.9,320 290.2,314.2L289.5,309.1L261.6,292.6L233.6,276.1L229.6,278.6C227.3,279.9 222.2,282.9 218.2,285.2C214.3,287.5 211,289.6 211,290C211,290.6 212.9,291.8 247.5,312.3C262.4,321 275.1,328.8 275.8,329.5C276.7,330.3 277.6,335.2 278.2,342.4C279.3,353.7 279.4,354.2 282.1,355.5C286.4,357.8 289,361.8 289,366.2C289,373.7 284,379 277,379C269.8,379 265,373.7 265,365.9C265,362.3 265.6,361.1 269.1,357.8L273.2,353.9L272.5,344.5C272.1,339.3 271.3,334.4 270.6,333.6C269.6,332.3 208.5,295.5 205.2,294.3C204,293.8 185.7,304.1 184.6,305.9C184.3,306.4 195.5,313.6 209.6,322L235.1,337.2L238.4,335.5C248.7,330 260.5,340.9 255.5,351.3C249.8,363.4 232,358.7 232,345.1C232,342.3 231.2,341.6 219.8,334.9C213,330.9 200.8,323.7 192.5,318.7L177.6,309.7L172.5,312.5C164.9,316.7 165,316.6 165,324.4L165,331.6L191.2,347C215.3,361.1 236.2,373.4 275,396.3L289.5,404.8L292.4,402.4C293.9,401 296.8,399.3 298.6,398.5zM345.5,391.4C357.6,384.2 381.7,369.9 399,359.8C416.3,349.6 434.3,339.1 438.9,336.4L447.2,331.5L447.3,324.1L447.4,316.7L440.9,313.2L434.5,309.7L406.8,326.1L379,342.5L379,346.7C379,354.6 370.9,360.5 363.5,358C350.4,353.7 353.2,334 367,334C368.7,334 371.5,334.7 373.1,335.6C376.1,337.1 376.3,337 385.3,331.7C390.4,328.8 402,321.9 411.2,316.6C420.5,311.2 428,306.5 428,306.1C428,305.2 410.6,295 409.1,295C408,295 355.1,325.5 344,332.5C340.6,334.7 340.5,334.9 339.5,344.1L338.4,353.5L342.3,357C345.7,360.1 346.3,361.3 346.7,365.7C347.2,370.4 347,371 343.9,374.4C335.8,383.1 322.8,378.3 322.8,366.6C322.8,361.3 325,357.7 329.1,356C332.4,354.6 332.5,354.3 333.9,341.1C334.5,335.9 335.5,331.1 336.2,330.4C337.6,329.2 393.2,296.5 398.8,293.6C400.6,292.6 402,291.4 401.7,290.7C401.3,289.3 381,277.1 378.9,277C378.1,277 365,284.2 349.9,293L322.5,309L321.9,314C321.1,319.7 317.5,325.2 312.9,327.5L310,329.1L310,362.9L310,396.8L314.4,398.9C316.8,400.1 319.5,402 320.5,403C321.5,404.1 322.6,404.9 322.9,404.8C323.2,404.6 333.4,398.6 345.5,391.4zM281.9,369.9C285,364.3 280.5,359.4 274.1,361.6C270.8,362.8 269.9,368.2 272.6,371.1C275.1,373.9 280,373.3 281.9,369.9zM339.9,369.9C343,364.3 337.8,358.5 332.2,361.2C328.8,362.9 328,368.2 330.6,371.1C333.1,373.9 338,373.3 339.9,369.9zM248.4,350.4C252,346.9 249.4,340 244.4,340C241.6,340 238,343.2 238,345.8C238,351 244.8,354 248.4,350.4zM371.4,350.4C374.9,347 372.2,340 367.3,340C364.4,340 361,343.3 361,346.2C361,351.1 367.9,354 371.4,350.4zM170.7,303.2C171.5,302.7 171.9,292.6 172.2,267.9L172.5,233.2L162,232.7C156.2,232.5 150.7,231.9 149.8,231.5C148.1,230.8 148,232.9 148,266.9L148,303L152.4,305.1C154.9,306.2 157.4,307.8 158.1,308.6C159.2,310 161.6,309 170.7,303.2zM462.7,304C463.7,304 464,296.8 464,267.4C464,232.9 463.9,230.8 462.2,231.5C461.3,232 455.8,232.5 450,232.6L439.5,233L439.6,236C439.6,237.6 439.7,253.3 439.8,270.8L440,302.5L446.2,306.1L452.4,309.7L456.9,306.9C459.4,305.3 462,304 462.7,304zM298.2,299.1L302,296.8L302,286.5L302,276.1L284.9,265.9C271.6,258 267.4,255.9 266.1,256.7C265.2,257.2 259.7,260.5 253.8,263.9C247.8,267.4 243,270.5 243,271C243,271.4 253.5,278 266.2,285.5C279,293.1 290.4,299.9 291.5,300.6C292.6,301.4 293.7,301.9 294,301.7C294.3,301.6 296.2,300.4 298.2,299.1zM333.7,292.6C342.4,287.5 353.9,280.7 359.2,277.6C364.6,274.5 369,271.6 369,271.2C369,270.8 363.3,267.2 356.5,263.1L344,255.8L327.3,265.7L310.5,275.6L310.3,286.1L310,296.5L313.8,299.2C315.8,300.6 317.6,301.9 317.7,301.9C317.9,302 325.1,297.8 333.7,292.6zM433,231.8C432.7,231.4 427.3,229.9 421,228.5C404.7,225 387.8,221.1 385.7,220.4C384.1,219.9 384,221.3 384.2,244.7L384.5,269.5L394.8,275.7C400.5,279.2 405.6,281.7 406.1,281.4C406.6,281.1 407,277.7 407,273.9C407,266.9 407,266.8 402.7,262.6C397.4,257.5 396.2,253.2 398.7,248.2C399.7,246.2 401.7,243.8 403.1,242.7C406.4,240.3 412.9,240.2 416.5,242.6C423.9,247.5 423.7,259.5 416,263.5L413,265.1L413,275.8L413,286.6L422.8,292.3L432.5,298L433,265.3C433.3,247.2 433.3,232.2 433,231.8zM190.1,291.8L199,286.6L199,276.3L199,266L194.5,261.7C190.4,257.8 190,256.9 190,252.7C190,249.3 190.6,247.4 192.5,245.1C200.1,236.1 214,241.1 214,252.9C214,258.2 212.2,261.3 207.9,263.5C205.1,265 205,265.2 205,273C205,277.3 205.3,281.1 205.8,281.3C206.2,281.6 211.3,279 217.2,275.6L227.9,269.5L228,245.2C228,226.5 227.7,221 226.8,221C226.1,221 214.8,223.3 201.8,226.2L178,231.5L178,258.1C178,285.8 178.6,297 180.2,297C180.7,297 185.2,294.7 190.1,291.8zM322.6,258.3C333.8,251.8 339.2,248 339.6,246.6C339.8,245.4 339.9,236.7 339.8,227.1L339.5,209.6L322.7,199.7L306,189.8L289.2,199.7L272.5,209.5L272.5,229L272.5,248.5L289,258.2C298.1,263.6 305.6,268 305.8,268C305.9,268 313.5,263.6 322.6,258.3zM250.8,256L263,248.5L262.8,229L262.5,209.5L250.5,202.3C243.9,198.3 238.2,195.1 237.8,195C237.3,195 237,210.6 237,229.6C237,248.6 237.4,264 237.8,263.8C238.2,263.6 244.1,260.1 250.8,256zM374.6,195.3C374.2,194.9 350.5,208.2 349.1,209.6C348.4,210.3 347.9,240.4 348.5,244.7C349.1,248.9 349.2,249 361.8,256.4L374.5,263.9L374.8,229.8C374.9,211 374.8,195.5 374.6,195.3zM206.2,257.3C208.4,255.3 208.6,250.7 206.4,248.6C202.9,245 196,247.6 196,252.6C196,257.8 202.4,260.8 206.2,257.3zM414.4,256.8C416.5,253.9 416.4,251.1 414.3,248.8C410.9,245 403.8,247.4 403.8,252.4C403.8,258.3 411.2,261.4 414.4,256.8zM170,224C173.6,223.4 185.1,221 195.5,218.7L214.5,214.5L203.5,213.8C197.4,213.4 185.3,212.7 176.5,212.3L160.5,211.5L160.5,209L160.5,206.5L175,206.6C183,206.7 194.4,207 200.4,207.4C206.5,207.8 211.2,207.8 210.9,207.5C210.6,207.2 191.9,202.9 169.4,197.9C146.9,192.9 125.7,187.7 122.2,186.4C118.8,185.1 116,184.4 116,184.9C116,187.5 120.6,198.3 123.6,202.8C132.4,216.2 144,222.8 162.5,224.9C163.1,224.9 166.4,224.5 170,224zM461.5,222.8C475.8,219.2 490,205.1 494.4,190.2C496.1,184.2 495.9,184.1 488.5,186.9C485.8,187.9 465.7,192.7 444,197.5C406.1,205.9 395.5,208.6 404.5,207.5C406.7,207.3 417.7,206.8 429,206.4C447.2,205.9 449.7,206 450.9,207.4C453.8,210.8 450.8,211.8 435.2,212.4C409.7,213.5 397.9,214.2 398.3,214.6C398.9,215.2 429.9,221.9 439.5,223.5C447.6,224.9 454.2,224.7 461.5,222.8zM283,192.8C291.5,187.8 299.3,183 300.2,182.2C301.7,180.9 302,179 302,170.9L302,161L298,158.5L293.9,155.9L282.2,162.8C275.8,166.6 264.1,173.4 256.2,177.9C248.4,182.4 242,186.5 242,186.8C242.1,187.4 265.8,201.8 267,201.9C267.2,202 274.4,197.9 283,192.8zM357.4,194.8C364,190.8 369.7,187.5 369.9,187.3C370.7,186.7 367,184.5 342.3,170L318.1,155.9L314,158.5L310,161L310,170.9C310,178.5 310.3,181 311.5,182C314,184.1 343.4,201.9 344.4,202C344.9,202 350.7,198.8 357.4,194.8zM213.9,198.5C213.3,198 165.9,178.2 152.3,172.9C146.7,170.7 141.6,168.3 141,167.5C139.4,165.6 140.4,163 142.7,163C143.7,163 151.9,166.1 161,169.9C170.1,173.6 184.9,179.7 194,183.4C203.1,187.1 214.2,191.7 218.7,193.6C223.2,195.5 227.1,197 227.5,197C227.8,197 228,195.1 227.8,192.9L227.5,188.8L201.5,173.8C187.2,165.5 155.1,146.9 130.1,132.3C103.2,116.7 84.1,106.1 83.2,106.5C82,106.9 81.8,108.5 82.3,115.3C83.8,133.8 90.5,150.8 100.9,162.2C112.7,175 121.4,178.8 156.2,186.4C170.1,189.5 188.2,193.5 196.5,195.4C211.3,198.8 214.8,199.4 213.9,198.5zM441.5,189.5C462.9,184.7 484,179.5 488.2,177.8C511.2,169 526.7,146.5 529.6,117.8C530.3,111 529.6,106 528.1,106C527.6,106 518.6,111 508.1,117.1L489,128.2L489,132.9C488.9,144.2 479.3,154 468.2,154C466.1,154 462.1,152.9 459.4,151.5C456.7,150.1 454.2,149 453.8,149C453.5,149 448.8,151.6 443.3,154.8C437.9,158 422.4,167.1 408.8,175L384,189.4L384,193.2C384,195.3 384.4,197 384.8,197C385.2,197 389.4,195.4 394,193.4C424.3,180.6 467.7,163 469.1,163C471.2,163 472.4,165.8 470.9,167.6C470.3,168.3 468.8,169.2 467.7,169.6C464.1,170.7 398.6,198.1 398,198.7C397.7,199 398.6,199 400,198.7C401.4,198.4 420.1,194.2 441.5,189.5zM249.1,172.3C258.1,167 271,159.5 277.7,155.6C289.4,148.8 290,148.3 290,145.3C290,139.6 292.9,134.2 297.6,130.9L302,127.9L302,95.2C302,77.2 301.6,62 301.2,61.4C300.8,60.8 299.5,60 298.2,59.6C297,59.2 294.6,57.7 292.9,56.3C289.8,53.7 289.8,53.7 286.7,55.5C284.9,56.5 276.8,61.2 268.5,66C252.7,75.2 220.6,93.8 178,118.5C164,126.6 152.1,133.6 151.7,134C151.2,134.5 153,136 155.7,137.6C158.3,139.1 163.8,142.3 167.8,144.7C171.8,147 175.5,149 176.1,149C176.6,149 188.7,142.1 203,133.8C227.3,119.5 229,118.3 229,115.7C229,110.4 232,105.9 236.7,103.8C240.7,102.1 241.6,102 245.3,103.2C252.7,105.5 255.9,113.2 252.5,120.4C249.6,126.5 242.5,128.6 235.6,125.3L232.1,123.7L207.6,138.1C194.1,146 183,152.7 183,153C183,153.8 203.1,165 204.5,165C206.1,165 268.2,128.2 269.2,126.6C269.6,126 270,121.5 270,116.6L270,107.8L265.9,104.1C262.5,101.1 261.7,99.7 261.4,96C260.8,90.6 262.3,87.4 266.9,84.3C273.6,79.8 282.2,82.8 284.9,90.7C286.9,96.2 284.9,101.5 279.7,104.9L276,107.3L276,116C276,131 277,129.6 258.1,140.9C249,146.3 234.6,154.7 226.3,159.6C217.9,164.5 211,168.7 211,169C211,169.6 231,181.7 232.1,181.9C232.5,182 240.1,177.7 249.1,172.3zM388.5,176.7C393.4,173.7 397.5,170.9 397.7,170.4C398,169.4 390.8,165 356.5,145C347.7,139.9 339.5,135.1 338.2,134.3C336.1,133 336,132.5 336,115.7L336,98.5L324.4,91.7C318.1,88 312.2,85 311.4,85C310.2,85 310,88.6 310,106.4L310,127.9L314,130.7C318.6,133.9 322,140.1 322,145.1C322,148.5 322.4,148.9 330.2,153.3C334.8,155.9 347.5,163.4 358.5,169.9C369.5,176.5 378.8,181.9 379.1,181.9C379.4,182 383.7,179.6 388.5,176.7zM416.4,160.4C421.7,157.3 426.2,154.4 426.5,154C426.8,153.5 425.8,152.3 424.3,151.2C422,149.6 398.4,135.8 383.4,127.3L379.3,125L374.4,127.1L369.4,129.2L364.9,127.3C356.2,123.4 354.5,113.6 361.5,107.2C364.3,104.6 365.8,104 369.5,104C375.9,104 381,108.6 381.7,115.2L382.2,119.8L392.4,125.6C397.9,128.8 409.6,135.6 418.4,140.7L434.2,150L441.4,145.7C446,142.9 448.3,140.9 448,139.9C447.8,139.1 447.6,135.7 447.6,132.4L447.7,126.3L437.6,120.5C432,117.3 421.1,110.9 413.2,106.3C405.4,101.7 394.8,95.5 389.7,92.6C384.7,89.7 367.6,79.9 351.7,70.7C335.9,61.5 322.8,54 322.5,54C322.2,54 320.1,55.3 317.8,57C315.6,58.6 313.1,60 312.5,60C310.6,60 310,62.4 310,69.1C310,73.4 310.5,75.4 311.8,76.6C312.7,77.5 319.8,81.9 327.5,86.5L341.5,94.7L341.8,112.2L342,129.6L372.8,147.7C389.7,157.6 404.3,165.8 405.2,165.9C406.1,166 411.2,163.5 416.4,160.4zM373.2,120.8C375.9,118.6 376.2,115.5 373.9,112.7C370.3,108.1 364,110.3 364,116.1C364,121.1 369.3,123.8 373.2,120.8zM245.5,119.6C246.6,118.8 247.3,117 247.3,115C247.3,109.7 241.2,106.9 237.6,110.6C232.5,115.6 239.7,123.9 245.5,119.6zM276.8,99.4C279.3,97.7 279.9,92.3 277.8,90.2C275.7,88.1 270.3,88.7 268.6,91.2C266.4,94.3 266.6,95.7 269.5,98.5C272.3,101.4 273.7,101.6 276.8,99.4z"/>
  <path fill="url(#zg)" fill-rule="evenodd" d="M368,382.2C368,381.3 373.5,377.4 385.5,369.7C390.4,366.5 394.4,363.5 394.3,363C394.1,362.5 394.8,362.4 395.7,362.7C396.7,363.1 397.1,362.9 396.7,362.3C396.3,361.7 396.8,361.3 397.8,361.4C398.7,361.4 399.4,360.9 399.2,360.2C399.1,359.4 399.4,359.1 399.9,359.4C400.4,359.8 401,359.6 401.2,359.1C401.3,358.6 402.2,358 403,357.8C403.8,357.6 404.8,357.1 405.2,356.6C405.5,356.1 415.1,350.3 426.5,343.6L447.2,331.5L447.3,324.1L447.4,316.7L440.9,313.2L434.5,309.7L425.8,314.9C421,317.7 416.4,320 415.5,320C414.7,320 413.7,320.7 413.4,321.5C413,322.3 412.4,322.7 411.9,322.4C411.4,322.1 411,322.4 411,323C411,323.6 410.5,323.8 410,323.5C409.4,323.2 408.7,323.6 408.4,324.4C408.1,325.3 407.3,325.7 406.8,325.4C406.3,325 404.5,325.7 402.9,326.9C401.4,328 399.8,329 399.4,329C399,329 394.7,331.3 389.9,334.1C380,339.7 375.4,340.3 384,334.8C397.6,326.1 400.7,324.2 403.8,322.6C405.7,321.6 406.8,320.5 406.4,319.8C406,319.2 406.1,319 406.7,319.3C407.3,319.7 408.1,319.3 408.4,318.4C408.7,317.6 409.4,317.2 410,317.5C410.5,317.8 411,317.6 411,317C411,316.4 411.4,316.2 412,316.5C412.6,316.8 413,316.6 413,316C413,315.4 413.4,315.2 414,315.5C414.6,315.8 415,315.7 415,315.1C415,314.6 417.9,312.5 421.5,310.5C425.1,308.5 428,306.6 428,306.2C428,305.1 410.7,295 408.9,295C408.1,295 406.5,295.7 405.4,296.5C404.2,297.3 403,297.6 402.6,297.3C402.3,297 402,297.2 402,297.9C402,298.6 401.6,298.8 401,298.5C400.4,298.2 400,298.4 400,298.9C400,299.5 399.3,300 398.4,300C397.5,300 392.1,302.5 386.5,305.5C380.8,308.5 375.9,311 375.5,311C373.9,311 376.7,308.6 383.6,304.1C387.7,301.5 390.7,299 390.3,298.6C389.8,298.2 390,297.9 390.5,298C392.7,298.5 394.1,297.9 393.4,296.8C393,296.1 393.1,296 393.8,296.4C394.5,296.8 395,296.6 395,296C395,295.4 395.4,295.2 396,295.5C396.6,295.8 397,295.6 397,294.9C397,294.2 397.3,293.9 397.6,294.3C398.5,295.1 402.3,291.3 401.7,290.2C401.3,289.7 396.6,286.7 391,283.5C380.7,277.4 379.4,275.8 382.8,272.7C385.2,270.5 386.5,270.9 396.5,276.8C401.3,279.6 405.7,281.7 406.1,281.4C407.5,280.6 407.2,266.6 405.8,265.1C404.7,264 404.8,263.9 405.9,264.5C406.9,265.1 407.1,264.9 406.6,264.1C406.1,263.4 405.2,263.1 404.4,263.4C403.6,263.7 403.1,263.6 403.3,263.2C403.6,262.2 399.4,256.9 398.8,257.6C398.5,257.8 398.5,256.9 398.8,255.4C399.1,253.5 398.9,252.9 398.1,253.4C397.5,253.8 397,253.5 397,252.6C397,251.8 397.5,250.8 398.1,250.5C398.6,250.1 399.5,248.7 400,247.5C401.3,244.1 404.8,242.2 410,241.9C414.9,241.6 419.5,243.4 418.4,245.2C418,245.8 418.1,246 418.8,245.6C421.5,244 421.9,253.4 419.3,258.4C418.2,260.6 418.1,261 419.2,260.4C419.9,260 420.2,260.1 419.7,260.6C419.2,261.1 418.5,261.5 418.2,261.5C417.8,261.5 416.5,262.4 415.2,263.5C413.2,265.3 413,266.3 413,276L413,286.6L422.8,292.3L432.5,298L433,265.9C433.5,236.9 433.7,233.6 435.2,232.6C439.2,230.1 439.5,232.4 439.8,268.3L440.2,302.5L446.3,306.1L452.4,309.7L456.9,306.9C459.4,305.3 462,304 462.7,304C463.7,304 464,297.5 464.1,271.8C464.2,254 464.3,238.4 464.5,237C464.9,231 466.9,228.8 471.2,229.8C472.9,230.1 473,232.7 473,267L473,303.8L475.8,304.8C477.4,305.3 480.3,307.2 482.3,308.9C492.6,318 490.5,335.8 478.5,342.8C475.2,344.7 473.3,345 467.4,344.8C460.7,344.5 459.5,344.1 453.5,339.6C452.3,338.7 447.4,341.3 420,357.5C413.7,361.2 407.9,364.3 407.2,364.3C406.6,364.3 406,364.6 406,365C406,365.4 405.4,365.7 404.7,365.7C404,365.7 398.9,368.2 393.4,371.2C376,380.9 368,384.4 368,382.2zM137.8,344.6C128.9,341.4 123.9,335.2 123.2,326.6C122.4,317.2 126.9,309.1 135.2,304.9L139,303L139,266C139,230.1 139.1,229 140.9,229C142,229 144,229.4 145.4,230L148,231L148,267L148,303.1L151.2,304.5C153,305.2 155.7,306.7 157.1,307.8L159.6,309.9L165.8,306.2L172,302.6L172.1,272.5C172.2,236.8 172.6,232.6 175.8,232.2L178,231.9L178,258.3C178,285.8 178.6,297 180.2,297C180.7,297 185.2,294.7 190.1,291.8L199,286.6L199,276.3L199,266L194.5,261.7C190.4,257.8 190,256.9 190,252.7C190,249.3 190.6,247.4 192.5,245.1C200.1,236.1 214,241.1 214,252.9C214,258.2 212.2,261.3 207.9,263.5C205.1,265 205,265.2 205,273C205,277.3 205.3,281.1 205.8,281.3C206.2,281.6 211.2,279.1 216.9,275.7C226.9,269.9 227.3,269.7 228.7,271.6C229.4,272.6 230.7,274.2 231.4,275.1C232.6,276.6 231.6,277.4 221.9,283.1C215.9,286.6 211,289.7 211,290C211,290.3 215.5,293.2 220.9,296.5C226.4,299.8 230.6,302.9 230.3,303.4C229.9,303.9 230.4,304.1 231.3,303.7C232.2,303.4 232.9,303.4 232.7,303.8C232.6,304.2 234.1,306 236,307.9L239.5,311.1L235.5,310.5C233.3,310.2 231,309.2 230.4,308.5C229.8,307.7 229,307.3 228.7,307.7C228.3,308 228,307.7 228,307C228,306.3 227.7,305.9 227.4,306.2C227.1,306.6 221.9,303.9 215.9,300.3C209.1,296.4 204.2,294.1 203.3,294.5C200.8,295.4 185.1,305 184.5,305.9C184.3,306.4 191.1,311 199.8,316.1C208.4,321.2 215.9,325.8 216.5,326.3C217.1,327 217,327 216,326.5C213.3,325.1 216.3,327.5 223.2,332.4C229.7,336.9 232,339.1 228.2,337.2C222.3,334.1 219,332.9 218,333.5C217.4,333.8 217.1,333.6 217.2,332.8C217.4,332.1 216.4,331.4 215.1,331.2C213.8,331 204.8,326.1 195.1,320.3L177.5,309.8L172.5,312.5C164.9,316.7 165,316.6 165,324.3C165,329.7 165.4,331.6 166.8,332.7C167.7,333.5 167.9,333.9 167.2,333.5C165.5,332.6 165.7,334.6 167.6,336.4C169.8,338.7 168.5,340.1 165.4,338.9C163.2,338.1 162.9,338.2 163.3,339.5C163.8,340.7 163.6,340.8 162.2,339.9C160.8,339 159.4,339.4 155.5,341.8C149.5,345.5 142.9,346.5 137.8,344.6zM299.5,271.3C295.9,269.4 294.8,267.8 296,266.6C297.2,265.4 303,269.1 303,271.2C303,273.3 303.2,273.3 299.5,271.3zM240.2,269C234.8,266.8 238.5,263.1 257.3,251.9L263,248.5L262.8,229L262.5,209.6L250,202C238.6,195.2 237.5,194.2 237.5,191.6C237.5,189.6 238.1,188.5 239.7,187.9C241.4,187.3 244.5,188.7 254.5,194.6L267.1,202.2L282.8,192.9C291.4,187.8 299.3,183 300.2,182.2C301.7,180.9 302,179 302,170.9L302,161L298.2,158.6C290.8,154 288.4,146.6 291.5,138.5C292.7,135.3 294.4,133.1 297.6,130.9L302,127.9L302,95.2C302,77.2 301.6,62 301.2,61.4C300.8,60.8 299.5,60 298.2,59.6C297,59.2 294.6,57.7 292.9,56.3C289.8,53.7 289.8,53.7 286.7,55.5C284.9,56.5 276.8,61.2 268.5,66C260.2,70.8 242.2,81.3 228.5,89.3C214.8,97.2 192.2,110.3 178.3,118.4C164.5,126.4 152.3,133 151.2,133C150.1,133 148.2,132.1 146.9,131.1C144.8,129.4 144.7,129 146,127.7C147.3,126.5 189.3,101.7 232,77C273,53.3 282.6,47.6 283.8,46.8C284.5,46.2 285,43.5 285,40.6C285.1,21.4 307.2,11.9 320.6,25.4C325.1,29.8 327,34.7 327,41.8C327,45.7 327.3,46.2 331.2,48.6C335.1,50.9 369.6,70.9 427,104.3C439.4,111.4 450.2,117.8 451.1,118.3C452.3,119.1 453.6,118.6 456.4,116.5C459.4,114.2 461.2,113.7 467.3,113.3C473.4,113 475.1,113.3 478.5,115.2C486.2,119.7 490.7,131.2 488,139.5C486.4,144.4 481.4,149.9 476.5,152.1C470.8,154.7 465.3,154.5 459.1,151.4C454,148.8 453.6,148.8 451,150.3C449.5,151.2 448,151.7 447.6,151.3C447.3,151 447,151.2 447,151.8C447,153 441.1,156.6 439.8,156.2C439.3,156.1 439,156.5 439,157.1C439,157.6 438.6,157.8 438,157.5C437.4,157.2 437,157.4 437,157.9C437,158.5 436.2,159 435.2,159C434.2,159 432.7,159.9 431.7,161C430.7,162.2 429.5,162.8 429,162.5C428.4,162.2 428,162.4 428,163C428,163.6 427.5,163.8 426.8,163.4C426.2,163 426,163.1 426.3,163.6C426.6,164.1 424.3,165.9 421.2,167.5C418.1,169.2 415.3,170.8 415.2,171.3C415,171.7 414.4,171.8 413.9,171.4C413.4,171.1 413,171.4 413,172C413,172.6 412.6,172.9 412.1,172.6C411.6,172.3 410.9,172.7 410.6,173.6C410.3,174.4 409.6,174.8 409,174.5C408.5,174.2 408,174.4 408,174.9C408,175.5 407.7,175.9 407.2,175.8C405.5,175.4 397.9,179.4 396.9,181.1C396.4,182.2 395.5,182.8 394.9,182.5C394.4,182.1 394,182.2 394,182.7C394,183.1 392.5,184 390.8,184.6C389,185.2 386.8,186 385.9,186.4C384.8,186.9 384.1,186.2 383.3,183.5C382.7,181.6 382.6,180.2 383,180.5C383.5,180.8 384.2,180.4 384.7,179.7C385.8,177.8 390.2,175.5 391.9,175.9C392.6,176 392.9,175.7 392.5,175.1C392,174.1 393.2,173.6 394.5,174.2C394.7,174.4 395.7,173.4 396.6,172.1C398,170.2 398,169.6 396.9,168.9C394.9,167.6 374,155.3 356,144.8C347.5,139.8 339.5,135.1 338.2,134.3C336.1,133 336,132.5 336,115.7L336,98.5L324.4,91.7C318.1,88 312.2,85 311.4,85C310.2,85 310,88.6 310,106.4L310,127.9L314,130.7C318.5,133.9 322,140.1 322,145C322,149.5 317.8,156.3 313.5,158.9L310,160.9L310,170.8C310,179 310.3,180.9 311.8,182.2C312.7,183 320.4,187.9 328.9,193L344.3,202.3L349.1,199.6C351.8,198.1 354,197.1 354,197.4C354,197.7 355.2,196.8 356.7,195.4C358.2,194 360.7,192.6 362.2,192.3C363.7,192 364.8,191.4 364.5,191C364,190.3 364.9,190 370,189.7C372.9,189.5 373.6,189.9 373.8,191.7C374,193.3 373.3,194.3 370.5,195.6C368.5,196.5 366.6,197.9 366.3,198.7C366,199.4 365.2,200 364.4,200C363.6,200 363,200.5 363,201.1C363,201.6 362.6,201.9 362.1,201.5C361.6,201.2 360.5,201.6 359.7,202.4C358.9,203.2 358,203.6 357.6,203.3C357.3,203 356.8,203.5 356.4,204.4C356.1,205.3 355.4,205.8 355,205.5C354.5,205.2 353.5,205.6 352.7,206.4C351.9,207.2 351,207.7 350.6,207.5C350.3,207.2 350.2,207.3 350.5,207.6C350.7,208 350.3,208.9 349.5,209.7C348.3,210.8 348.1,212.8 348.5,218.3C348.9,223.2 348.7,224.9 348.1,223.5C347.4,222.1 347.1,225.8 347.1,235.2C347,247.6 347.2,249 348.9,249.9C349.9,250.5 351.1,250.6 351.5,250.2C352,249.8 352,250.1 351.6,250.8C351.2,251.4 351.4,252 351.9,252C353.9,252 354.5,252.3 355.6,253.8C356.3,254.7 357.2,255 358,254.5C358.9,254 359.1,254.1 358.6,254.8C358,255.9 359.2,256.4 360.5,255.8C360.7,255.6 361.6,256.4 362.5,257.5C363.4,258.6 363.9,258.8 363.5,258C363.1,257.1 363.4,257.2 364.3,258.3C365.2,259.3 366.1,260.1 366.4,260.1C368.3,259.9 369.1,260.1 368.6,260.8C368.3,261.3 369.5,262.4 371.1,263.4C374.3,265.3 374.7,268.2 371.8,268.8C369.1,269.3 362.1,267.1 360,265C359,264 357.9,263.4 357.6,263.8C357.3,264.1 357,263.9 357,263.3C357,262 348.9,257.1 346,256.5C344.9,256.3 343.6,255.9 343.1,255.6C342.6,255.2 338.8,257 334.7,259.4C327.3,263.8 320.7,266.3 319.6,265.2C318.6,264.3 326.1,257.8 332.7,253.9C338.5,250.4 338.8,249.9 339.9,244.9C340.9,240.3 340.5,211.7 339.4,209.9C339.2,209.6 331.6,204.9 322.5,199.6L305.9,189.8L289.2,199.7L272.5,209.5L272.2,228.8L272,248L276.7,250.8C279.3,252.3 282.4,254.6 283.6,255.8C284.9,257.1 286.4,257.9 287,257.5C287.6,257.2 287.9,257.3 287.8,257.9C287.6,258.4 289.1,260.2 291,261.9C293.5,264 294.2,265.1 293.4,266C292.6,266.8 291.1,266.5 287.6,265C285,263.9 282.5,263.2 282.1,263.4C281.7,263.7 278.5,262.1 274.9,260C271.4,257.8 268.2,256 267.8,256C267.5,256 262.2,258.9 256.1,262.5C243.2,270.1 243.2,270.1 240.2,269zM414.1,257.2C414.8,256 415.7,255 416.2,255C417.8,255 417,252.1 414.4,249.1C412,246.2 407,244.7 407,246.9C407,247.4 406.1,248.2 405,248.5C403.4,249 403.1,249.7 403.6,252.3C404.7,258.8 411.6,262 414.1,257.2zM206.2,257.3C208.4,255.3 208.6,250.7 206.4,248.6C202.9,245 196,247.6 196,252.6C196,257.8 202.4,260.8 206.2,257.3zM203.5,213.8C197.4,213.4 185.3,212.7 176.5,212.3C160.9,211.5 160.5,211.4 160.2,209.2C160,207.8 160.5,206.7 161.6,206.3C164.2,205.3 214.8,208 220.2,209.4C222.8,210 225.2,210.8 225.5,211.1C225.8,211.5 223.4,212.3 220.3,213.1C216,214.1 211.6,214.3 203.5,213.8zM396.8,213.5C396.3,213 393.9,212.5 389.2,212.1C388.6,212.1 388,211.6 388,211.1C388,209.8 393.4,209.1 411.5,208C420.3,207.4 431,206.7 435.3,206.4C446,205.5 450,206.4 450,209.5C450,211.9 449.8,212 443.1,212C435.6,212 419.6,212.6 405.9,213.5C401.2,213.8 397.1,213.8 396.8,213.5zM220,200.3C218.6,200 204.2,194.3 188,187.6C171.8,180.8 154.8,173.9 150.3,172.1C145.8,170.3 141.6,168.2 140.9,167.4C139.4,165.6 140.5,163 142.7,163C143.7,163 151.9,166.1 161,169.9C170.1,173.6 184.9,179.7 194,183.4C222.5,195 225.5,196.3 226.7,197.8C229.1,200.6 226.7,201.5 220,200.3zM384,199.9C384,199.3 385.8,198.1 388,197.3C390.2,196.4 391.8,195.4 391.5,195.1C391.3,194.7 392.1,194.3 393.3,194.3C394.5,194.2 395.6,193.6 395.8,193C396,192.5 397.5,192 399.1,192C400.8,192 401.9,191.6 401.5,191C401.1,190.4 401.6,190.3 402.6,190.7C403.8,191.1 404.1,191 403.6,190.2C403.1,189.4 403.4,189.2 404.4,189.6C405.3,189.9 406,189.7 406,189.1C406,188.5 407.2,188 408.6,188C410.2,188 410.9,187.6 410.4,186.8C410,186.1 410.1,186 410.9,186.4C412.3,187.3 416.2,186.2 415.5,185C415.2,184.6 415.6,184.2 416.3,184.3C419.5,184.4 421.1,183.9 420.5,183C420.2,182.4 420.6,182.3 421.4,182.6C422.4,183 423,182.7 423,181.9C423,181.2 423.3,180.9 423.6,181.3C424,181.6 424.9,181.3 425.6,180.5C426.4,179.7 427.7,179.3 428.5,179.6C429.3,180 430,179.8 430,179.3C430,178.4 443.6,172.4 447,171.8C447.8,171.6 448.7,171.3 449,171C450.1,169.8 465.7,163.7 468.1,163.5C470.3,163.4 470.6,163.7 470.2,165.6C469.6,168.8 469.5,168.9 453,175.5C445,178.7 437.2,181.9 435.6,182.6C434,183.4 431.9,184 430.8,184C429.8,184 429,184.4 429,185C429,185.6 427.9,186 426.5,186C425.1,186 424,186.5 424,187.1C424,187.6 423.6,187.9 423.1,187.6C422.1,187 418.6,188.3 404.4,194.6C399.4,196.8 386.9,201 385.3,201C384.6,201 384,200.5 384,199.9zM209.2,167.3C205.2,165.8 209.3,162.7 237.7,146C254,136.4 268,127.9 268.7,127.2C269.6,126.3 270,123 270,116.8L270,107.8L265.9,104.1C262.5,101.1 261.7,99.7 261.4,96C261.1,93.4 261.5,90.5 262.2,89C264.1,85.5 269.7,82 273.5,82C278,82 283.1,85.8 284.9,90.4C287,95.8 284.9,101.6 279.8,104.9L276,107.3L276,116C276,131 277,129.6 258.1,140.9C229.8,157.7 212.9,167.4 211.7,167.6C211,167.6 209.9,167.5 209.2,167.3zM414.5,161.5C418.6,159.1 422,157.3 422,157.5C422,157.8 423.1,157 424.5,155.8C426.5,154 426.8,153.4 425.8,152.4C424.7,151.3 405.3,139.8 384.4,127.9L379.4,125L374.4,127.1L369.4,129.2L364.9,127.3C356.2,123.4 354.5,113.6 361.5,107.2C364.3,104.6 365.8,104 369.5,104C375.9,104 381,108.6 381.7,115.2L382.2,119.8L392.4,125.6C397.9,128.8 409.5,135.5 418.1,140.5C426.6,145.6 434.4,149.7 435.3,149.7C436.2,149.7 437.2,149 437.4,148.3C437.7,147.5 438.4,147.2 439,147.5C439.5,147.8 440,147.6 440,147C440,146.4 440.4,146.1 440.9,146.4C441.4,146.8 442,146.7 442.2,146.2C442.3,145.8 443.9,144.4 445.7,143.2C448.6,141.1 448.8,140.7 447.9,138.2C447.3,136.7 447.1,133.5 447.4,131L448,126.5L437.8,120.6C432.1,117.3 421.1,110.9 413.2,106.3C405.4,101.7 394.8,95.5 389.7,92.6C384.7,89.7 367.6,79.9 351.7,70.7C335.9,61.5 322.8,54 322.5,54C322.2,54 320.1,55.3 317.8,57C315.6,58.6 313.1,60 312.5,60C310.6,60 310,62.4 310,69.1C310,73.4 310.5,75.4 311.8,76.6C312.7,77.5 319.8,81.9 327.5,86.5L341.5,94.7L341.8,112.2L342,129.6L372.8,147.7C389.7,157.6 404.3,165.8 405.2,165.9C406.2,166 410.3,164 414.5,161.5zM181.2,150.2C178.5,149.3 187.2,143 207.7,131C227.5,119.4 229,118.3 229,115.7C229,110.4 232,105.9 236.7,103.8C240.7,102.1 241.6,102 245.3,103.2C252.7,105.5 255.9,113.2 252.5,120.4C249.6,126.5 242.5,128.6 235.6,125.3L232.1,123.7L221.3,130C186.8,150.2 184.6,151.4 181.2,150.2zM373.2,120.8C375.9,118.6 376.2,115.5 373.9,112.7C370.3,108.1 364,110.3 364,116.1C364,121.1 369.3,123.8 373.2,120.8zM245.5,119.6C246.6,118.8 247.3,117 247.3,115C247.3,109.7 241.2,106.9 237.6,110.6C232.5,115.6 239.7,123.9 245.5,119.6zM276.8,99.4C279.3,97.7 279.9,92.3 277.8,90.2C275.7,88.1 270.3,88.7 268.6,91.2C266.4,94.3 266.6,95.7 269.5,98.5C272.3,101.4 273.7,101.6 276.8,99.4z"/>
</svg>
